<svg width="542" height="108" viewBox="0 0 542 108" fill="none" xmlns="http://www.w3.org/2000/svg">
<path d="M138.328 99L171.352 9.39999H186.2L218.968 99H204.632L196.952 77.112H160.344L152.664 99H138.328ZM164.184 66.36H193.112L178.648 25.528L164.184 66.36ZM224.551 99V35.512H236.583L237.607 46.648C239.57 42.7227 242.428 39.6507 246.183 37.432C250.023 35.128 254.418 33.976 259.367 33.976C267.047 33.976 273.063 36.3653 277.415 41.144C281.852 45.9227 284.071 53.048 284.071 62.52V99H270.631V63.928C270.631 51.64 265.596 45.496 255.527 45.496C250.492 45.496 246.311 47.288 242.983 50.872C239.74 54.456 238.119 59.576 238.119 66.232V99H224.551ZM323.731 100.536C317.502 100.536 311.912 99.128 306.963 96.312C302.099 93.496 298.259 89.6133 295.443 84.664C292.712 79.6293 291.347 73.8267 291.347 67.256C291.347 60.6853 292.712 54.9253 295.443 49.976C298.259 44.9413 302.099 41.016 306.963 38.2C311.912 35.384 317.502 33.976 323.731 33.976C331.582 33.976 338.152 36.024 343.443 40.12C348.819 44.216 352.275 49.7627 353.811 56.76H339.603C338.75 53.2613 336.872 50.5307 333.971 48.568C331.07 46.6053 327.656 45.624 323.731 45.624C320.403 45.624 317.331 46.4773 314.515 48.184C311.699 49.8053 309.438 52.2373 307.731 55.48C306.024 58.6373 305.171 62.5627 305.171 67.256C305.171 71.9493 306.024 75.9173 307.731 79.16C309.438 82.3173 311.699 84.7493 314.515 86.456C317.331 88.1627 320.403 89.016 323.731 89.016C327.656 89.016 331.07 88.0347 333.971 86.072C336.872 84.1093 338.75 81.336 339.603 77.752H353.811C352.36 84.5787 348.947 90.0827 343.571 94.264C338.195 98.4453 331.582 100.536 323.731 100.536ZM362.126 99V6.84H375.694V45.752C377.827 42.0827 380.771 39.224 384.526 37.176C388.366 35.0427 392.59 33.976 397.198 33.976C404.793 33.976 410.766 36.3653 415.118 41.144C419.47 45.9227 421.646 53.048 421.646 62.52V99H408.206V63.928C408.206 51.64 403.299 45.496 393.486 45.496C388.366 45.496 384.099 47.288 380.686 50.872C377.358 54.456 375.694 59.576 375.694 66.232V99H362.126ZM460.922 100.536C454.863 100.536 449.402 99.1707 444.538 96.44C439.759 93.624 435.962 89.7413 433.146 84.792C430.33 79.7573 428.922 73.912 428.922 67.256C428.922 60.6 430.33 54.7973 433.146 49.848C436.047 44.8133 439.93 40.9307 444.794 38.2C449.658 35.384 455.077 33.976 461.05 33.976C467.109 33.976 472.527 35.384 477.306 38.2C482.17 40.9307 486.01 44.8133 488.826 49.848C491.727 54.7973 493.178 60.6 493.178 67.256C493.178 73.912 491.727 79.7573 488.826 84.792C486.01 89.7413 482.17 93.624 477.306 96.44C472.442 99.1707 466.981 100.536 460.922 100.536ZM460.922 88.888C464.165 88.888 467.151 88.0773 469.882 86.456C472.698 84.8347 474.959 82.4453 476.666 79.288C478.373 76.0453 479.226 72.0347 479.226 67.256C479.226 62.4773 478.373 58.5093 476.666 55.352C475.045 52.1093 472.826 49.6773 470.01 48.056C467.279 46.4347 464.293 45.624 461.05 45.624C457.807 45.624 454.778 46.4347 451.962 48.056C449.231 49.6773 447.013 52.1093 445.306 55.352C443.599 58.5093 442.746 62.4773 442.746 67.256C442.746 72.0347 443.599 76.0453 445.306 79.288C447.013 82.4453 449.231 84.8347 451.962 86.456C454.693 88.0773 457.679 88.888 460.922 88.888ZM501.451 99V35.512H513.611L514.763 47.544C516.982 43.3627 520.054 40.0773 523.979 37.688C527.99 35.2133 532.811 33.976 538.443 33.976V48.184H534.731C530.976 48.184 527.606 48.824 524.619 50.104C521.718 51.2987 519.371 53.3893 517.579 56.376C515.872 59.2773 515.019 63.3307 515.019 68.536V99H501.451Z" fill="#CED7F3"/>
<path d="M64 22C64 16.4772 59.5228 12 54 12C48.4772 12 44 16.4772 44 22C44 27.5228 48.4772 32 54 32C59.5228 32 64 27.5228 64 22ZM76 22C76 32.0701 69.2339 40.5591 60 43.1709V95.5703C80.3535 92.6587 96 75.1586 96 54H108C108 83.8234 83.8234 108 54 108C24.1766 108 0 83.8234 0 54H12C12 75.1586 27.6465 92.6587 48 95.5703V43.1709C38.7661 40.5591 32 32.0701 32 22C32 9.84974 41.8497 0 54 0C66.1503 0 76 9.84974 76 22Z" fill="#CED7F3"/>
</svg>
