<svg width="451" height="359" viewBox="0 0 451 359" fill="none" xmlns="http://www.w3.org/2000/svg">
<g clip-path="url(#clip0_64_212)">
<path d="M79 22C79 9.84973 88.8497 0 101 0H429C441.15 0 451 9.84974 451 22V320C451 332.15 441.15 342 429 342H101C88.8497 342 79 332.15 79 320V22Z" fill="#191928"/>
<g opacity="0.7">
<path d="M104.762 90L109.039 73.3594H111.16L106.883 90H104.762ZM98.8203 85.7812L99.1719 83.7891H110.891L110.539 85.7812H98.8203ZM99.6523 90L103.93 73.3594H106.051L101.773 90H99.6523ZM99.9102 79.5703L100.262 77.5781H111.98L111.629 79.5703H99.9102ZM129.77 90.2461C128.692 90.2461 127.856 89.9414 127.262 89.332C126.676 88.7227 126.383 87.8633 126.383 86.7539C126.383 85.3242 126.68 84.0312 127.274 82.875C127.875 81.7188 128.715 80.7305 129.793 79.9102C130.872 79.082 132.133 78.4492 133.579 78.0117C135.024 77.5664 136.594 77.3438 138.29 77.3438H138.5L136.731 79.5703C135.27 79.6328 133.946 79.9727 132.758 80.5898C131.571 81.207 130.629 82.0234 129.934 83.0391C129.239 84.0469 128.891 85.1875 128.891 86.4609C128.891 86.9609 129.032 87.3477 129.313 87.6211C129.602 87.8867 130.008 88.0195 130.532 88.0195C131.625 88.0195 132.579 87.5117 133.391 86.4961C134.211 85.4805 134.805 84.043 135.172 82.1836L135.032 87.0469H133.672L134.844 86.3789C134.454 87.543 133.813 88.4805 132.922 89.1914C132.04 89.8945 130.989 90.2461 129.77 90.2461ZM137.704 90.1172C137.133 90.1172 136.649 90.0469 136.25 89.9062C135.86 89.7656 135.551 89.5547 135.325 89.2734C135.098 88.9844 134.954 88.6211 134.891 88.1836C134.829 87.7383 134.84 87.2148 134.926 86.6133L135.067 82.7461L136.286 75.9727C136.395 75.3711 136.364 74.9336 136.192 74.6602C136.02 74.3867 135.696 74.25 135.219 74.25C135.024 74.25 134.829 74.2617 134.633 74.2852C134.446 74.3008 134.254 74.332 134.059 74.3789L133.79 72.3633C134.086 72.293 134.383 72.2461 134.68 72.2227C134.977 72.1914 135.274 72.1758 135.571 72.1758C136.93 72.1758 137.86 72.5039 138.36 73.1602C138.868 73.8164 138.993 74.8711 138.735 76.3242L136.977 86.2734C136.907 86.6719 136.903 87.0039 136.965 87.2695C137.036 87.5352 137.176 87.7344 137.387 87.8672C137.598 88 137.883 88.0664 138.243 88.0664H138.958L138.594 90.1172H137.704ZM146.346 88.0078C146.971 88.0078 147.639 87.9102 148.35 87.7148C149.061 87.5195 149.745 87.2461 150.401 86.8945L151.21 88.8984C150.444 89.3203 149.624 89.6484 148.749 89.8828C147.874 90.1172 147.038 90.2344 146.241 90.2344C144.632 90.2344 143.374 89.8125 142.467 88.9688C141.569 88.125 141.12 86.9492 141.12 85.4414C141.12 83.8164 141.425 82.3984 142.034 81.1875C142.651 79.9766 143.51 79.0352 144.612 78.3633C145.714 77.6836 146.999 77.3438 148.467 77.3438C149.624 77.3438 150.522 77.6328 151.163 78.2109C151.811 78.7891 152.135 79.5938 152.135 80.625C152.135 82.1562 151.35 83.3633 149.78 84.2461C148.217 85.1289 146.034 85.5977 143.229 85.6523L142.983 83.7773C145.077 83.7461 146.706 83.4688 147.87 82.9453C149.042 82.4219 149.628 81.6992 149.628 80.7773C149.628 80.4023 149.499 80.1094 149.241 79.8984C148.983 79.6797 148.616 79.5703 148.139 79.5703C147.21 79.5703 146.389 79.8086 145.678 80.2852C144.975 80.7617 144.425 81.4297 144.026 82.2891C143.635 83.1484 143.436 84.1523 143.428 85.3008C143.436 86.1523 143.698 86.8164 144.214 87.293C144.729 87.7695 145.44 88.0078 146.346 88.0078ZM155.892 90L157.45 81.2461C157.56 80.6445 157.528 80.2109 157.356 79.9453C157.185 79.6719 156.86 79.5352 156.384 79.5352C155.728 79.5352 155.095 79.625 154.485 79.8047L154.239 77.6719C154.591 77.5625 154.978 77.4805 155.399 77.4258C155.821 77.3711 156.274 77.3438 156.759 77.3438C158.118 77.3438 159.052 77.6719 159.56 78.3281C160.067 78.9844 160.192 80.0352 159.935 81.4805L158.411 90H155.892ZM153.114 90L153.501 87.8203H161.798L161.411 90H153.114ZM159.22 85.4297L159.806 80.4023H160.321C160.548 79.4258 160.989 78.6719 161.645 78.1406C162.302 77.6094 163.091 77.3438 164.013 77.3438C165.263 77.3438 166.165 77.7383 166.72 78.5273C167.282 79.3086 167.45 80.4102 167.224 81.832H164.704C164.806 81.0664 164.743 80.5 164.517 80.1328C164.29 79.7578 163.888 79.5703 163.31 79.5703C162.716 79.5703 162.161 79.7539 161.645 80.1211C161.138 80.4883 160.677 81.1016 160.263 81.9609C159.856 82.8125 159.509 83.9688 159.22 85.4297ZM175.679 75.6094C175.202 75.6094 174.792 75.4414 174.448 75.1055C174.113 74.7617 173.945 74.3516 173.945 73.875C173.945 73.3906 174.113 72.9805 174.448 72.6445C174.792 72.3086 175.202 72.1406 175.679 72.1406C176.163 72.1406 176.573 72.3086 176.909 72.6445C177.245 72.9805 177.413 73.3906 177.413 73.875C177.413 74.3516 177.245 74.7617 176.909 75.1055C176.573 75.4414 176.163 75.6094 175.679 75.6094ZM178.433 87.3633L179.241 89.25C178.765 89.5234 178.261 89.7578 177.73 89.9531C177.198 90.1406 176.589 90.2344 175.902 90.2344C174.488 90.2344 173.437 89.9023 172.749 89.2383C172.062 88.5742 171.757 87.6016 171.835 86.3203C171.874 85.7344 171.988 85.1641 172.175 84.6094C172.37 84.0547 172.577 83.5156 172.796 82.9922C173.023 82.4688 173.195 81.9648 173.312 81.4805C173.476 80.8398 173.405 80.3555 173.101 80.0273C172.804 79.6992 172.284 79.5352 171.542 79.5352C170.8 79.5352 170.085 79.625 169.398 79.8047L169.152 77.6719C169.613 77.5391 170.073 77.4531 170.534 77.4141C170.995 77.3672 171.456 77.3438 171.917 77.3438C173.534 77.3438 174.671 77.7148 175.327 78.457C175.984 79.1914 176.136 80.2773 175.784 81.7148C175.652 82.2695 175.476 82.7891 175.257 83.2734C175.046 83.75 174.851 84.2227 174.671 84.6914C174.491 85.1602 174.382 85.668 174.343 86.2148C174.257 87.4102 174.929 88.0078 176.359 88.0078C176.749 88.0078 177.089 87.9609 177.378 87.8672C177.675 87.7656 178.027 87.5977 178.433 87.3633ZM184.369 90L182.728 77.5781L185.33 77.3438L186.525 87.8203H186.736C188.283 86.5391 189.458 85.0508 190.263 83.3555C191.068 81.6523 191.509 79.7266 191.587 77.5781H194.095C193.994 80.25 193.388 82.6211 192.279 84.6914C191.169 86.7539 189.544 88.5234 187.404 90H184.369ZM201.636 88.0078C202.261 88.0078 202.929 87.9102 203.64 87.7148C204.351 87.5195 205.035 87.2461 205.691 86.8945L206.5 88.8984C205.734 89.3203 204.914 89.6484 204.039 89.8828C203.164 90.1172 202.328 90.2344 201.531 90.2344C199.922 90.2344 198.664 89.8125 197.757 88.9688C196.859 88.125 196.41 86.9492 196.41 85.4414C196.41 83.8164 196.715 82.3984 197.324 81.1875C197.941 79.9766 198.8 79.0352 199.902 78.3633C201.004 77.6836 202.289 77.3438 203.757 77.3438C204.914 77.3438 205.812 77.6328 206.453 78.2109C207.101 78.7891 207.425 79.5938 207.425 80.625C207.425 82.1562 206.64 83.3633 205.07 84.2461C203.507 85.1289 201.324 85.5977 198.519 85.6523L198.273 83.7773C200.367 83.7461 201.996 83.4688 203.16 82.9453C204.332 82.4219 204.918 81.6992 204.918 80.7773C204.918 80.4023 204.789 80.1094 204.531 79.8984C204.273 79.6797 203.906 79.5703 203.429 79.5703C202.5 79.5703 201.679 79.8086 200.968 80.2852C200.265 80.7617 199.715 81.4297 199.316 82.2891C198.925 83.1484 198.726 84.1523 198.718 85.3008C198.726 86.1523 198.988 86.8164 199.504 87.293C200.019 87.7695 200.73 88.0078 201.636 88.0078ZM221.84 90L229.223 73.3477H232.985C233.188 74.2305 233.379 75.2344 233.559 76.3594C233.746 77.4766 233.914 78.6484 234.063 79.875C234.219 81.1016 234.352 82.3281 234.461 83.5547C234.578 84.7734 234.668 85.9375 234.731 87.0469C234.801 88.1484 234.84 89.1328 234.848 90H232.363C232.371 89.2812 232.348 88.4336 232.293 87.457C232.246 86.4805 232.176 85.4453 232.082 84.3516C231.996 83.2578 231.891 82.1641 231.766 81.0703C231.649 79.9688 231.524 78.9258 231.391 77.9414C231.266 76.957 231.141 76.0977 231.016 75.3633H230.805L224.442 90H221.84ZM224.922 85.9453L225.402 83.7188H233.84L233.36 85.9453H224.922ZM242.741 88.0078C243.553 88.0078 244.346 87.875 245.12 87.6094C245.901 87.3438 246.592 86.9961 247.194 86.5664L248.038 88.4883C247.272 89.0117 246.397 89.4336 245.413 89.7539C244.428 90.0742 243.424 90.2344 242.401 90.2344C240.862 90.2344 239.67 89.8359 238.827 89.0391C237.983 88.2422 237.561 87.1211 237.561 85.6758C237.561 83.9961 237.854 82.5352 238.44 81.293C239.026 80.043 239.846 79.0742 240.901 78.3867C241.963 77.6914 243.205 77.3438 244.627 77.3438C245.909 77.3438 246.928 77.5469 247.686 77.9531C248.444 78.3594 249.018 79.0156 249.409 79.9219L247.592 81.3633C247.186 80.7383 246.721 80.2852 246.198 80.0039C245.674 79.7148 245.041 79.5703 244.299 79.5703C243.455 79.5703 242.713 79.8125 242.073 80.2969C241.44 80.7812 240.948 81.4609 240.596 82.3359C240.252 83.2109 240.077 84.2383 240.069 85.418C240.077 86.2383 240.311 86.875 240.772 87.3281C241.241 87.7812 241.897 88.0078 242.741 88.0078ZM256.563 88.0078C257.376 88.0078 258.169 87.875 258.942 87.6094C259.723 87.3438 260.415 86.9961 261.016 86.5664L261.86 88.4883C261.094 89.0117 260.219 89.4336 259.235 89.7539C258.251 90.0742 257.247 90.2344 256.223 90.2344C254.684 90.2344 253.493 89.8359 252.649 89.0391C251.805 88.2422 251.383 87.1211 251.383 85.6758C251.383 83.9961 251.676 82.5352 252.262 81.293C252.848 80.043 253.669 79.0742 254.723 78.3867C255.786 77.6914 257.028 77.3438 258.45 77.3438C259.731 77.3438 260.751 77.5469 261.508 77.9531C262.266 78.3594 262.84 79.0156 263.231 79.9219L261.415 81.3633C261.008 80.7383 260.544 80.2852 260.02 80.0039C259.497 79.7148 258.864 79.5703 258.122 79.5703C257.278 79.5703 256.536 79.8125 255.895 80.2969C255.262 80.7812 254.77 81.4609 254.419 82.3359C254.075 83.2109 253.899 84.2383 253.891 85.418C253.899 86.2383 254.133 86.875 254.594 87.3281C255.063 87.7812 255.719 88.0078 256.563 88.0078ZM269.753 90.2344C268.37 90.2344 267.288 89.8398 266.507 89.0508C265.733 88.2539 265.347 87.1484 265.347 85.7344C265.347 83.0938 265.936 81.0352 267.116 79.5586C268.296 78.082 269.932 77.3438 272.026 77.3438C273.409 77.3438 274.487 77.75 275.261 78.5625C276.042 79.375 276.432 80.5078 276.432 81.9609C276.432 84.5625 275.843 86.5938 274.663 88.0547C273.491 89.5078 271.854 90.2344 269.753 90.2344ZM270.186 88.0195C271.358 88.0195 272.272 87.5312 272.929 86.5547C273.593 85.5703 273.925 84.207 273.925 82.4648C273.925 81.5586 273.729 80.8516 273.339 80.3438C272.948 79.8281 272.397 79.5703 271.686 79.5703C270.483 79.5703 269.542 80.0586 268.862 81.0352C268.19 82.0117 267.854 83.3711 267.854 85.1133C267.854 86.0273 268.057 86.7422 268.464 87.2578C268.878 87.7656 269.452 88.0195 270.186 88.0195ZM282.286 90.2461C281.193 90.2461 280.345 89.9219 279.743 89.2734C279.142 88.6172 278.841 87.6992 278.841 86.5195C278.841 85.3242 279.032 84.0039 279.415 82.5586C279.806 81.1055 280.431 79.3672 281.29 77.3438L283.775 77.8008C282.923 79.8711 282.306 81.5742 281.923 82.9102C281.54 84.2383 281.349 85.3438 281.349 86.2266C281.349 86.7969 281.497 87.2383 281.794 87.5508C282.091 87.8633 282.509 88.0195 283.048 88.0195C284.087 88.0195 284.946 87.5195 285.626 86.5195C286.306 85.5117 286.825 84.0664 287.185 82.1836L286.974 87.0586H286.2L286.868 86.4961C286.595 87.2617 286.282 87.9258 285.931 88.4883C285.579 89.0508 285.118 89.4844 284.548 89.7891C283.985 90.0938 283.232 90.2461 282.286 90.2461ZM290.091 90.1172C289.247 90.1172 288.575 90.0078 288.075 89.7891C287.575 89.5625 287.235 89.2109 287.056 88.7344C286.876 88.2578 286.837 87.6406 286.939 86.8828L286.798 84.3633L288.005 77.5781H290.548L289.048 86.0273C288.915 86.7773 288.95 87.3047 289.153 87.6094C289.364 87.9141 289.814 88.0664 290.501 88.0664H291.005L290.642 90.1172H290.091ZM292.394 90L294.585 77.5781H296.66L296.577 80.543L294.913 90H292.394ZM299.988 90L301.429 81.7383C301.554 81.0195 301.499 80.4805 301.265 80.1211C301.038 79.7539 300.628 79.5703 300.035 79.5703C299.402 79.5703 298.816 79.7539 298.277 80.1211C297.738 80.4883 297.249 81.1016 296.812 81.9609C296.382 82.8125 296.015 83.9688 295.71 85.4297L296.296 80.4023H296.812C297.062 79.4258 297.558 78.6719 298.3 78.1406C299.042 77.6094 299.933 77.3438 300.972 77.3438C302.23 77.3438 303.105 77.7227 303.597 78.4805C304.097 79.2305 304.214 80.3477 303.949 81.832L302.507 90H299.988ZM312.943 90.2344C311.505 90.2344 310.447 89.9297 309.767 89.3203C309.095 88.7031 308.759 87.7461 308.759 86.4492C308.759 86.1211 308.775 85.8086 308.806 85.5117C308.837 85.207 308.884 84.8672 308.947 84.4922C309.017 84.1172 309.099 83.6562 309.193 83.1094L310.822 73.8281H313.341L311.712 83.1094C311.58 83.8906 311.47 84.4922 311.384 84.9141C311.306 85.3359 311.267 85.7695 311.267 86.2148C311.267 86.832 311.439 87.2852 311.783 87.5742C312.127 87.8633 312.666 88.0078 313.4 88.0078C313.97 88.0078 314.47 87.9609 314.9 87.8672C315.33 87.7734 315.841 87.6055 316.435 87.3633L316.892 89.3672C316.33 89.6094 315.732 89.8164 315.099 89.9883C314.474 90.1523 313.755 90.2344 312.943 90.2344ZM306.873 79.7578L307.259 77.5781H318.205L317.818 79.7578H306.873ZM324.914 90.2344C323.898 90.2344 322.965 90.1719 322.113 90.0469C321.262 89.9219 320.566 89.75 320.027 89.5312L320.707 87.2812C321.613 87.5078 322.465 87.6875 323.262 87.8203C324.066 87.9453 324.75 88.0078 325.312 88.0078C326.336 88.0078 327.129 87.875 327.691 87.6094C328.262 87.3359 328.547 86.9531 328.547 86.4609C328.547 86.2188 328.449 85.9961 328.254 85.793C328.066 85.582 327.793 85.418 327.433 85.3008L323.918 84.1172C323.144 83.8594 322.551 83.4961 322.137 83.0273C321.723 82.5586 321.515 82.0312 321.515 81.4453C321.515 80.1406 322.066 79.1328 323.168 78.4219C324.277 77.7031 325.844 77.3438 327.867 77.3438C328.578 77.3438 329.305 77.375 330.047 77.4375C330.797 77.5 331.5 77.5859 332.156 77.6953L331.523 79.8516C330.789 79.7656 330.07 79.6992 329.367 79.6523C328.672 79.5977 328.055 79.5703 327.515 79.5703C326.406 79.5703 325.547 79.7148 324.937 80.0039C324.336 80.2852 324.035 80.6875 324.035 81.2109C324.035 81.3984 324.109 81.5703 324.258 81.7266C324.406 81.875 324.625 81.9922 324.914 82.0781L328.488 83.2148C329.316 83.4805 329.949 83.875 330.387 84.3984C330.832 84.9141 331.055 85.5078 331.055 86.1797C331.055 87.4688 330.519 88.4688 329.449 89.1797C328.379 89.8828 326.867 90.2344 324.914 90.2344Z" fill="#F9E2AF"/>
<path d="M116.182 92.5078V70.8516H118.619V92.5078H116.182ZM118.385 92.5078V90.2812H123.518V92.5078H118.385ZM118.385 73.0781V70.8516H123.518V73.0781H118.385ZM219.713 92.3438C217.174 92.3438 215.201 91.4102 213.795 89.543C212.396 87.668 211.697 85.0234 211.697 81.6094C211.697 78.2422 212.396 75.6367 213.795 73.793C215.201 71.9414 217.174 71.0156 219.713 71.0156H220.275V73.125H219.947C218.096 73.125 216.666 73.8672 215.658 75.3516C214.658 76.8359 214.158 78.9219 214.158 81.6094C214.158 84.3438 214.658 86.4648 215.658 87.9727C216.666 89.4805 218.096 90.2344 219.947 90.2344H220.275V92.3438H219.713ZM335.35 92.3438V90.2344H335.678C337.529 90.2344 338.955 89.4805 339.955 87.9727C340.963 86.4648 341.467 84.3438 341.467 81.6094C341.467 78.9219 340.963 76.8359 339.955 75.3516C338.955 73.8672 337.529 73.125 335.678 73.125H335.35V71.0156H335.912C338.459 71.0156 340.432 71.9414 341.83 73.793C343.229 75.6367 343.928 78.2422 343.928 81.6094C343.928 85.0234 343.229 87.668 341.83 89.543C340.432 91.4102 338.459 92.3438 335.912 92.3438H335.35ZM354.071 92.5078V70.8516H356.508V92.5078H354.071ZM349.172 92.5078V90.2812H354.305V92.5078H349.172ZM349.172 73.0781V70.8516H354.305V73.0781H349.172Z" fill="#9399B2"/>
</g>
<path d="M110 49.0004L100 39.0004L110 29.0004L112.8 31.8004L105.65 39.0004L112.8 46.2004L110 49.0004ZM118.9 55.6004L115.1 54.4004L125.1 22.4004L128.9 23.6004L118.9 55.6004ZM134 49.0004L131.2 46.2004L138.35 39.0004L131.2 31.8004L134 29.0004L144 39.0004L134 49.0004Z" fill="#2B2C3D"/>
<rect x="98" y="138" width="303" height="24" rx="12" fill="#191928"/>
<rect x="100" y="140" width="299" height="20" rx="10" stroke="#2B2C3D" stroke-opacity="0.5" stroke-width="4"/>
<rect x="98" y="176" width="232" height="24" rx="12" fill="#2B2C3D" fill-opacity="0.5"/>
<rect x="100" y="178" width="228" height="20" rx="10" stroke="#2B2C3D" stroke-opacity="0.5" stroke-width="4"/>
<rect x="98" y="104" width="232" height="24" rx="12" fill="#2B2C3D" fill-opacity="0.5"/>
<rect x="100" y="106" width="228" height="20" rx="10" stroke="#2B2C3D" stroke-opacity="0.5" stroke-width="4"/>
<rect x="98" y="214" width="112" height="24" rx="12" fill="#2B2C3D" fill-opacity="0.5"/>
<rect x="100" y="216" width="108" height="20" rx="10" stroke="#2B2C3D" stroke-opacity="0.5" stroke-width="4"/>
<rect x="218" y="214" width="211" height="24" rx="12" fill="#191928"/>
<rect x="220" y="216" width="207" height="20" rx="10" stroke="#2B2C3D" stroke-opacity="0.5" stroke-width="4"/>
<rect x="98" y="252" width="273" height="24" rx="12" fill="#2B2C3D" fill-opacity="0.5"/>
<rect x="100" y="254" width="269" height="20" rx="10" stroke="#2B2C3D" stroke-opacity="0.5" stroke-width="4"/>
<rect x="98" y="328" width="273" height="24" rx="12" fill="#2B2C3D" fill-opacity="0.5"/>
<rect x="100" y="330" width="269" height="20" rx="10" stroke="#2B2C3D" stroke-opacity="0.5" stroke-width="4"/>
<rect x="98" y="290" width="57" height="24" rx="12" fill="#191928"/>
<rect x="100" y="292" width="53" height="20" rx="10" stroke="#2B2C3D" stroke-opacity="0.5" stroke-width="4"/>
<rect x="166" y="290" width="151" height="24" rx="12" fill="#191928"/>
<rect x="168" y="292" width="147" height="20" rx="10" stroke="#2B2C3D" stroke-opacity="0.5" stroke-width="4"/>
</g>
<path d="M101 1H429C440.598 1 450 10.402 450 22V320C450 331.598 440.598 341 429 341H101C89.402 341 80 331.598 80 320V22C80 10.402 89.402 1 101 1Z" stroke="#2B2C3D" stroke-width="2"/>
<rect x="1" y="187" width="227" height="171" rx="21" fill="#191928"/>
<rect x="1" y="187" width="227" height="171" rx="21" stroke="#2B2C3D" stroke-width="2"/>
<path d="M34.1002 232L22.7002 220.6L25.5502 217.75L34.1002 226.3L52.4502 207.95L55.3002 210.8L34.1002 232Z" fill="#2B2C3D"/>
<path d="M75.0703 228.234C74.1328 228.234 73.3281 228.207 72.6562 228.152C71.9922 228.098 71.3828 228.008 70.8281 227.883L71.1094 225.633C71.9297 225.758 72.6523 225.852 73.2773 225.914C73.9102 225.977 74.5078 226.008 75.0703 226.008C76.3281 226.008 77.2383 225.887 77.8008 225.645C78.3711 225.395 78.6562 225 78.6562 224.461C78.6562 224.086 78.5547 223.809 78.3516 223.629C78.1562 223.441 77.8516 223.297 77.4375 223.195L74.5781 222.469C73.3516 222.156 72.4492 221.77 71.8711 221.309C71.3008 220.848 71.0156 220.148 71.0156 219.211C71.0156 217.852 71.5352 216.867 72.5742 216.258C73.6211 215.648 75.3047 215.344 77.625 215.344C78.2266 215.344 78.7852 215.363 79.3008 215.402C79.8242 215.434 80.3594 215.492 80.9062 215.578L80.6484 217.734C80.0156 217.672 79.457 217.629 78.9727 217.605C78.4883 217.582 78.0156 217.57 77.5547 217.57C76.1641 217.57 75.1562 217.691 74.5312 217.934C73.9062 218.168 73.5938 218.555 73.5938 219.094C73.5938 219.453 73.7227 219.715 73.9805 219.879C74.2383 220.035 74.6328 220.18 75.1641 220.312L77.4609 220.875C78.7656 221.188 79.7188 221.605 80.3203 222.129C80.9297 222.652 81.2344 223.414 81.2344 224.414C81.2344 225.75 80.7461 226.723 79.7695 227.332C78.793 227.934 77.2266 228.234 75.0703 228.234ZM89.4319 228V216.281H91.9163V228H89.4319ZM84.6975 228V225.961H89.6663V228H84.6975ZM91.6819 228V225.961H95.7366V228H91.6819ZM85.4006 217.617V215.578H91.9163V217.617H85.4006ZM90.592 213.609C90.1155 213.609 89.7053 213.441 89.3616 213.105C89.0256 212.762 88.8577 212.352 88.8577 211.875C88.8577 211.391 89.0256 210.98 89.3616 210.645C89.7053 210.309 90.1155 210.141 90.592 210.141C91.0764 210.141 91.4866 210.309 91.8225 210.645C92.1584 210.98 92.3264 211.391 92.3264 211.875C92.3264 212.352 92.1584 212.762 91.8225 213.105C91.4866 213.441 91.0764 213.609 90.592 213.609ZM98.7778 233.602L98.6606 231.328L102.645 231.211C103.903 231.172 104.817 230.824 105.387 230.168C105.958 229.512 106.247 228.547 106.254 227.273V218.203L106.489 215.578H108.739V226.898C108.739 229.109 108.235 230.742 107.227 231.797C106.219 232.852 104.614 233.414 102.411 233.484L98.7778 233.602ZM102.727 228.234C101.102 228.234 99.8677 227.699 99.0239 226.629C98.188 225.559 97.77 223.984 97.77 221.906C97.77 219.75 98.188 218.117 99.0239 217.008C99.8677 215.898 101.102 215.344 102.727 215.344C103.696 215.344 104.481 215.562 105.083 216C105.684 216.438 106.036 217.047 106.137 217.828H107.098L106.254 221.367C106.254 220.086 106 219.113 105.493 218.449C104.993 217.785 104.254 217.453 103.278 217.453C102.278 217.453 101.52 217.828 101.004 218.578C100.489 219.328 100.231 220.438 100.231 221.906C100.231 223.297 100.489 224.348 101.004 225.059C101.52 225.77 102.278 226.125 103.278 226.125C104.254 226.125 104.993 225.793 105.493 225.129C106 224.465 106.254 223.492 106.254 222.211L107.098 225.75H106.02C105.942 226.531 105.61 227.141 105.024 227.578C104.446 228.016 103.68 228.234 102.727 228.234ZM120.077 228V219.914C120.077 219.164 119.882 218.586 119.491 218.18C119.1 217.773 118.553 217.57 117.85 217.57C115.897 217.57 114.921 218.719 114.921 221.016L114.194 217.828H115.155C115.225 216.992 115.53 216.371 116.069 215.965C116.608 215.551 117.397 215.344 118.436 215.344C119.749 215.344 120.764 215.742 121.483 216.539C122.202 217.336 122.561 218.461 122.561 219.914V228H120.077ZM112.436 228V215.578H114.686L114.921 218.203V228H112.436ZM132.517 228.234C130.399 228.234 128.763 227.68 127.606 226.57C126.458 225.453 125.884 223.852 125.884 221.766C125.884 219.734 126.372 218.156 127.349 217.031C128.325 215.906 129.704 215.344 131.485 215.344C133.165 215.344 134.462 215.852 135.376 216.867C136.298 217.883 136.759 219.359 136.759 221.297C136.759 221.867 136.735 222.398 136.688 222.891H127.97V220.992H134.509C134.509 219.875 134.243 219.02 133.712 218.426C133.181 217.824 132.446 217.523 131.509 217.523C130.454 217.523 129.634 217.883 129.048 218.602C128.47 219.32 128.181 220.336 128.181 221.648C128.181 223.086 128.579 224.18 129.376 224.93C130.181 225.68 131.321 226.055 132.798 226.055C133.313 226.055 133.821 226.027 134.321 225.973C134.821 225.91 135.329 225.828 135.845 225.727L136.149 227.906C135.415 228.047 134.743 228.137 134.134 228.176C133.524 228.215 132.985 228.234 132.517 228.234ZM144.195 228.234C142.57 228.234 141.335 227.699 140.491 226.629C139.655 225.559 139.238 223.984 139.238 221.906C139.238 219.75 139.655 218.117 140.491 217.008C141.335 215.898 142.57 215.344 144.195 215.344C145.124 215.344 145.878 215.562 146.456 216C147.042 216.438 147.386 217.047 147.488 217.828H148.448L147.722 221.367C147.722 220.086 147.468 219.113 146.96 218.449C146.46 217.785 145.722 217.453 144.745 217.453C143.745 217.453 142.988 217.828 142.472 218.578C141.956 219.328 141.698 220.438 141.698 221.906C141.698 223.297 141.956 224.348 142.472 225.059C142.988 225.77 143.745 226.125 144.745 226.125C145.722 226.125 146.46 225.793 146.96 225.129C147.468 224.465 147.722 223.492 147.722 222.211L148.566 225.75H147.488C147.409 226.531 147.077 227.141 146.491 227.578C145.913 228.016 145.148 228.234 144.195 228.234ZM147.98 228.117L147.722 225.68V210.422H150.206V228L147.98 228.117Z" fill="#CED7F3" fill-opacity="0.5"/>
<path d="M34.1002 268L22.7002 256.6L25.5502 253.75L34.1002 262.3L52.4502 243.95L55.3002 246.8L34.1002 268Z" fill="#2B2C3D"/>
<path d="M79.2656 264V254.508C79.2656 253.648 78.9453 253.219 78.3047 253.219C77.4922 253.219 77.0859 253.781 77.0859 254.906L76.2422 253.125H77.2031C77.2422 252.641 77.4336 252.223 77.7773 251.871C78.1289 251.52 78.6328 251.344 79.2891 251.344C80.1484 251.344 80.7734 251.574 81.1641 252.035C81.5547 252.496 81.75 253.242 81.75 254.273V264H79.2656ZM70.3125 264V251.578H72.5156L72.7969 254.203V264H70.3125ZM74.9766 264V254.273C74.9766 253.57 74.6484 253.219 73.9922 253.219C73.1953 253.219 72.7969 253.781 72.7969 254.906L72.0703 253.125H72.8672C72.9609 251.938 73.6719 251.344 75 251.344C75.6484 251.344 76.1562 251.566 76.5234 252.012C76.8984 252.457 77.0859 253.133 77.0859 254.039V264H74.9766ZM88.635 264.234C87.3303 264.234 86.3186 263.848 85.5998 263.074C84.8889 262.293 84.5334 261.195 84.5334 259.781V251.578H87.0178V259.781C87.0178 260.492 87.2209 261.043 87.6272 261.434C88.0334 261.816 88.6038 262.008 89.3381 262.008C90.2444 262.008 90.928 261.723 91.3889 261.152C91.8498 260.574 92.0803 259.609 92.0803 258.258L92.7131 261.609H91.8928C91.6975 262.453 91.3147 263.102 90.7444 263.555C90.1741 264.008 89.4709 264.234 88.635 264.234ZM92.2913 264.117L92.0803 261.141V258.961H94.5647V261.75L96.2756 262.008V264L92.2913 264.117ZM92.0803 260.484V251.578H94.5647V259.781L92.0803 260.484ZM105.926 264.234C104.043 264.234 102.68 263.844 101.836 263.062C101 262.281 100.583 261.031 100.583 259.312V257.203H103.067V259.195C103.067 260.18 103.305 260.895 103.782 261.34C104.266 261.785 105.059 262.008 106.161 262.008C106.551 262.008 106.965 261.988 107.403 261.949C107.84 261.902 108.34 261.844 108.903 261.773L109.184 263.953C108.637 264.047 108.102 264.117 107.579 264.164C107.063 264.211 106.512 264.234 105.926 264.234ZM100.583 258.141V247.828H103.067V258.141H100.583ZM97.4653 253.617V251.578H108.715V253.617H97.4653ZM120.053 264.117L119.889 260.438L119.561 259.406V256.195C119.561 255.367 119.268 254.762 118.682 254.379C118.104 253.988 117.241 253.777 116.092 253.746L113.116 253.664L113.35 251.461L115.858 251.496C117.913 251.527 119.436 251.973 120.428 252.832C121.428 253.684 121.928 254.93 121.928 256.57V261.75L124.038 262.008V264L120.053 264.117ZM115.671 264.234C114.374 264.234 113.37 263.922 112.659 263.297C111.948 262.672 111.592 261.789 111.592 260.648C111.592 259.336 112.081 258.328 113.057 257.625C114.042 256.922 115.428 256.57 117.217 256.57C117.96 256.57 118.62 256.617 119.198 256.711C119.784 256.797 120.303 256.93 120.757 257.109L120.241 258.797C119.717 258.68 119.206 258.613 118.706 258.598C118.206 258.574 117.694 258.562 117.171 258.562C115.014 258.562 113.936 259.219 113.936 260.531C113.936 261.078 114.12 261.5 114.487 261.797C114.862 262.094 115.389 262.242 116.069 262.242C116.842 262.242 117.487 262.109 118.003 261.844C118.526 261.578 118.917 261.238 119.175 260.824C119.432 260.41 119.561 259.984 119.561 259.547V258.188L120.288 261.375H119.303L119.702 261C119.702 261.719 119.534 262.32 119.198 262.805C118.87 263.281 118.405 263.641 117.803 263.883C117.202 264.117 116.491 264.234 115.671 264.234ZM129.528 264.234C128.966 264.234 128.411 264.211 127.864 264.164C127.317 264.125 126.763 264.07 126.2 264L127.161 261.727C127.575 261.922 128.032 262.039 128.532 262.078C129.032 262.109 129.528 262.125 130.02 262.125C131.513 262.125 132.665 261.676 133.478 260.777C134.298 259.879 134.708 258.609 134.708 256.969C134.708 255.844 134.458 254.977 133.958 254.367C133.466 253.758 132.763 253.453 131.849 253.453C129.739 253.453 128.685 254.641 128.685 257.016L127.958 253.828H128.919C129.036 252.172 130.052 251.344 131.966 251.344C133.622 251.344 134.903 251.832 135.81 252.809C136.716 253.785 137.169 255.172 137.169 256.969C137.169 259.273 136.501 261.062 135.165 262.336C133.837 263.602 131.958 264.234 129.528 264.234ZM126.2 264V246.422H128.685V263.789L126.2 264ZM146.995 264.234C145.558 264.234 144.519 263.844 143.878 263.062C143.238 262.281 142.917 261.031 142.917 259.312V246.422H145.402V259.195C145.402 259.852 145.464 260.387 145.589 260.801C145.714 261.215 145.956 261.52 146.316 261.715C146.683 261.91 147.222 262.008 147.933 262.008C148.581 262.008 149.409 261.859 150.417 261.562L150.698 263.742C150.066 263.914 149.456 264.039 148.87 264.117C148.292 264.195 147.667 264.234 146.995 264.234ZM139.261 248.461V246.422H143.128V248.461H139.261ZM160.162 264.234C158.044 264.234 156.408 263.68 155.251 262.57C154.103 261.453 153.529 259.852 153.529 257.766C153.529 255.734 154.017 254.156 154.994 253.031C155.97 251.906 157.349 251.344 159.13 251.344C160.81 251.344 162.107 251.852 163.021 252.867C163.943 253.883 164.404 255.359 164.404 257.297C164.404 257.867 164.38 258.398 164.333 258.891H155.615V256.992H162.154C162.154 255.875 161.888 255.02 161.357 254.426C160.826 253.824 160.091 253.523 159.154 253.523C158.099 253.523 157.279 253.883 156.693 254.602C156.115 255.32 155.826 256.336 155.826 257.648C155.826 259.086 156.224 260.18 157.021 260.93C157.826 261.68 158.966 262.055 160.443 262.055C160.958 262.055 161.466 262.027 161.966 261.973C162.466 261.91 162.974 261.828 163.49 261.727L163.794 263.906C163.06 264.047 162.388 264.137 161.779 264.176C161.169 264.215 160.63 264.234 160.162 264.234Z" fill="#CED7F3" fill-opacity="0.5"/>
<path d="M34.1002 304L22.7002 292.6L25.5502 289.75L34.1002 298.3L52.4502 279.95L55.3002 282.8L34.1002 304Z" fill="#2B2C3D"/>
<path d="M75.082 300.234C73.457 300.234 72.2227 299.699 71.3789 298.629C70.543 297.559 70.125 295.984 70.125 293.906C70.125 291.75 70.543 290.117 71.3789 289.008C72.2227 287.898 73.457 287.344 75.082 287.344C76.0117 287.344 76.7656 287.562 77.3438 288C77.9297 288.438 78.2734 289.047 78.375 289.828H79.3359L78.6094 293.367C78.6094 292.086 78.3555 291.113 77.8477 290.449C77.3477 289.785 76.6094 289.453 75.6328 289.453C74.6328 289.453 73.875 289.828 73.3594 290.578C72.8438 291.328 72.5859 292.438 72.5859 293.906C72.5859 295.297 72.8438 296.348 73.3594 297.059C73.875 297.77 74.6328 298.125 75.6328 298.125C76.6094 298.125 77.3477 297.793 77.8477 297.129C78.3555 296.465 78.6094 295.492 78.6094 294.211L79.4531 297.75H78.375C78.2969 298.531 77.9648 299.141 77.3789 299.578C76.8008 300.016 76.0352 300.234 75.082 300.234ZM78.8672 300.117L78.6094 297.68V282.422H81.0938V300L78.8672 300.117ZM91.0491 300.234C88.9319 300.234 87.2952 299.68 86.1389 298.57C84.9905 297.453 84.4163 295.852 84.4163 293.766C84.4163 291.734 84.9045 290.156 85.8811 289.031C86.8577 287.906 88.2366 287.344 90.0178 287.344C91.6975 287.344 92.9944 287.852 93.9084 288.867C94.8303 289.883 95.2913 291.359 95.2913 293.297C95.2913 293.867 95.2678 294.398 95.2209 294.891H86.5022V292.992H93.0413C93.0413 291.875 92.7756 291.02 92.2444 290.426C91.7131 289.824 90.9788 289.523 90.0413 289.523C88.9866 289.523 88.1663 289.883 87.5803 290.602C87.0022 291.32 86.7131 292.336 86.7131 293.648C86.7131 295.086 87.1116 296.18 87.9084 296.93C88.7131 297.68 89.8538 298.055 91.3303 298.055C91.8459 298.055 92.3538 298.027 92.8538 297.973C93.3538 297.91 93.8616 297.828 94.3772 297.727L94.6819 299.906C93.9475 300.047 93.2756 300.137 92.6663 300.176C92.0569 300.215 91.5178 300.234 91.0491 300.234ZM102.833 294.656L102.106 290.766H103.067C103.208 288.484 104.348 287.344 106.489 287.344C107.77 287.344 108.7 287.711 109.278 288.445C109.856 289.18 110.145 290.367 110.145 292.008H107.684C107.684 291.102 107.547 290.449 107.274 290.051C107.008 289.652 106.575 289.453 105.973 289.453C104.918 289.453 104.129 289.906 103.606 290.812C103.09 291.711 102.833 292.992 102.833 294.656ZM97.5825 300V297.961H105.879V300H97.5825ZM100.348 300V287.578H102.364L102.833 291.141V300H100.348ZM98.0513 289.617V287.578H102.2L102.434 289.617H98.0513ZM117.077 300V288.281H119.561V300H117.077ZM112.342 300V297.961H117.311V300H112.342ZM119.327 300V297.961H123.382V300H119.327ZM113.046 289.617V287.578H119.561V289.617H113.046ZM118.237 285.609C117.76 285.609 117.35 285.441 117.007 285.105C116.671 284.762 116.503 284.352 116.503 283.875C116.503 283.391 116.671 282.98 117.007 282.645C117.35 282.309 117.76 282.141 118.237 282.141C118.721 282.141 119.132 282.309 119.467 282.645C119.803 282.98 119.971 283.391 119.971 283.875C119.971 284.352 119.803 284.762 119.467 285.105C119.132 285.441 118.721 285.609 118.237 285.609ZM129.669 300L125.228 287.578H127.876L131.216 297.891H131.427L134.767 287.578H137.415L132.974 300H129.669ZM146.339 300.234C144.222 300.234 142.585 299.68 141.429 298.57C140.28 297.453 139.706 295.852 139.706 293.766C139.706 291.734 140.195 290.156 141.171 289.031C142.148 287.906 143.527 287.344 145.308 287.344C146.988 287.344 148.284 287.852 149.198 288.867C150.12 289.883 150.581 291.359 150.581 293.297C150.581 293.867 150.558 294.398 150.511 294.891H141.792V292.992H148.331C148.331 291.875 148.066 291.02 147.534 290.426C147.003 289.824 146.269 289.523 145.331 289.523C144.277 289.523 143.456 289.883 142.87 290.602C142.292 291.32 142.003 292.336 142.003 293.648C142.003 295.086 142.402 296.18 143.198 296.93C144.003 297.68 145.144 298.055 146.62 298.055C147.136 298.055 147.644 298.027 148.144 297.973C148.644 297.91 149.152 297.828 149.667 297.727L149.972 299.906C149.238 300.047 148.566 300.137 147.956 300.176C147.347 300.215 146.808 300.234 146.339 300.234ZM158.017 300.234C156.392 300.234 155.158 299.699 154.314 298.629C153.478 297.559 153.06 295.984 153.06 293.906C153.06 291.75 153.478 290.117 154.314 289.008C155.158 287.898 156.392 287.344 158.017 287.344C158.947 287.344 159.701 287.562 160.279 288C160.865 288.438 161.208 289.047 161.31 289.828H162.271L161.544 293.367C161.544 292.086 161.29 291.113 160.783 290.449C160.283 289.785 159.544 289.453 158.568 289.453C157.568 289.453 156.81 289.828 156.294 290.578C155.779 291.328 155.521 292.438 155.521 293.906C155.521 295.297 155.779 296.348 156.294 297.059C156.81 297.77 157.568 298.125 158.568 298.125C159.544 298.125 160.283 297.793 160.783 297.129C161.29 296.465 161.544 295.492 161.544 294.211L162.388 297.75H161.31C161.232 298.531 160.9 299.141 160.314 299.578C159.736 300.016 158.97 300.234 158.017 300.234ZM161.802 300.117L161.544 297.68V282.422H164.029V300L161.802 300.117Z" fill="#CED7F3" fill-opacity="0.5"/>
<path d="M34.1002 340L22.7002 328.6L25.5502 325.75L34.1002 334.3L52.4502 315.95L55.3002 318.8L34.1002 340Z" fill="#2B2C3D"/>
<path d="M76.0312 336.234C74.3125 336.234 72.9766 335.672 72.0234 334.547C71.0703 333.422 70.5938 331.836 70.5938 329.789C70.5938 327.734 71.0703 326.148 72.0234 325.031C72.9766 323.906 74.3125 323.344 76.0312 323.344C77.7578 323.344 79.0938 323.906 80.0391 325.031C80.9922 326.148 81.4688 327.734 81.4688 329.789C81.4688 331.836 80.9922 333.422 80.0391 334.547C79.0938 335.672 77.7578 336.234 76.0312 336.234ZM76.0312 334.008C76.9453 334.008 77.6484 333.641 78.1406 332.906C78.6406 332.172 78.8906 331.133 78.8906 329.789C78.8906 328.438 78.6406 327.398 78.1406 326.672C77.6484 325.938 76.9453 325.57 76.0312 325.57C75.1172 325.57 74.4102 325.938 73.9102 326.672C73.418 327.398 73.1719 328.438 73.1719 329.789C73.1719 331.133 73.418 332.172 73.9102 332.906C74.4102 333.641 75.1172 334.008 76.0312 334.008ZM91.26 336L89.8069 326.133H89.6194L88.5998 323.578H90.8733L92.3381 334.125H92.5491L93.6038 323.578H96.0647L94.3069 336H91.26ZM85.0491 336L83.6428 323.578H85.9866L86.9241 334.125H87.135L88.5998 323.578H90.8733L89.8303 326.133H89.6663L88.2131 336H85.0491ZM106.254 336V327.914C106.254 327.164 106.059 326.586 105.668 326.18C105.278 325.773 104.731 325.57 104.028 325.57C102.075 325.57 101.098 326.719 101.098 329.016L100.372 325.828H101.333C101.403 324.992 101.708 324.371 102.247 323.965C102.786 323.551 103.575 323.344 104.614 323.344C105.926 323.344 106.942 323.742 107.661 324.539C108.379 325.336 108.739 326.461 108.739 327.914V336H106.254ZM98.6138 336V323.578H100.864L101.098 326.203V336H98.6138ZM118.694 336.234C116.577 336.234 114.94 335.68 113.784 334.57C112.635 333.453 112.061 331.852 112.061 329.766C112.061 327.734 112.55 326.156 113.526 325.031C114.503 323.906 115.882 323.344 117.663 323.344C119.342 323.344 120.639 323.852 121.553 324.867C122.475 325.883 122.936 327.359 122.936 329.297C122.936 329.867 122.913 330.398 122.866 330.891H114.147V328.992H120.686C120.686 327.875 120.421 327.02 119.889 326.426C119.358 325.824 118.624 325.523 117.686 325.523C116.632 325.523 115.811 325.883 115.225 326.602C114.647 327.32 114.358 328.336 114.358 329.648C114.358 331.086 114.757 332.18 115.553 332.93C116.358 333.68 117.499 334.055 118.975 334.055C119.491 334.055 119.999 334.027 120.499 333.973C120.999 333.91 121.507 333.828 122.022 333.727L122.327 335.906C121.592 336.047 120.921 336.137 120.311 336.176C119.702 336.215 119.163 336.234 118.694 336.234ZM130.372 336.234C128.747 336.234 127.513 335.699 126.669 334.629C125.833 333.559 125.415 331.984 125.415 329.906C125.415 327.75 125.833 326.117 126.669 325.008C127.513 323.898 128.747 323.344 130.372 323.344C131.302 323.344 132.056 323.562 132.634 324C133.22 324.438 133.563 325.047 133.665 325.828H134.626L133.899 329.367C133.899 328.086 133.645 327.113 133.138 326.449C132.638 325.785 131.899 325.453 130.923 325.453C129.923 325.453 129.165 325.828 128.649 326.578C128.134 327.328 127.876 328.438 127.876 329.906C127.876 331.297 128.134 332.348 128.649 333.059C129.165 333.77 129.923 334.125 130.923 334.125C131.899 334.125 132.638 333.793 133.138 333.129C133.645 332.465 133.899 331.492 133.899 330.211L134.743 333.75H133.665C133.587 334.531 133.255 335.141 132.669 335.578C132.091 336.016 131.325 336.234 130.372 336.234ZM134.157 336.117L133.899 333.68V318.422H136.384V336L134.157 336.117Z" fill="#CED7F3" fill-opacity="0.5"/>
<path d="M221 229.5C213.76 227.677 207.784 223.523 203.07 217.039C198.357 210.555 196 203.354 196 195.438V176.375L221 167L246 176.375V195.438C246 203.354 243.643 210.555 238.93 217.039C234.216 223.523 228.24 227.677 221 229.5Z" fill="#191928"/>
<path d="M245 177.068V195.438C245 203.14 242.712 210.135 238.121 216.451C233.588 222.687 227.885 226.673 221 228.466C214.115 226.673 208.412 222.687 203.879 216.451C199.288 210.135 197 203.14 197 195.438V177.068L221 168.068L245 177.068Z" stroke="#2B2C3D" stroke-width="2"/>
<defs>
<clipPath id="clip0_64_212">
<path d="M79 22C79 9.84973 88.8497 0 101 0H429C441.15 0 451 9.84974 451 22V320C451 332.15 441.15 342 429 342H101C88.8497 342 79 332.15 79 320V22Z" fill="white"/>
</clipPath>
</defs>
</svg>
