<svg width="331" height="331" viewBox="0 0 331 331" fill="none" xmlns="http://www.w3.org/2000/svg">
<rect x="22" y="22.125" width="288" height="286.75" rx="143.375" fill="#F1F1F7"/>
<rect x="22" y="22.125" width="288" height="286.75" rx="143.375" stroke="#DCDDEB" stroke-width="2"/>
<rect x="51" y="51" width="230" height="229" rx="114.5" fill="#F1F1F7"/>
<rect x="51" y="51" width="230" height="229" rx="114.5" stroke="#DCDDEB" stroke-width="2"/>
<rect x="1" y="1" width="98" height="98" rx="21" fill="#F1F1F7"/>
<rect x="1" y="1" width="98" height="98" rx="21" stroke="#DCDDEB" stroke-width="2"/>
<path d="M49.9998 55.3335L20.6665 39.3335L49.9998 23.3335L79.3332 39.3335L49.9998 55.3335ZM49.9998 66.0002L22.1998 50.8668L27.7998 47.8002L49.9998 59.9335L72.1998 47.8002L77.7998 50.8668L49.9998 66.0002ZM49.9998 76.6668L22.1998 61.5335L27.7998 58.4668L49.9998 70.6002L72.1998 58.4668L77.7998 61.5335L49.9998 76.6668ZM49.9998 49.2668L68.1998 39.3335L49.9998 29.4002L31.7998 39.3335L49.9998 49.2668Z" fill="#4B5169" fill-opacity="0.5"/>
<rect x="101" y="101" width="129" height="129" rx="21" fill="#F1F1F7"/>
<rect x="101" y="101" width="129" height="129" rx="21" stroke="#DCDDEB" stroke-width="2"/>
<path d="M172.963 140.519C172.963 136.121 169.398 132.556 165 132.556C160.602 132.556 157.037 136.121 157.037 140.519C157.037 144.916 160.602 148.481 165 148.481C169.398 148.481 172.963 144.916 172.963 140.519ZM182.519 140.519C182.519 148.537 177.131 155.297 169.778 157.377V199.102C185.985 196.784 198.444 182.849 198.444 166H208C208 189.748 188.748 209 165 209C141.252 209 122 189.748 122 166H131.556C131.556 182.849 144.015 196.784 160.222 199.102V157.377C152.869 155.297 147.481 148.537 147.481 140.519C147.481 130.843 155.325 123 165 123C174.675 123 182.519 130.843 182.519 140.519Z" fill="#4B5169" fill-opacity="0.5"/>
<rect x="232" y="1" width="98" height="98" rx="21" fill="#F1F1F7"/>
<rect x="232" y="1" width="98" height="98" rx="21" stroke="#DCDDEB" stroke-width="2"/>
<path opacity="0.8" d="M307.439 63.8432L298.579 73.3532C298.384 73.5575 298.15 73.7204 297.89 73.8321C297.631 73.9438 297.352 74.002 297.069 74.0032H255.069C254.863 74.0175 254.657 73.9675 254.48 73.8601C254.304 73.7526 254.165 73.5931 254.083 73.4034C254 73.2136 253.979 73.0031 254.021 72.8007C254.064 72.5983 254.168 72.414 254.319 72.2732L263.169 62.7732C263.362 62.5657 263.596 62.4 263.856 62.2865C264.115 62.1729 264.396 62.114 264.679 62.1132H306.679C306.886 62.0966 307.093 62.1449 307.272 62.2515C307.45 62.358 307.591 62.5175 307.675 62.7078C307.758 62.8981 307.78 63.1096 307.738 63.3131C307.696 63.5166 307.591 63.7019 307.439 63.8432ZM298.579 44.7132C298.386 44.507 298.152 44.3429 297.892 44.231C297.632 44.1192 297.352 44.0621 297.069 44.0632H255.069C254.863 44.0489 254.657 44.0989 254.48 44.2063C254.304 44.3138 254.165 44.4733 254.083 44.6631C254 44.8528 253.979 45.0633 254.021 45.2657C254.064 45.4681 254.168 45.6524 254.319 45.7932L263.169 55.2932C263.363 55.4994 263.597 55.6635 263.856 55.7754C264.116 55.8872 264.396 55.9443 264.679 55.9432H306.679C306.886 55.9598 307.093 55.9115 307.272 55.8049C307.45 55.6984 307.591 55.5389 307.675 55.3486C307.758 55.1583 307.78 54.9468 307.738 54.7433C307.696 54.5398 307.591 54.3545 307.439 54.2132L298.579 44.7132ZM255.069 37.8932H297.069C297.353 37.8924 297.633 37.8335 297.893 37.7199C298.152 37.6064 298.386 37.4407 298.579 37.2332L307.439 27.7332C307.591 27.5919 307.696 27.4066 307.738 27.2031C307.78 26.9996 307.758 26.7881 307.675 26.5978C307.591 26.4075 307.45 26.248 307.272 26.1415C307.093 26.0349 306.886 25.9866 306.679 26.0032H264.679C264.397 26.0044 264.117 26.0626 263.858 26.1743C263.598 26.286 263.364 26.4489 263.169 26.6532L254.319 36.1632C254.168 36.304 254.064 36.4883 254.021 36.6907C253.979 36.8931 254 37.1036 254.083 37.2934C254.165 37.4831 254.304 37.6426 254.48 37.7501C254.657 37.8575 254.863 37.9075 255.069 37.8932Z" fill="url(#paint0_linear_47_1184)"/>
<rect x="1" y="232" width="98" height="98" rx="21" fill="#F1F1F7"/>
<rect x="1" y="232" width="98" height="98" rx="21" stroke="#DCDDEB" stroke-width="2"/>
<path d="M50 305C43.2889 305 37.6111 303.967 32.9667 301.9C28.3222 299.833 26 297.311 26 294.333V267.667C26 264.733 28.3444 262.222 33.0333 260.133C37.7222 258.044 43.3778 257 50 257C56.6222 257 62.2778 258.044 66.9667 260.133C71.6556 262.222 74 264.733 74 267.667V294.333C74 297.311 71.6778 299.833 67.0333 301.9C62.3889 303.967 56.7111 305 50 305ZM50 273.067C53.9556 273.067 57.9333 272.5 61.9333 271.367C65.9333 270.233 68.1778 269.022 68.6667 267.733C68.1778 266.444 65.9444 265.222 61.9667 264.067C57.9889 262.911 54 262.333 50 262.333C45.9556 262.333 41.9889 262.9 38.1 264.033C34.2111 265.167 31.9556 266.4 31.3333 267.733C31.9556 269.067 34.2111 270.289 38.1 271.4C41.9889 272.511 45.9556 273.067 50 273.067ZM50 286.333C51.8667 286.333 53.6667 286.244 55.4 286.067C57.1333 285.889 58.7889 285.633 60.3667 285.3C61.9444 284.967 63.4333 284.556 64.8333 284.067C66.2333 283.578 67.5111 283.022 68.6667 282.4V274.4C67.5111 275.022 66.2333 275.578 64.8333 276.067C63.4333 276.556 61.9444 276.967 60.3667 277.3C58.7889 277.633 57.1333 277.889 55.4 278.067C53.6667 278.244 51.8667 278.333 50 278.333C48.1333 278.333 46.3111 278.244 44.5333 278.067C42.7556 277.889 41.0778 277.633 39.5 277.3C37.9222 276.967 36.4444 276.556 35.0667 276.067C33.6889 275.578 32.4444 275.022 31.3333 274.4V282.4C32.4444 283.022 33.6889 283.578 35.0667 284.067C36.4444 284.556 37.9222 284.967 39.5 285.3C41.0778 285.633 42.7556 285.889 44.5333 286.067C46.3111 286.244 48.1333 286.333 50 286.333ZM50 299.667C52.0444 299.667 54.1222 299.511 56.2333 299.2C58.3444 298.889 60.2889 298.478 62.0667 297.967C63.8444 297.456 65.3333 296.878 66.5333 296.233C67.7333 295.589 68.4444 294.933 68.6667 294.267V287.733C67.5111 288.356 66.2333 288.911 64.8333 289.4C63.4333 289.889 61.9444 290.3 60.3667 290.633C58.7889 290.967 57.1333 291.222 55.4 291.4C53.6667 291.578 51.8667 291.667 50 291.667C48.1333 291.667 46.3111 291.578 44.5333 291.4C42.7556 291.222 41.0778 290.967 39.5 290.633C37.9222 290.3 36.4444 289.889 35.0667 289.4C33.6889 288.911 32.4444 288.356 31.3333 287.733V294.333C31.5556 295 32.2556 295.644 33.4333 296.267C34.6111 296.889 36.0889 297.456 37.8667 297.967C39.6444 298.478 41.6 298.889 43.7333 299.2C45.8667 299.511 47.9556 299.667 50 299.667Z" fill="#4B5169" fill-opacity="0.5"/>
<rect x="232" y="232" width="98" height="98" rx="21" fill="#F1F1F7"/>
<rect x="232" y="232" width="98" height="98" rx="21" stroke="#DCDDEB" stroke-width="2"/>
<path d="M251.667 302.333V294.867C251.667 293.355 252.055 291.967 252.833 290.7C253.611 289.433 254.644 288.467 255.933 287.8C258.689 286.422 261.489 285.389 264.333 284.7C267.178 284.011 270.067 283.667 273 283.667C275.933 283.667 278.822 284.011 281.667 284.7C284.511 285.389 287.311 286.422 290.067 287.8C291.355 288.467 292.389 289.433 293.167 290.7C293.944 291.967 294.333 293.355 294.333 294.867V302.333H251.667ZM299.667 302.333V294.333C299.667 292.378 299.122 290.5 298.033 288.7C296.944 286.9 295.4 285.355 293.4 284.067C295.667 284.333 297.8 284.789 299.8 285.433C301.8 286.078 303.667 286.867 305.4 287.8C307 288.689 308.222 289.678 309.067 290.767C309.911 291.855 310.333 293.044 310.333 294.333V302.333H299.667ZM265.467 277.867C263.378 275.778 262.333 273.267 262.333 270.333C262.333 267.4 263.378 264.889 265.467 262.8C267.555 260.711 270.067 259.667 273 259.667C275.933 259.667 278.444 260.711 280.533 262.8C282.622 264.889 283.667 267.4 283.667 270.333C283.667 273.267 282.622 275.778 280.533 277.867C278.444 279.955 275.933 281 273 281C270.067 281 267.555 279.955 265.467 277.867ZM296.533 277.867C294.444 279.955 291.933 281 289 281C288.511 281 287.889 280.944 287.133 280.833C286.378 280.722 285.755 280.6 285.267 280.467C286.467 279.044 287.389 277.467 288.033 275.733C288.678 274 289 272.2 289 270.333C289 268.467 288.678 266.667 288.033 264.933C287.389 263.2 286.467 261.622 285.267 260.2C285.889 259.978 286.511 259.833 287.133 259.767C287.755 259.7 288.378 259.667 289 259.667C291.933 259.667 294.444 260.711 296.533 262.8C298.622 264.889 299.667 267.4 299.667 270.333C299.667 273.267 298.622 275.778 296.533 277.867ZM257 297H289V294.867C289 294.378 288.878 293.933 288.633 293.533C288.389 293.133 288.067 292.822 287.667 292.6C285.267 291.4 282.844 290.5 280.4 289.9C277.955 289.3 275.489 289 273 289C270.511 289 268.044 289.3 265.6 289.9C263.155 290.5 260.733 291.4 258.333 292.6C257.933 292.822 257.611 293.133 257.367 293.533C257.122 293.933 257 294.378 257 294.867V297ZM276.767 274.1C277.811 273.055 278.333 271.8 278.333 270.333C278.333 268.867 277.811 267.611 276.767 266.567C275.722 265.522 274.467 265 273 265C271.533 265 270.278 265.522 269.233 266.567C268.189 267.611 267.667 268.867 267.667 270.333C267.667 271.8 268.189 273.055 269.233 274.1C270.278 275.144 271.533 275.667 273 275.667C274.467 275.667 275.722 275.144 276.767 274.1Z" fill="#4B5169" fill-opacity="0.5"/>
<defs>
<linearGradient id="paint0_linear_47_1184" x1="258.569" y1="75.1432" x2="302.619" y2="25.4932" gradientUnits="userSpaceOnUse">
<stop offset="0.08" stop-color="#4B5169"/>
<stop offset="0.97" stop-color="#A0AAD3"/>
</linearGradient>
</defs>
</svg>
