<svg width="374" height="203" viewBox="0 0 374 203" fill="none" xmlns="http://www.w3.org/2000/svg">
<rect x="138.778" y="55.7794" width="96.6654" height="96.6654" rx="15.7306" fill="#F1F1F7"/>
<rect x="138.778" y="55.7794" width="96.6654" height="96.6654" rx="15.7306" stroke="#DCDDEB" stroke-width="1.49815"/>
<path d="M192.684 85.3815C192.684 82.0872 190.013 79.4166 186.719 79.4166C183.424 79.4166 180.754 82.0872 180.754 85.3815C180.754 88.6758 183.424 91.3464 186.719 91.3464C190.013 91.3464 192.684 88.6758 192.684 85.3815ZM199.841 85.3815C199.841 91.3882 195.805 96.4518 190.298 98.0097V129.265C202.438 127.529 211.771 117.09 211.771 104.469H218.929C218.929 122.258 204.508 136.679 186.719 136.679C168.929 136.679 154.508 122.258 154.508 104.469H161.666C161.666 117.09 170.999 127.529 183.14 129.265V98.0097C177.632 96.4518 173.596 91.3882 173.596 85.3815C173.596 78.134 179.471 72.2588 186.719 72.2588C193.966 72.2588 199.841 78.134 199.841 85.3815Z" fill="#9EA1B0"/>
<rect x="299.815" y="128.815" width="73.4359" height="73.4359" rx="15.7306" fill="#F1F1F7"/>
<rect x="299.815" y="128.815" width="73.4359" height="73.4359" rx="15.7306" stroke="#DCDDEB" stroke-width="1.49815"/>
<path d="M314.547 181.5V175.907C314.547 174.775 314.838 173.735 315.421 172.786C316.003 171.837 316.777 171.113 317.743 170.614C319.807 169.582 321.904 168.807 324.035 168.291C326.166 167.775 328.33 167.517 330.527 167.517C332.724 167.517 334.888 167.775 337.019 168.291C339.15 168.807 341.247 169.582 343.311 170.614C344.277 171.113 345.051 171.837 345.634 172.786C346.216 173.735 346.508 174.775 346.508 175.907V181.5H314.547ZM350.503 181.5V175.508C350.503 174.043 350.095 172.636 349.279 171.288C348.463 169.939 347.307 168.783 345.808 167.817C347.506 168.017 349.104 168.358 350.602 168.841C352.101 169.324 353.499 169.914 354.797 170.614C355.996 171.279 356.911 172.02 357.544 172.836C358.176 173.652 358.493 174.542 358.493 175.508V181.5H350.503ZM324.884 163.173C323.319 161.608 322.537 159.727 322.537 157.53C322.537 155.332 323.319 153.451 324.884 151.887C326.449 150.322 328.33 149.54 330.527 149.54C332.724 149.54 334.606 150.322 336.17 151.887C337.735 153.451 338.517 155.332 338.517 157.53C338.517 159.727 337.735 161.608 336.17 163.173C334.606 164.738 332.724 165.52 330.527 165.52C328.33 165.52 326.449 164.738 324.884 163.173ZM348.155 163.173C346.591 164.738 344.71 165.52 342.512 165.52C342.146 165.52 341.68 165.478 341.114 165.395C340.548 165.312 340.082 165.22 339.716 165.12C340.615 164.055 341.306 162.873 341.788 161.575C342.271 160.276 342.512 158.928 342.512 157.53C342.512 156.131 342.271 154.783 341.788 153.485C341.306 152.186 340.615 151.004 339.716 149.939C340.182 149.773 340.648 149.664 341.114 149.614C341.58 149.565 342.046 149.54 342.512 149.54C344.71 149.54 346.591 150.322 348.155 151.887C349.72 153.451 350.503 155.332 350.503 157.53C350.503 159.727 349.72 161.608 348.155 163.173ZM318.542 177.505H342.512V175.907C342.512 175.541 342.421 175.208 342.238 174.908C342.055 174.609 341.813 174.376 341.514 174.209C339.716 173.31 337.901 172.636 336.07 172.187C334.239 171.737 332.392 171.512 330.527 171.512C328.663 171.512 326.815 171.737 324.984 172.187C323.153 172.636 321.339 173.31 319.541 174.209C319.241 174.376 319 174.609 318.817 174.908C318.634 175.208 318.542 175.541 318.542 175.907V177.505ZM333.349 160.351C334.131 159.569 334.522 158.628 334.522 157.53C334.522 156.431 334.131 155.491 333.349 154.708C332.566 153.926 331.626 153.535 330.527 153.535C329.429 153.535 328.488 153.926 327.706 154.708C326.923 155.491 326.532 156.431 326.532 157.53C326.532 158.628 326.923 159.569 327.706 160.351C328.488 161.134 329.429 161.525 330.527 161.525C331.626 161.525 332.566 161.134 333.349 160.351Z" fill="#9EA1B0"/>
<rect x="0.749077" y="128.807" width="73.4359" height="73.4359" rx="15.7306" fill="#F1F1F7"/>
<rect x="0.749077" y="128.807" width="73.4359" height="73.4359" rx="15.7306" stroke="#DCDDEB" stroke-width="1.49815"/>
<path d="M37.4534 183.489C32.4263 183.489 28.1732 182.715 24.6942 181.167C21.2151 179.619 19.4756 177.73 19.4756 175.499V155.524C19.4756 153.327 21.2318 151.446 24.7441 149.881C28.2564 148.316 32.4929 147.534 37.4534 147.534C42.414 147.534 46.6505 148.316 50.1628 149.881C53.6751 151.446 55.4313 153.327 55.4313 155.524V175.499C55.4313 177.73 53.6918 179.619 50.2127 181.167C46.7337 182.715 42.4806 183.489 37.4534 183.489ZM37.4534 159.569C40.4165 159.569 43.3961 159.144 46.3924 158.295C49.3887 157.446 51.07 156.539 51.4362 155.574C51.07 154.608 49.3971 153.693 46.4174 152.827C43.4377 151.962 40.4498 151.529 37.4534 151.529C34.4238 151.529 31.4525 151.953 28.5394 152.802C25.6263 153.651 23.9368 154.575 23.4707 155.574C23.9368 156.573 25.6263 157.488 28.5394 158.32C31.4525 159.153 34.4238 159.569 37.4534 159.569ZM37.4534 169.507C38.8517 169.507 40.2001 169.44 41.4985 169.307C42.7969 169.174 44.037 168.982 45.2189 168.733C46.4008 168.483 47.5161 168.175 48.5648 167.809C49.6135 167.443 50.5706 167.026 51.4362 166.56V160.568C50.5706 161.034 49.6135 161.45 48.5648 161.816C47.5161 162.182 46.4008 162.49 45.2189 162.74C44.037 162.99 42.7969 163.181 41.4985 163.314C40.2001 163.447 38.8517 163.514 37.4534 163.514C36.0552 163.514 34.6902 163.447 33.3585 163.314C32.0268 163.181 30.77 162.99 29.5881 162.74C28.4063 162.49 27.2993 162.182 26.2672 161.816C25.2352 161.45 24.303 161.034 23.4707 160.568V166.56C24.303 167.026 25.2352 167.443 26.2672 167.809C27.2993 168.175 28.4063 168.483 29.5881 168.733C30.77 168.982 32.0268 169.174 33.3585 169.307C34.6902 169.44 36.0552 169.507 37.4534 169.507ZM37.4534 179.494C38.9849 179.494 40.5413 179.378 42.1227 179.145C43.7041 178.912 45.1606 178.604 46.4923 178.221C47.824 177.838 48.9393 177.405 49.8382 176.922C50.7371 176.44 51.2698 175.949 51.4362 175.449V170.555C50.5706 171.021 49.6135 171.438 48.5648 171.804C47.5161 172.17 46.4008 172.478 45.2189 172.728C44.037 172.977 42.7969 173.169 41.4985 173.302C40.2001 173.435 38.8517 173.502 37.4534 173.502C36.0552 173.502 34.6902 173.435 33.3585 173.302C32.0268 173.169 30.77 172.977 29.5881 172.728C28.4063 172.478 27.2993 172.17 26.2672 171.804C25.2352 171.438 24.303 171.021 23.4707 170.555V175.499C23.6371 175.999 24.1615 176.481 25.0437 176.947C25.926 177.414 27.0329 177.838 28.3646 178.221C29.6963 178.604 31.1612 178.912 32.7592 179.145C34.3573 179.378 35.922 179.494 37.4534 179.494Z" fill="#9EA1B0"/>
<rect x="299.815" y="0.757378" width="73.4359" height="73.4359" rx="15.7306" fill="#F1F1F7"/>
<rect x="299.815" y="0.757378" width="73.4359" height="73.4359" rx="15.7306" stroke="#DCDDEB" stroke-width="1.49815"/>
<path opacity="0.7" d="M356.345 47.8355L349.706 54.9617C349.56 55.1148 349.384 55.2369 349.19 55.3205C348.995 55.4042 348.786 55.4478 348.574 55.4488H317.102C316.947 55.4595 316.793 55.422 316.661 55.3415C316.528 55.261 316.424 55.1414 316.363 54.9993C316.301 54.8571 316.285 54.6993 316.317 54.5477C316.348 54.396 316.426 54.2579 316.54 54.1524L323.172 47.0337C323.316 46.8781 323.491 46.754 323.686 46.6689C323.881 46.5839 324.091 46.5397 324.303 46.5391H355.775C355.931 46.5266 356.086 46.5629 356.22 46.6427C356.353 46.7226 356.459 46.8421 356.521 46.9847C356.584 47.1272 356.601 47.2858 356.569 47.4383C356.537 47.5907 356.459 47.7296 356.345 47.8355ZM349.706 33.5006C349.561 33.3461 349.385 33.2231 349.191 33.1393C348.996 33.0555 348.786 33.0127 348.574 33.0135H317.102C316.947 33.0028 316.793 33.0403 316.661 33.1208C316.528 33.2013 316.424 33.3208 316.363 33.463C316.301 33.6052 316.285 33.7629 316.317 33.9146C316.348 34.0663 316.426 34.2044 316.54 34.3099L323.172 41.4286C323.317 41.5831 323.492 41.7061 323.687 41.7899C323.881 41.8737 324.091 41.9165 324.303 41.9157H355.775C355.931 41.9281 356.086 41.8919 356.22 41.8121C356.353 41.7322 356.459 41.6127 356.521 41.4701C356.584 41.3275 356.601 41.169 356.569 41.0165C356.537 40.864 356.459 40.7252 356.345 40.6193L349.706 33.5006ZM317.102 28.3901H348.574C348.787 28.3895 348.997 28.3453 349.191 28.2603C349.386 28.1752 349.561 28.051 349.706 27.8955L356.345 20.7768C356.459 20.6709 356.537 20.5321 356.569 20.3796C356.601 20.2271 356.584 20.0686 356.521 19.926C356.459 19.7834 356.353 19.6639 356.22 19.584C356.086 19.5042 355.931 19.468 355.775 19.4804H324.303C324.091 19.4813 323.882 19.525 323.688 19.6086C323.493 19.6923 323.318 19.8144 323.172 19.9675L316.54 27.0937C316.426 27.1992 316.348 27.3373 316.317 27.489C316.285 27.6406 316.301 27.7984 316.363 27.9406C316.424 28.0828 316.528 28.2023 316.661 28.2828C316.793 28.3633 316.947 28.4008 317.102 28.3901Z" fill="url(#paint0_linear_67_266)"/>
<rect x="0.749077" y="0.749077" width="73.4359" height="73.4359" rx="15.7306" fill="#F1F1F7"/>
<rect x="0.749077" y="0.749077" width="73.4359" height="73.4359" rx="15.7306" stroke="#DCDDEB" stroke-width="1.49815"/>
<path d="M37.4534 41.449L15.4805 29.4638L37.4534 17.4785L59.4263 29.4638L37.4534 41.449ZM37.4534 49.4392L16.6291 38.1031L20.8239 35.8059L37.4534 44.8948L54.0829 35.8059L58.2778 38.1031L37.4534 49.4392ZM37.4534 57.4293L16.6291 46.0933L20.8239 43.7961L37.4534 52.8849L54.0829 43.7961L58.2778 46.0933L37.4534 57.4293ZM37.4534 36.9046L51.0866 29.4638L37.4534 22.0229L23.8202 29.4638L37.4534 36.9046Z" fill="#9EA1B0"/>
<path d="M75.0186 40.0181L139.034 74.5338" stroke="#DCDDEB" stroke-width="2"/>
<path d="M139.034 136.062L75.0184 170.578" stroke="#DCDDEB" stroke-width="2"/>
<path d="M299.074 40.0181L235.058 74.5338" stroke="#DCDDEB" stroke-width="2"/>
<path d="M235.058 136.062L299.074 170.578" stroke="#DCDDEB" stroke-width="2"/>
<defs>
<linearGradient id="paint0_linear_67_266" x1="319.725" y1="56.303" x2="352.733" y2="19.0983" gradientUnits="userSpaceOnUse">
<stop offset="0.08" stop-color="#4B5169"/>
<stop offset="0.97" stop-color="#A0AAD3"/>
</linearGradient>
</defs>
</svg>
