<svg width="344" height="173" viewBox="0 0 344 173" fill="none" xmlns="http://www.w3.org/2000/svg">
<path d="M16.1768 1H66.3965C68.1433 1 69.8273 1.65311 71.1172 2.83105L121.721 49.043C123.173 50.3692 124 52.2453 124 54.2119V158.133C124 165.714 117.286 172 108.823 172H16.1768C7.71389 172 1 165.714 1 158.133V14.8672C1 7.40473 7.50554 1.19698 15.7812 1.00488L16.1768 1Z" fill="#191928" stroke="#2B2C3D" stroke-width="2"/>
<path d="M53.0585 113.274C50.265 113.274 48.0971 112.44 46.5547 110.771C45.0295 109.119 44.2668 106.804 44.2668 103.824C44.2668 102.393 44.4468 100.98 44.8067 99.5838C45.1666 98.1875 45.3465 96.7401 45.3465 95.2416C45.3465 94.288 44.9352 93.5473 44.1126 93.0194C43.3071 92.4745 42.356 92.0999 41.2592 91.8956C40.1795 91.6742 39.2284 91.5635 38.4058 91.5635V87.5279C39.0056 87.5279 39.6911 87.4513 40.4623 87.298C41.2506 87.1277 42.0132 86.8893 42.7502 86.5828C43.5042 86.2593 44.1212 85.8676 44.601 85.4079C45.098 84.9481 45.3465 84.4288 45.3465 83.8498C45.3465 82.2832 45.1666 80.8188 44.8067 79.4566C44.4468 78.0943 44.2668 76.698 44.2668 75.2677C44.2668 72.3899 45.0295 70.1763 46.5547 68.6267C48.0971 67.0601 50.265 66.2769 53.0585 66.2769C54.0696 66.2769 54.9093 66.3279 55.5777 66.4301C56.2461 66.5152 56.863 66.6344 57.4286 66.7877L56.8116 71.1299C56.2118 71.0447 55.6291 70.9851 55.0636 70.9511C54.5152 70.9 54.001 70.8744 53.5212 70.8744C52.3044 70.8744 51.3704 71.2576 50.7192 72.0238C50.0851 72.7901 49.768 73.8714 49.768 75.2677C49.768 76.7491 49.9651 78.1624 50.3593 79.5077C50.7534 80.8529 50.9505 82.2662 50.9505 83.7477C50.9505 85.4334 50.3593 86.7446 49.1768 87.6811C47.9943 88.6007 46.3405 89.0774 44.2154 89.1115V89.9799C46.3405 90.014 47.9943 90.5163 49.1768 91.4869C50.3593 92.4405 50.9505 93.7261 50.9505 95.3438C50.9505 96.8933 50.7534 98.3407 50.3593 99.6859C49.9651 101.031 49.768 102.41 49.768 103.824C49.768 105.373 50.0851 106.574 50.7192 107.425C51.3704 108.26 52.3044 108.677 53.5212 108.677C54.001 108.677 54.5152 108.651 55.0636 108.6C55.6291 108.549 56.2118 108.489 56.8116 108.421L57.4286 112.763C56.863 112.917 56.2461 113.036 55.5777 113.121C54.9093 113.223 54.0696 113.274 53.0585 113.274Z" fill="#CED7F3" fill-opacity="0.5"/>
<path d="M72.326 113.274C71.332 113.274 70.4923 113.223 69.8068 113.121C69.1384 113.036 68.5214 112.917 67.9559 112.763L68.5728 108.421C69.1727 108.489 69.7468 108.549 70.2952 108.6C70.8607 108.651 71.3834 108.677 71.8633 108.677C73.0801 108.677 74.0055 108.26 74.6396 107.425C75.2908 106.574 75.6164 105.373 75.6164 103.824C75.6164 102.41 75.4193 101.031 75.0252 99.6859C74.631 98.3407 74.4339 96.8933 74.4339 95.3438C74.4339 93.7261 75.0252 92.4405 76.2077 91.4869C77.3902 90.5163 79.044 90.014 81.169 89.9799V89.1115C79.044 89.0774 77.3902 88.6007 76.2077 87.6811C75.0252 86.7446 74.4339 85.4334 74.4339 83.7477C74.4339 82.2662 74.631 80.8529 75.0252 79.5077C75.4193 78.1624 75.6164 76.7491 75.6164 75.2677C75.6164 73.8714 75.2908 72.7901 74.6396 72.0238C74.0055 71.2576 73.0801 70.8744 71.8633 70.8744C71.3834 70.8744 70.8607 70.9 70.2952 70.9511C69.7468 70.9851 69.1727 71.0447 68.5728 71.1299L67.9559 66.7877C68.5214 66.6344 69.1384 66.5152 69.8068 66.4301C70.4923 66.3279 71.332 66.2769 72.326 66.2769C75.1194 66.2769 77.2788 67.0601 78.804 68.6267C80.3464 70.1763 81.1176 72.3899 81.1176 75.2677C81.1176 76.698 80.9377 78.0943 80.5778 79.4566C80.2179 80.8188 80.0379 82.2832 80.0379 83.8498C80.0379 84.4288 80.2779 84.9481 80.7577 85.4079C81.2547 85.8676 81.8717 86.2593 82.6086 86.5828C83.3626 86.8893 84.1338 87.1277 84.9222 87.298C85.7105 87.4513 86.396 87.5279 86.9787 87.5279V91.5635C86.1561 91.5635 85.1964 91.6742 84.0996 91.8956C83.0199 92.0999 82.0688 92.4745 81.2461 93.0194C80.4407 93.5473 80.0379 94.288 80.0379 95.2416C80.0379 96.7401 80.2179 98.1875 80.5778 99.5838C80.9377 100.98 81.1176 102.393 81.1176 103.824C81.1176 106.804 80.3464 109.119 78.804 110.771C77.2788 112.44 75.1194 113.274 72.326 113.274Z" fill="#CED7F3" fill-opacity="0.5"/>
<path d="M45.0437 146.457V126.644H47.8342V146.457H45.0437ZM40.4255 146.457V143.806H52.4803V146.457H40.4255ZM40.4255 129.295V126.644H52.4803V129.295H40.4255ZM59.0869 146.457V143.806H61.2914C63.3284 143.806 64.8585 143.224 65.8817 142.062C66.9142 140.899 67.4304 139.155 67.4304 136.829C67.4304 134.309 66.9142 132.425 65.8817 131.179C64.8585 129.923 63.3284 129.295 61.2914 129.295H59.1428L58.8079 126.644H61.2914C67.3374 126.644 70.3604 130.039 70.3604 136.829C70.3604 143.248 67.3374 146.457 61.2914 146.457H59.0869ZM56.4918 146.457V126.644H59.2823V146.457H56.4918ZM73.2278 146.457V126.644H76.0183V146.457H73.2278ZM73.2278 146.457V143.806H86.343V146.457H73.2278Z" fill="#CED7F3" fill-opacity="0.5"/>
<path d="M68.5 1L124 52H68.5V1Z" fill="#2B2C3D"/>
<rect x="259.931" y="1" width="83.0691" height="82.525" rx="14.1189" fill="#191928"/>
<rect x="259.931" y="1" width="83.0691" height="82.525" rx="14.1189" stroke="#2B2C3D" stroke-width="2"/>
<g clip-path="url(#clip0_64_153)">
<path d="M296.828 34.2583H304.087C308.553 34.2583 308.553 38.725 304.087 38.725H296.828V34.2583ZM279.52 54.9166H301.853V48.775H296.828V44.3083H302.412C308.553 44.3083 305.203 54.9166 310.228 54.9166H324.187V44.3083H320.837V45.425C320.837 49.8916 315.812 49.3333 315.253 46.5417C314.695 43.75 312.462 41.5167 311.903 41.5167C320.278 37.05 315.253 28.1167 308.553 28.1167H282.312V34.2583H287.895V48.775H279.52V54.9166Z" fill="#74788D" stroke="#74788D" stroke-width="0.558332" stroke-linejoin="round"/>
<path d="M301.574 66.3627C314.833 66.3627 325.582 55.6139 325.582 42.3545C325.582 29.0951 314.833 18.3462 301.574 18.3462C288.314 18.3462 277.565 29.0951 277.565 42.3545C277.565 55.6139 288.314 66.3627 301.574 66.3627Z" stroke="#74788D" stroke-width="5.02499"/>
<path d="M327.257 44.0292L330.049 42.3542L327.257 40.6792V44.0292Z" fill="#74788D" stroke="#74788D" stroke-width="1.675" stroke-linejoin="round"/>
<path d="M326.437 49.0078L329.502 47.9096L327.09 45.7222L326.437 49.0078Z" fill="#74788D" stroke="#74788D" stroke-width="1.675" stroke-linejoin="round"/>
<path d="M324.661 53.7307L327.881 53.2516L325.943 50.6357L324.661 53.7307Z" fill="#74788D" stroke="#74788D" stroke-width="1.675" stroke-linejoin="round"/>
<path d="M321.998 58.0159L325.25 58.1741L323.859 55.2305L321.998 58.0159Z" fill="#74788D" stroke="#74788D" stroke-width="1.675" stroke-linejoin="round"/>
<path d="M318.551 61.6999L321.709 62.4895L320.919 59.3311L318.551 61.6999Z" fill="#74788D" stroke="#74788D" stroke-width="1.675" stroke-linejoin="round"/>
<path d="M314.45 64.64L317.394 66.0306L317.235 62.7788L314.45 64.64Z" fill="#74788D" stroke="#74788D" stroke-width="1.675" stroke-linejoin="round"/>
<path d="M309.855 66.7234L312.471 68.6616L312.95 65.4414L309.855 66.7234Z" fill="#74788D" stroke="#74788D" stroke-width="1.675" stroke-linejoin="round"/>
<path d="M304.941 67.8703L307.129 70.2816L308.227 67.2168L304.941 67.8703Z" fill="#74788D" stroke="#74788D" stroke-width="1.675" stroke-linejoin="round"/>
<path d="M299.899 68.0376L301.574 70.8293L303.249 68.0376H299.899Z" fill="#74788D" stroke="#74788D" stroke-width="1.675" stroke-linejoin="round"/>
<path d="M294.92 67.2175L296.018 70.2823L298.206 67.8711L294.92 67.2175Z" fill="#74788D" stroke="#74788D" stroke-width="1.675" stroke-linejoin="round"/>
<path d="M290.197 65.4416L290.676 68.6618L293.292 66.7236L290.197 65.4416Z" fill="#74788D" stroke="#74788D" stroke-width="1.675" stroke-linejoin="round"/>
<path d="M285.912 62.7785L285.754 66.0303L288.698 64.6396L285.912 62.7785Z" fill="#74788D" stroke="#74788D" stroke-width="1.675" stroke-linejoin="round"/>
<path d="M282.228 59.3309L281.439 62.4893L284.597 61.6997L282.228 59.3309Z" fill="#74788D" stroke="#74788D" stroke-width="1.675" stroke-linejoin="round"/>
<path d="M279.288 55.2302L277.897 58.1739L281.149 58.0156L279.288 55.2302Z" fill="#74788D" stroke="#74788D" stroke-width="1.675" stroke-linejoin="round"/>
<path d="M277.204 50.6355L275.266 53.2513L278.486 53.7305L277.204 50.6355Z" fill="#74788D" stroke="#74788D" stroke-width="1.675" stroke-linejoin="round"/>
<path d="M276.057 45.7222L273.646 47.9096L276.711 49.0078L276.057 45.7222Z" fill="#74788D" stroke="#74788D" stroke-width="1.675" stroke-linejoin="round"/>
<path d="M275.891 40.6793L273.099 42.3543L275.891 44.0293V40.6793Z" fill="#74788D" stroke="#74788D" stroke-width="1.675" stroke-linejoin="round"/>
<path d="M276.711 35.7007L273.646 36.7989L276.057 38.9863L276.711 35.7007Z" fill="#74788D" stroke="#74788D" stroke-width="1.675" stroke-linejoin="round"/>
<path d="M278.487 30.9778L275.266 31.4569L277.205 34.0728L278.487 30.9778Z" fill="#74788D" stroke="#74788D" stroke-width="1.675" stroke-linejoin="round"/>
<path d="M281.149 26.6931L277.897 26.5348L279.288 29.4785L281.149 26.6931Z" fill="#74788D" stroke="#74788D" stroke-width="1.675" stroke-linejoin="round"/>
<path d="M284.597 23.0091L281.439 22.2195L282.229 25.3779L284.597 23.0091Z" fill="#74788D" stroke="#74788D" stroke-width="1.675" stroke-linejoin="round"/>
<path d="M288.698 20.0685L285.754 18.6779L285.912 21.9297L288.698 20.0685Z" fill="#74788D" stroke="#74788D" stroke-width="1.675" stroke-linejoin="round"/>
<path d="M293.292 17.9851L290.676 16.0469L290.197 19.2671L293.292 17.9851Z" fill="#74788D" stroke="#74788D" stroke-width="1.675" stroke-linejoin="round"/>
<path d="M298.206 16.8381L296.019 14.4269L294.92 17.4917L298.206 16.8381Z" fill="#74788D" stroke="#74788D" stroke-width="1.675" stroke-linejoin="round"/>
<path d="M303.248 16.6709L301.573 13.8792L299.898 16.6709H303.248Z" fill="#74788D" stroke="#74788D" stroke-width="1.675" stroke-linejoin="round"/>
<path d="M308.228 17.4914L307.129 14.4266L304.942 16.8379L308.228 17.4914Z" fill="#74788D" stroke="#74788D" stroke-width="1.675" stroke-linejoin="round"/>
<path d="M312.95 19.2673L312.471 16.0472L309.855 17.9854L312.95 19.2673Z" fill="#74788D" stroke="#74788D" stroke-width="1.675" stroke-linejoin="round"/>
<path d="M317.235 21.93L317.393 18.6782L314.45 20.0688L317.235 21.93Z" fill="#74788D" stroke="#74788D" stroke-width="1.675" stroke-linejoin="round"/>
<path d="M320.919 25.3781L321.709 22.2197L318.55 23.0093L320.919 25.3781Z" fill="#74788D" stroke="#74788D" stroke-width="1.675" stroke-linejoin="round"/>
<path d="M323.859 29.4783L325.25 26.5346L321.998 26.6929L323.859 29.4783Z" fill="#74788D" stroke="#74788D" stroke-width="1.675" stroke-linejoin="round"/>
<path d="M325.943 34.073L327.881 31.4572L324.661 30.978L325.943 34.073Z" fill="#74788D" stroke="#74788D" stroke-width="1.675" stroke-linejoin="round"/>
<path d="M327.09 38.9868L329.501 36.7994L326.436 35.7012L327.09 38.9868Z" fill="#74788D" stroke="#74788D" stroke-width="1.675" stroke-linejoin="round"/>
<path d="M297.666 18.9043L301.574 22.8126L305.482 18.9043H297.666Z" fill="#74788D" stroke="#74788D" stroke-width="3.34999" stroke-linejoin="round"/>
<path d="M322.669 31.3911L320.16 36.3159L325.084 38.8252L322.669 31.3911Z" fill="#74788D" stroke="#74788D" stroke-width="3.34999" stroke-linejoin="round"/>
<path d="M318.519 59.0288L313.06 58.1642L312.195 63.6233L318.519 59.0288Z" fill="#74788D" stroke="#74788D" stroke-width="3.34999" stroke-linejoin="round"/>
<path d="M290.952 63.623L290.088 58.1639L284.628 59.0285L290.952 63.623Z" fill="#74788D" stroke="#74788D" stroke-width="3.34999" stroke-linejoin="round"/>
<path d="M278.064 38.8247L282.989 36.3154L280.479 31.3906L278.064 38.8247Z" fill="#74788D" stroke="#74788D" stroke-width="3.34999" stroke-linejoin="round"/>
</g>
<rect x="259.931" y="89.4751" width="83.0691" height="82.525" rx="14.1189" fill="#191928"/>
<rect x="259.931" y="89.4751" width="83.0691" height="82.525" rx="14.1189" stroke="#2B2C3D" stroke-width="2"/>
<g clip-path="url(#clip1_64_153)">
<path d="M320.95 107.434H281.949C279.335 107.434 277.216 109.539 277.216 112.136V150.888C277.216 153.485 279.335 155.591 281.949 155.591H320.95C323.564 155.591 325.683 153.485 325.683 150.888V112.136C325.683 109.539 323.564 107.434 320.95 107.434Z" fill="#74788D"/>
<path d="M320.95 107.434H281.949C279.335 107.434 277.216 109.539 277.216 112.136V150.888C277.216 153.485 279.335 155.591 281.949 155.591H320.95C323.564 155.591 325.683 153.485 325.683 150.888V112.136C325.683 109.539 323.564 107.434 320.95 107.434Z" fill="#74788D"/>
<path fill-rule="evenodd" clip-rule="evenodd" d="M307.218 145.755V150.463C307.989 150.856 308.9 151.15 309.952 151.346C311.004 151.542 312.112 151.641 313.278 151.641C314.413 151.641 315.492 151.533 316.515 151.317C317.537 151.101 318.433 150.745 319.204 150.25C319.974 149.755 320.584 149.107 321.033 148.308C321.483 147.508 321.707 146.52 321.707 145.343C321.707 144.489 321.579 143.741 321.322 143.099C321.065 142.456 320.695 141.885 320.211 141.385C319.727 140.884 319.147 140.436 318.47 140.038C317.794 139.641 317.031 139.266 316.181 138.913C315.559 138.658 315.001 138.41 314.507 138.17C314.013 137.929 313.594 137.684 313.248 137.434C312.902 137.184 312.636 136.919 312.448 136.639C312.26 136.36 312.166 136.043 312.166 135.69C312.166 135.367 312.25 135.075 312.418 134.815C312.586 134.555 312.823 134.332 313.129 134.145C313.436 133.959 313.811 133.814 314.255 133.711C314.7 133.608 315.194 133.557 315.737 133.557C316.132 133.557 316.549 133.586 316.989 133.645C317.428 133.704 317.87 133.795 318.315 133.917C318.759 134.04 319.191 134.194 319.611 134.381C320.031 134.567 320.418 134.783 320.774 135.028V130.629C320.053 130.354 319.265 130.15 318.411 130.018C317.557 129.886 316.576 129.819 315.47 129.819C314.344 129.819 313.278 129.94 312.27 130.18C311.263 130.42 310.376 130.795 309.611 131.305C308.845 131.816 308.241 132.465 307.796 133.255C307.352 134.045 307.129 134.989 307.129 136.088C307.129 137.49 307.537 138.687 308.352 139.678C309.166 140.669 310.403 141.507 312.063 142.194C312.715 142.459 313.322 142.719 313.885 142.974C314.448 143.229 314.934 143.494 315.344 143.768C315.754 144.043 316.078 144.342 316.315 144.666C316.552 144.99 316.67 145.358 316.67 145.77C316.67 146.074 316.596 146.356 316.448 146.616C316.3 146.876 316.075 147.101 315.774 147.292C315.473 147.484 315.097 147.633 314.648 147.741C314.199 147.849 313.673 147.903 313.07 147.903C312.043 147.903 311.026 147.724 310.018 147.366C309.011 147.008 308.078 146.471 307.218 145.755ZM299.252 134.154H305.331V130.29H288.386V134.154H294.436V151.358H299.252V134.154Z" fill="#191928"/>
</g>
<path d="M124.932 85.0918H123.932V87.0918H124.932V86.0918V85.0918ZM254.6 86.7989C254.991 86.4084 254.991 85.7752 254.6 85.3847L248.237 79.0207C247.846 78.6302 247.213 78.6302 246.822 79.0207C246.432 79.4113 246.432 80.0444 246.822 80.4349L252.479 86.0918L246.822 91.7487C246.432 92.1392 246.432 92.7723 246.822 93.1629C247.213 93.5534 247.846 93.5534 248.237 93.1629L254.6 86.7989ZM124.932 86.0918V87.0918C125.118 87.0918 125.304 87.0918 125.49 87.0918C125.676 87.0918 125.861 87.0918 126.047 87.0918C126.232 87.0918 126.417 87.0918 126.602 87.0918C126.787 87.0918 126.971 87.0918 127.156 87.0918C127.34 87.0918 127.524 87.0918 127.708 87.0918C127.892 87.0918 128.075 87.0918 128.259 87.0918C128.442 87.0918 128.625 87.0918 128.808 87.0918C128.991 87.0918 129.173 87.0918 129.356 87.0918C129.538 87.0918 129.72 87.0918 129.902 87.0918C130.084 87.0918 130.266 87.0918 130.447 87.0918C130.628 87.0918 130.81 87.0918 130.991 87.0918C131.171 87.0918 131.352 87.0918 131.532 87.0918C131.713 87.0918 131.893 87.0918 132.073 87.0918C132.253 87.0918 132.433 87.0918 132.612 87.0918C132.791 87.0918 132.971 87.0918 133.149 87.0918C133.328 87.0918 133.507 87.0918 133.686 87.0918C133.864 87.0918 134.042 87.0918 134.22 87.0918C134.398 87.0918 134.576 87.0918 134.753 87.0918C134.931 87.0918 135.108 87.0918 135.285 87.0918C135.462 87.0918 135.639 87.0918 135.815 87.0918C135.992 87.0918 136.168 87.0918 136.344 87.0918C136.52 87.0918 136.696 87.0918 136.871 87.0918C137.047 87.0918 137.222 87.0918 137.397 87.0918C137.572 87.0918 137.747 87.0918 137.922 87.0918C138.096 87.0918 138.271 87.0918 138.445 87.0918C138.619 87.0918 138.793 87.0918 138.966 87.0918C139.14 87.0918 139.313 87.0918 139.486 87.0918C139.659 87.0918 139.832 87.0918 140.005 87.0918C140.178 87.0918 140.35 87.0918 140.522 87.0918C140.694 87.0918 140.866 87.0918 141.038 87.0918C141.21 87.0918 141.381 87.0918 141.552 87.0918C141.724 87.0918 141.894 87.0918 142.065 87.0918C142.236 87.0918 142.406 87.0918 142.577 87.0918C142.747 87.0918 142.917 87.0918 143.087 87.0918C143.256 87.0918 143.426 87.0918 143.595 87.0918C143.765 87.0918 143.934 87.0918 144.102 87.0918C144.271 87.0918 144.44 87.0918 144.608 87.0918C144.776 87.0918 144.945 87.0918 145.112 87.0918C145.28 87.0918 145.448 87.0918 145.615 87.0918C145.783 87.0918 145.95 87.0918 146.117 87.0918C146.284 87.0918 146.45 87.0918 146.617 87.0918C146.783 87.0918 146.949 87.0918 147.115 87.0918C147.281 87.0918 147.447 87.0918 147.613 87.0918C147.778 87.0918 147.943 87.0918 148.108 87.0918C148.273 87.0918 148.438 87.0918 148.603 87.0918C148.767 87.0918 148.932 87.0918 149.096 87.0918C149.26 87.0918 149.424 87.0918 149.587 87.0918C149.751 87.0918 149.914 87.0918 150.077 87.0918C150.241 87.0918 150.404 87.0918 150.566 87.0918C150.729 87.0918 150.891 87.0918 151.053 87.0918C151.216 87.0918 151.378 87.0918 151.539 87.0918C151.701 87.0918 151.863 87.0918 152.024 87.0918C152.185 87.0918 152.346 87.0918 152.507 87.0918C152.668 87.0918 152.828 87.0918 152.989 87.0918C153.149 87.0918 153.309 87.0918 153.469 87.0918C153.629 87.0918 153.789 87.0918 153.948 87.0918C154.107 87.0918 154.267 87.0918 154.426 87.0918C154.584 87.0918 154.743 87.0918 154.902 87.0918C155.06 87.0918 155.218 87.0918 155.376 87.0918C155.534 87.0918 155.692 87.0918 155.85 87.0918C156.007 87.0918 156.165 87.0918 156.322 87.0918C156.479 87.0918 156.636 87.0918 156.792 87.0918C156.949 87.0918 157.105 87.0918 157.261 87.0918C157.418 87.0918 157.574 87.0918 157.729 87.0918C157.885 87.0918 158.04 87.0918 158.196 87.0918C158.351 87.0918 158.506 87.0918 158.661 87.0918C158.816 87.0918 158.97 87.0918 159.124 87.0918C159.279 87.0918 159.433 87.0918 159.587 87.0918C159.741 87.0918 159.894 87.0918 160.048 87.0918C160.201 87.0918 160.354 87.0918 160.507 87.0918C160.66 87.0918 160.813 87.0918 160.965 87.0918C161.118 87.0918 161.27 87.0918 161.422 87.0918C161.574 87.0918 161.726 87.0918 161.878 87.0918C162.029 87.0918 162.181 87.0918 162.332 87.0918C162.483 87.0918 162.634 87.0918 162.785 87.0918C162.935 87.0918 163.086 87.0918 163.236 87.0918C163.386 87.0918 163.536 87.0918 163.686 87.0918C163.836 87.0918 163.985 87.0918 164.135 87.0918C164.284 87.0918 164.433 87.0918 164.582 87.0918C164.731 87.0918 164.879 87.0918 165.028 87.0918C165.176 87.0918 165.324 87.0918 165.472 87.0918C165.62 87.0918 165.768 87.0918 165.916 87.0918C166.063 87.0918 166.21 87.0918 166.357 87.0918C166.504 87.0918 166.651 87.0918 166.798 87.0918C166.945 87.0918 167.091 87.0918 167.237 87.0918C167.383 87.0918 167.529 87.0918 167.675 87.0918C167.821 87.0918 167.966 87.0918 168.111 87.0918C168.257 87.0918 168.402 87.0918 168.547 87.0918C168.691 87.0918 168.836 87.0918 168.98 87.0918C169.125 87.0918 169.269 87.0918 169.413 87.0918C169.557 87.0918 169.7 87.0918 169.844 87.0918C169.987 87.0918 170.131 87.0918 170.274 87.0918C170.417 87.0918 170.56 87.0918 170.702 87.0918C170.845 87.0918 170.987 87.0918 171.129 87.0918C171.272 87.0918 171.413 87.0918 171.555 87.0918C171.697 87.0918 171.838 87.0918 171.98 87.0918C172.121 87.0918 172.262 87.0918 172.403 87.0918C172.544 87.0918 172.684 87.0918 172.825 87.0918C172.965 87.0918 173.105 87.0918 173.245 87.0918C173.385 87.0918 173.525 87.0918 173.664 87.0918C173.804 87.0918 173.943 87.0918 174.082 87.0918C174.221 87.0918 174.36 87.0918 174.499 87.0918C174.637 87.0918 174.776 87.0918 174.914 87.0918C175.052 87.0918 175.19 87.0918 175.328 87.0918C175.466 87.0918 175.603 87.0918 175.74 87.0918C175.878 87.0918 176.015 87.0918 176.152 87.0918C176.289 87.0918 176.425 87.0918 176.562 87.0918C176.698 87.0918 176.834 87.0918 176.97 87.0918C177.106 87.0918 177.242 87.0918 177.378 87.0918C177.513 87.0918 177.649 87.0918 177.784 87.0918C177.919 87.0918 178.054 87.0918 178.189 87.0918C178.323 87.0918 178.458 87.0918 178.592 87.0918C178.726 87.0918 178.86 87.0918 178.994 87.0918C179.128 87.0918 179.262 87.0918 179.395 87.0918C179.528 87.0918 179.662 87.0918 179.795 87.0918C179.928 87.0918 180.06 87.0918 180.193 87.0918C180.325 87.0918 180.458 87.0918 180.59 87.0918C180.722 87.0918 180.854 87.0918 180.986 87.0918C181.117 87.0918 181.249 87.0918 181.38 87.0918C181.511 87.0918 181.642 87.0918 181.773 87.0918C181.904 87.0918 182.034 87.0918 182.165 87.0918C182.295 87.0918 182.425 87.0918 182.555 87.0918C182.685 87.0918 182.815 87.0918 182.945 87.0918C183.074 87.0918 183.204 87.0918 183.333 87.0918C183.462 87.0918 183.591 87.0918 183.719 87.0918C183.848 87.0918 183.977 87.0918 184.105 87.0918C184.233 87.0918 184.361 87.0918 184.489 87.0918C184.617 87.0918 184.744 87.0918 184.872 87.0918C184.999 87.0918 185.126 87.0918 185.253 87.0918C185.38 87.0918 185.507 87.0918 185.634 87.0918C185.76 87.0918 185.887 87.0918 186.013 87.0918C186.139 87.0918 186.265 87.0918 186.391 87.0918C186.516 87.0918 186.642 87.0918 186.767 87.0918C186.892 87.0918 187.018 87.0918 187.142 87.0918C187.267 87.0918 187.392 87.0918 187.516 87.0918C187.641 87.0918 187.765 87.0918 187.889 87.0918C188.013 87.0918 188.137 87.0918 188.261 87.0918C188.384 87.0918 188.508 87.0918 188.631 87.0918C188.754 87.0918 188.877 87.0918 189 87.0918C189.123 87.0918 189.245 87.0918 189.368 87.0918C189.49 87.0918 189.612 87.0918 189.734 87.0918C189.856 87.0918 189.978 87.0918 190.099 87.0918C190.221 87.0918 190.342 87.0918 190.463 87.0918C190.584 87.0918 190.705 87.0918 190.826 87.0918C190.947 87.0918 191.067 87.0918 191.187 87.0918C191.308 87.0918 191.428 87.0918 191.548 87.0918C191.668 87.0918 191.787 87.0918 191.907 87.0918C192.026 87.0918 192.145 87.0918 192.264 87.0918C192.383 87.0918 192.502 87.0918 192.621 87.0918C192.74 87.0918 192.858 87.0918 192.976 87.0918C193.094 87.0918 193.212 87.0918 193.33 87.0918C193.448 87.0918 193.566 87.0918 193.683 87.0918C193.8 87.0918 193.918 87.0918 194.035 87.0918C194.152 87.0918 194.268 87.0918 194.385 87.0918C194.502 87.0918 194.618 87.0918 194.734 87.0918C194.85 87.0918 194.966 87.0918 195.082 87.0918C195.198 87.0918 195.313 87.0918 195.429 87.0918C195.544 87.0918 195.659 87.0918 195.774 87.0918C195.889 87.0918 196.004 87.0918 196.118 87.0918C196.233 87.0918 196.347 87.0918 196.461 87.0918C196.576 87.0918 196.689 87.0918 196.803 87.0918C196.917 87.0918 197.03 87.0918 197.144 87.0918C197.257 87.0918 197.37 87.0918 197.483 87.0918C197.596 87.0918 197.709 87.0918 197.821 87.0918C197.934 87.0918 198.046 87.0918 198.158 87.0918C198.27 87.0918 198.382 87.0918 198.494 87.0918C198.606 87.0918 198.717 87.0918 198.829 87.0918C198.94 87.0918 199.051 87.0918 199.162 87.0918C199.273 87.0918 199.383 87.0918 199.494 87.0918C199.604 87.0918 199.715 87.0918 199.825 87.0918C199.935 87.0918 200.045 87.0918 200.155 87.0918C200.264 87.0918 200.374 87.0918 200.483 87.0918C200.592 87.0918 200.701 87.0918 200.81 87.0918C200.919 87.0918 201.028 87.0918 201.137 87.0918C201.245 87.0918 201.353 87.0918 201.461 87.0918C201.57 87.0918 201.677 87.0918 201.785 87.0918C201.893 87.0918 202 87.0918 202.108 87.0918C202.215 87.0918 202.322 87.0918 202.429 87.0918C202.536 87.0918 202.643 87.0918 202.749 87.0918C202.856 87.0918 202.962 87.0918 203.068 87.0918C203.174 87.0918 203.28 87.0918 203.386 87.0918C203.492 87.0918 203.597 87.0918 203.703 87.0918C203.808 87.0918 203.913 87.0918 204.018 87.0918C204.123 87.0918 204.228 87.0918 204.332 87.0918C204.437 87.0918 204.541 87.0918 204.645 87.0918C204.75 87.0918 204.854 87.0918 204.957 87.0918C205.061 87.0918 205.165 87.0918 205.268 87.0918C205.371 87.0918 205.475 87.0918 205.578 87.0918C205.681 87.0918 205.783 87.0918 205.886 87.0918C205.989 87.0918 206.091 87.0918 206.193 87.0918C206.295 87.0918 206.397 87.0918 206.499 87.0918C206.601 87.0918 206.703 87.0918 206.804 87.0918C206.906 87.0918 207.007 87.0918 207.108 87.0918C207.209 87.0918 207.31 87.0918 207.41 87.0918C207.511 87.0918 207.612 87.0918 207.712 87.0918C207.812 87.0918 207.912 87.0918 208.012 87.0918C208.112 87.0918 208.212 87.0918 208.311 87.0918C208.411 87.0918 208.51 87.0918 208.609 87.0918C208.708 87.0918 208.807 87.0918 208.906 87.0918C209.005 87.0918 209.103 87.0918 209.202 87.0918C209.3 87.0918 209.398 87.0918 209.496 87.0918C209.594 87.0918 209.692 87.0918 209.789 87.0918C209.887 87.0918 209.984 87.0918 210.082 87.0918C210.179 87.0918 210.276 87.0918 210.373 87.0918C210.469 87.0918 210.566 87.0918 210.663 87.0918C210.759 87.0918 210.855 87.0918 210.951 87.0918C211.047 87.0918 211.143 87.0918 211.239 87.0918C211.335 87.0918 211.43 87.0918 211.525 87.0918C211.621 87.0918 211.716 87.0918 211.811 87.0918C211.906 87.0918 212 87.0918 212.095 87.0918C212.189 87.0918 212.284 87.0918 212.378 87.0918C212.472 87.0918 212.566 87.0918 212.66 87.0918C212.754 87.0918 212.847 87.0918 212.941 87.0918C213.034 87.0918 213.127 87.0918 213.22 87.0918C213.313 87.0918 213.406 87.0918 213.499 87.0918C213.592 87.0918 213.684 87.0918 213.776 87.0918C213.869 87.0918 213.961 87.0918 214.053 87.0918C214.145 87.0918 214.236 87.0918 214.328 87.0918C214.42 87.0918 214.511 87.0918 214.602 87.0918C214.693 87.0918 214.784 87.0918 214.875 87.0918C214.966 87.0918 215.056 87.0918 215.147 87.0918C215.237 87.0918 215.328 87.0918 215.418 87.0918C215.508 87.0918 215.597 87.0918 215.687 87.0918C215.777 87.0918 215.866 87.0918 215.956 87.0918C216.045 87.0918 216.134 87.0918 216.223 87.0918C216.312 87.0918 216.401 87.0918 216.489 87.0918C216.578 87.0918 216.666 87.0918 216.755 87.0918C216.843 87.0918 216.931 87.0918 217.019 87.0918C217.106 87.0918 217.194 87.0918 217.282 87.0918C217.369 87.0918 217.456 87.0918 217.543 87.0918C217.631 87.0918 217.718 87.0918 217.804 87.0918C217.891 87.0918 217.978 87.0918 218.064 87.0918C218.15 87.0918 218.237 87.0918 218.323 87.0918C218.409 87.0918 218.494 87.0918 218.58 87.0918C218.666 87.0918 218.751 87.0918 218.836 87.0918C218.922 87.0918 219.007 87.0918 219.092 87.0918C219.177 87.0918 219.261 87.0918 219.346 87.0918C219.431 87.0918 219.515 87.0918 219.599 87.0918C219.683 87.0918 219.767 87.0918 219.851 87.0918C219.935 87.0918 220.019 87.0918 220.102 87.0918C220.186 87.0918 220.269 87.0918 220.352 87.0918C220.435 87.0918 220.518 87.0918 220.601 87.0918C220.684 87.0918 220.766 87.0918 220.849 87.0918C220.931 87.0918 221.013 87.0918 221.095 87.0918C221.177 87.0918 221.259 87.0918 221.341 87.0918C221.422 87.0918 221.504 87.0918 221.585 87.0918C221.667 87.0918 221.748 87.0918 221.829 87.0918C221.91 87.0918 221.99 87.0918 222.071 87.0918C222.152 87.0918 222.232 87.0918 222.312 87.0918C222.393 87.0918 222.473 87.0918 222.553 87.0918C222.632 87.0918 222.712 87.0918 222.792 87.0918C222.871 87.0918 222.951 87.0918 223.03 87.0918C223.109 87.0918 223.188 87.0918 223.267 87.0918C223.346 87.0918 223.424 87.0918 223.503 87.0918C223.581 87.0918 223.66 87.0918 223.738 87.0918C223.816 87.0918 223.894 87.0918 223.972 87.0918C224.049 87.0918 224.127 87.0918 224.204 87.0918C224.282 87.0918 224.359 87.0918 224.436 87.0918C224.513 87.0918 224.59 87.0918 224.667 87.0918C224.744 87.0918 224.82 87.0918 224.896 87.0918C224.973 87.0918 225.049 87.0918 225.125 87.0918C225.201 87.0918 225.277 87.0918 225.353 87.0918C225.428 87.0918 225.504 87.0918 225.579 87.0918C225.655 87.0918 225.73 87.0918 225.805 87.0918C225.88 87.0918 225.954 87.0918 226.029 87.0918C226.104 87.0918 226.178 87.0918 226.252 87.0918C226.327 87.0918 226.401 87.0918 226.475 87.0918C226.549 87.0918 226.623 87.0918 226.696 87.0918C226.77 87.0918 226.843 87.0918 226.916 87.0918C226.99 87.0918 227.063 87.0918 227.136 87.0918C227.209 87.0918 227.281 87.0918 227.354 87.0918C227.426 87.0918 227.499 87.0918 227.571 87.0918C227.643 87.0918 227.715 87.0918 227.787 87.0918C227.859 87.0918 227.931 87.0918 228.002 87.0918C228.074 87.0918 228.145 87.0918 228.216 87.0918C228.288 87.0918 228.359 87.0918 228.43 87.0918C228.5 87.0918 228.571 87.0918 228.642 87.0918C228.712 87.0918 228.783 87.0918 228.853 87.0918C228.923 87.0918 228.993 87.0918 229.063 87.0918C229.133 87.0918 229.202 87.0918 229.272 87.0918C229.341 87.0918 229.411 87.0918 229.48 87.0918C229.549 87.0918 229.618 87.0918 229.687 87.0918C229.756 87.0918 229.824 87.0918 229.893 87.0918C229.961 87.0918 230.03 87.0918 230.098 87.0918C230.166 87.0918 230.234 87.0918 230.302 87.0918C230.369 87.0918 230.437 87.0918 230.505 87.0918C230.572 87.0918 230.639 87.0918 230.707 87.0918C230.774 87.0918 230.841 87.0918 230.908 87.0918C230.974 87.0918 231.041 87.0918 231.107 87.0918C231.174 87.0918 231.24 87.0918 231.306 87.0918C231.373 87.0918 231.439 87.0918 231.504 87.0918C231.57 87.0918 231.636 87.0918 231.701 87.0918C231.767 87.0918 231.832 87.0918 231.897 87.0918C231.962 87.0918 232.027 87.0918 232.092 87.0918C232.157 87.0918 232.222 87.0918 232.286 87.0918C232.351 87.0918 232.415 87.0918 232.479 87.0918C232.543 87.0918 232.607 87.0918 232.671 87.0918C232.735 87.0918 232.799 87.0918 232.862 87.0918C232.926 87.0918 232.989 87.0918 233.052 87.0918C233.116 87.0918 233.179 87.0918 233.241 87.0918C233.304 87.0918 233.367 87.0918 233.429 87.0918C233.492 87.0918 233.554 87.0918 233.617 87.0918C233.679 87.0918 233.741 87.0918 233.803 87.0918C233.865 87.0918 233.926 87.0918 233.988 87.0918C234.049 87.0918 234.111 87.0918 234.172 87.0918C234.233 87.0918 234.294 87.0918 234.355 87.0918C234.416 87.0918 234.477 87.0918 234.537 87.0918C234.598 87.0918 234.659 87.0918 234.719 87.0918C234.779 87.0918 234.839 87.0918 234.899 87.0918C234.959 87.0918 235.019 87.0918 235.078 87.0918C235.138 87.0918 235.197 87.0918 235.257 87.0918C235.316 87.0918 235.375 87.0918 235.434 87.0918C235.493 87.0918 235.552 87.0918 235.611 87.0918C235.669 87.0918 235.728 87.0918 235.786 87.0918C235.844 87.0918 235.903 87.0918 235.961 87.0918C236.019 87.0918 236.077 87.0918 236.134 87.0918C236.192 87.0918 236.25 87.0918 236.307 87.0918C236.364 87.0918 236.422 87.0918 236.479 87.0918C236.536 87.0918 236.593 87.0918 236.649 87.0918C236.706 87.0918 236.763 87.0918 236.819 87.0918C236.876 87.0918 236.932 87.0918 236.988 87.0918C237.044 87.0918 237.1 87.0918 237.156 87.0918C237.212 87.0918 237.267 87.0918 237.323 87.0918C237.378 87.0918 237.434 87.0918 237.489 87.0918C237.544 87.0918 237.599 87.0918 237.654 87.0918C237.709 87.0918 237.763 87.0918 237.818 87.0918C237.873 87.0918 237.927 87.0918 237.981 87.0918C238.035 87.0918 238.09 87.0918 238.143 87.0918C238.197 87.0918 238.251 87.0918 238.305 87.0918C238.358 87.0918 238.412 87.0918 238.465 87.0918C238.519 87.0918 238.572 87.0918 238.625 87.0918C238.678 87.0918 238.731 87.0918 238.783 87.0918C238.836 87.0918 238.888 87.0918 238.941 87.0918C238.993 87.0918 239.045 87.0918 239.098 87.0918C239.15 87.0918 239.202 87.0918 239.253 87.0918C239.305 87.0918 239.357 87.0918 239.408 87.0918C239.46 87.0918 239.511 87.0918 239.562 87.0918C239.613 87.0918 239.664 87.0918 239.715 87.0918C239.766 87.0918 239.817 87.0918 239.867 87.0918C239.918 87.0918 239.968 87.0918 240.018 87.0918C240.069 87.0918 240.119 87.0918 240.169 87.0918C240.219 87.0918 240.268 87.0918 240.318 87.0918C240.368 87.0918 240.417 87.0918 240.467 87.0918C240.516 87.0918 240.565 87.0918 240.614 87.0918C240.663 87.0918 240.712 87.0918 240.761 87.0918C240.809 87.0918 240.858 87.0918 240.906 87.0918C240.955 87.0918 241.003 87.0918 241.051 87.0918C241.099 87.0918 241.147 87.0918 241.195 87.0918C241.243 87.0918 241.291 87.0918 241.338 87.0918C241.386 87.0918 241.433 87.0918 241.48 87.0918C241.528 87.0918 241.575 87.0918 241.622 87.0918C241.669 87.0918 241.715 87.0918 241.762 87.0918C241.809 87.0918 241.855 87.0918 241.901 87.0918C241.948 87.0918 241.994 87.0918 242.04 87.0918C242.086 87.0918 242.132 87.0918 242.178 87.0918C242.223 87.0918 242.269 87.0918 242.315 87.0918C242.36 87.0918 242.405 87.0918 242.45 87.0918C242.496 87.0918 242.541 87.0918 242.585 87.0918C242.63 87.0918 242.675 87.0918 242.72 87.0918C242.764 87.0918 242.809 87.0918 242.853 87.0918C242.897 87.0918 242.941 87.0918 242.985 87.0918C243.029 87.0918 243.073 87.0918 243.117 87.0918C243.16 87.0918 243.204 87.0918 243.247 87.0918C243.291 87.0918 243.334 87.0918 243.377 87.0918C243.42 87.0918 243.463 87.0918 243.506 87.0918C243.549 87.0918 243.592 87.0918 243.634 87.0918C243.677 87.0918 243.719 87.0918 243.761 87.0918C243.804 87.0918 243.846 87.0918 243.888 87.0918C243.93 87.0918 243.971 87.0918 244.013 87.0918C244.055 87.0918 244.096 87.0918 244.138 87.0918C244.179 87.0918 244.22 87.0918 244.261 87.0918C244.302 87.0918 244.343 87.0918 244.384 87.0918C244.425 87.0918 244.466 87.0918 244.506 87.0918C244.547 87.0918 244.587 87.0918 244.627 87.0918C244.667 87.0918 244.708 87.0918 244.748 87.0918C244.787 87.0918 244.827 87.0918 244.867 87.0918C244.907 87.0918 244.946 87.0918 244.986 87.0918C245.025 87.0918 245.064 87.0918 245.103 87.0918C245.142 87.0918 245.181 87.0918 245.22 87.0918C245.259 87.0918 245.298 87.0918 245.336 87.0918C245.375 87.0918 245.413 87.0918 245.451 87.0918C245.49 87.0918 245.528 87.0918 245.566 87.0918C245.604 87.0918 245.641 87.0918 245.679 87.0918C245.717 87.0918 245.754 87.0918 245.792 87.0918C245.829 87.0918 245.867 87.0918 245.904 87.0918C245.941 87.0918 245.978 87.0918 246.015 87.0918C246.052 87.0918 246.088 87.0918 246.125 87.0918C246.161 87.0918 246.198 87.0918 246.234 87.0918C246.27 87.0918 246.307 87.0918 246.343 87.0918C246.379 87.0918 246.415 87.0918 246.45 87.0918C246.486 87.0918 246.522 87.0918 246.557 87.0918C246.593 87.0918 246.628 87.0918 246.663 87.0918C246.698 87.0918 246.733 87.0918 246.768 87.0918C246.803 87.0918 246.838 87.0918 246.873 87.0918C246.907 87.0918 246.942 87.0918 246.976 87.0918C247.011 87.0918 247.045 87.0918 247.079 87.0918C247.113 87.0918 247.147 87.0918 247.181 87.0918C247.215 87.0918 247.248 87.0918 247.282 87.0918C247.316 87.0918 247.349 87.0918 247.382 87.0918C247.416 87.0918 247.449 87.0918 247.482 87.0918C247.515 87.0918 247.548 87.0918 247.58 87.0918C247.613 87.0918 247.646 87.0918 247.678 87.0918C247.711 87.0918 247.743 87.0918 247.775 87.0918C247.808 87.0918 247.84 87.0918 247.872 87.0918C247.903 87.0918 247.935 87.0918 247.967 87.0918C247.999 87.0918 248.03 87.0918 248.062 87.0918C248.093 87.0918 248.124 87.0918 248.155 87.0918C248.187 87.0918 248.218 87.0918 248.248 87.0918C248.279 87.0918 248.31 87.0918 248.341 87.0918C248.371 87.0918 248.402 87.0918 248.432 87.0918C248.463 87.0918 248.493 87.0918 248.523 87.0918C248.553 87.0918 248.583 87.0918 248.613 87.0918C248.643 87.0918 248.672 87.0918 248.702 87.0918C248.731 87.0918 248.761 87.0918 248.79 87.0918C248.819 87.0918 248.849 87.0918 248.878 87.0918C248.907 87.0918 248.935 87.0918 248.964 87.0918C248.993 87.0918 249.022 87.0918 249.05 87.0918C249.079 87.0918 249.107 87.0918 249.135 87.0918C249.164 87.0918 249.192 87.0918 249.22 87.0918C249.248 87.0918 249.276 87.0918 249.303 87.0918C249.331 87.0918 249.359 87.0918 249.386 87.0918C249.414 87.0918 249.441 87.0918 249.468 87.0918C249.495 87.0918 249.522 87.0918 249.549 87.0918C249.576 87.0918 249.603 87.0918 249.63 87.0918C249.657 87.0918 249.683 87.0918 249.71 87.0918C249.736 87.0918 249.762 87.0918 249.789 87.0918C249.815 87.0918 249.841 87.0918 249.867 87.0918C249.893 87.0918 249.919 87.0918 249.944 87.0918C249.97 87.0918 249.995 87.0918 250.021 87.0918C250.046 87.0918 250.072 87.0918 250.097 87.0918C250.122 87.0918 250.147 87.0918 250.172 87.0918C250.197 87.0918 250.222 87.0918 250.246 87.0918C250.271 87.0918 250.296 87.0918 250.32 87.0918C250.344 87.0918 250.369 87.0918 250.393 87.0918C250.417 87.0918 250.441 87.0918 250.465 87.0918C250.489 87.0918 250.513 87.0918 250.536 87.0918C250.56 87.0918 250.584 87.0918 250.607 87.0918C250.63 87.0918 250.654 87.0918 250.677 87.0918C250.7 87.0918 250.723 87.0918 250.746 87.0918C250.769 87.0918 250.792 87.0918 250.814 87.0918C250.837 87.0918 250.86 87.0918 250.882 87.0918C250.904 87.0918 250.927 87.0918 250.949 87.0918C250.971 87.0918 250.993 87.0918 251.015 87.0918C251.037 87.0918 251.059 87.0918 251.081 87.0918C251.102 87.0918 251.124 87.0918 251.145 87.0918C251.167 87.0918 251.188 87.0918 251.209 87.0918C251.23 87.0918 251.251 87.0918 251.272 87.0918C251.293 87.0918 251.314 87.0918 251.335 87.0918C251.356 87.0918 251.376 87.0918 251.397 87.0918C251.417 87.0918 251.437 87.0918 251.458 87.0918C251.478 87.0918 251.498 87.0918 251.518 87.0918C251.538 87.0918 251.558 87.0918 251.578 87.0918C251.597 87.0918 251.617 87.0918 251.636 87.0918C251.656 87.0918 251.675 87.0918 251.695 87.0918C251.714 87.0918 251.733 87.0918 251.752 87.0918C251.771 87.0918 251.79 87.0918 251.809 87.0918C251.828 87.0918 251.846 87.0918 251.865 87.0918C251.883 87.0918 251.902 87.0918 251.92 87.0918C251.938 87.0918 251.957 87.0918 251.975 87.0918C251.993 87.0918 252.011 87.0918 252.029 87.0918C252.046 87.0918 252.064 87.0918 252.082 87.0918C252.099 87.0918 252.117 87.0918 252.134 87.0918C252.152 87.0918 252.169 87.0918 252.186 87.0918C252.203 87.0918 252.22 87.0918 252.237 87.0918C252.254 87.0918 252.271 87.0918 252.287 87.0918C252.304 87.0918 252.32 87.0918 252.337 87.0918C252.353 87.0918 252.37 87.0918 252.386 87.0918C252.402 87.0918 252.418 87.0918 252.434 87.0918C252.45 87.0918 252.466 87.0918 252.482 87.0918C252.497 87.0918 252.513 87.0918 252.529 87.0918C252.544 87.0918 252.559 87.0918 252.575 87.0918C252.59 87.0918 252.605 87.0918 252.62 87.0918C252.635 87.0918 252.65 87.0918 252.665 87.0918C252.68 87.0918 252.694 87.0918 252.709 87.0918C252.724 87.0918 252.738 87.0918 252.752 87.0918C252.767 87.0918 252.781 87.0918 252.795 87.0918C252.809 87.0918 252.823 87.0918 252.837 87.0918C252.851 87.0918 252.865 87.0918 252.879 87.0918C252.892 87.0918 252.906 87.0918 252.919 87.0918C252.933 87.0918 252.946 87.0918 252.959 87.0918C252.973 87.0918 252.986 87.0918 252.999 87.0918C253.012 87.0918 253.025 87.0918 253.037 87.0918C253.05 87.0918 253.063 87.0918 253.075 87.0918C253.088 87.0918 253.1 87.0918 253.113 87.0918C253.125 87.0918 253.137 87.0918 253.149 87.0918C253.162 87.0918 253.174 87.0918 253.185 87.0918C253.197 87.0918 253.209 87.0918 253.221 87.0918C253.232 87.0918 253.244 87.0918 253.255 87.0918C253.267 87.0918 253.278 87.0918 253.289 87.0918C253.301 87.0918 253.312 87.0918 253.323 87.0918C253.334 87.0918 253.345 87.0918 253.355 87.0918C253.366 87.0918 253.377 87.0918 253.388 87.0918C253.398 87.0918 253.409 87.0918 253.419 87.0918C253.429 87.0918 253.44 87.0918 253.45 87.0918C253.46 87.0918 253.47 87.0918 253.48 87.0918C253.49 87.0918 253.499 87.0918 253.509 87.0918C253.519 87.0918 253.529 87.0918 253.538 87.0918C253.547 87.0918 253.557 87.0918 253.566 87.0918C253.575 87.0918 253.585 87.0918 253.594 87.0918C253.603 87.0918 253.612 87.0918 253.62 87.0918C253.629 87.0918 253.638 87.0918 253.647 87.0918C253.655 87.0918 253.664 87.0918 253.672 87.0918C253.681 87.0918 253.689 87.0918 253.697 87.0918C253.705 87.0918 253.714 87.0918 253.722 87.0918C253.73 87.0918 253.737 87.0918 253.745 87.0918C253.753 87.0918 253.761 87.0918 253.768 87.0918C253.776 87.0918 253.783 87.0918 253.791 87.0918C253.798 87.0918 253.805 87.0918 253.812 87.0918C253.82 87.0918 253.827 87.0918 253.834 87.0918C253.841 87.0918 253.847 87.0918 253.854 87.0918C253.861 87.0918 253.868 87.0918 253.874 87.0918C253.881 87.0918 253.887 87.0918 253.893 87.0918V86.0918V85.0918C253.887 85.0918 253.881 85.0918 253.874 85.0918C253.868 85.0918 253.861 85.0918 253.854 85.0918C253.847 85.0918 253.841 85.0918 253.834 85.0918C253.827 85.0918 253.82 85.0918 253.812 85.0918C253.805 85.0918 253.798 85.0918 253.791 85.0918C253.783 85.0918 253.776 85.0918 253.768 85.0918C253.761 85.0918 253.753 85.0918 253.745 85.0918C253.737 85.0918 253.73 85.0918 253.722 85.0918C253.714 85.0918 253.705 85.0918 253.697 85.0918C253.689 85.0918 253.681 85.0918 253.672 85.0918C253.664 85.0918 253.655 85.0918 253.647 85.0918C253.638 85.0918 253.629 85.0918 253.62 85.0918C253.612 85.0918 253.603 85.0918 253.594 85.0918C253.585 85.0918 253.575 85.0918 253.566 85.0918C253.557 85.0918 253.547 85.0918 253.538 85.0918C253.529 85.0918 253.519 85.0918 253.509 85.0918C253.499 85.0918 253.49 85.0918 253.48 85.0918C253.47 85.0918 253.46 85.0918 253.45 85.0918C253.44 85.0918 253.429 85.0918 253.419 85.0918C253.409 85.0918 253.398 85.0918 253.388 85.0918C253.377 85.0918 253.366 85.0918 253.355 85.0918C253.345 85.0918 253.334 85.0918 253.323 85.0918C253.312 85.0918 253.301 85.0918 253.289 85.0918C253.278 85.0918 253.267 85.0918 253.255 85.0918C253.244 85.0918 253.232 85.0918 253.221 85.0918C253.209 85.0918 253.197 85.0918 253.185 85.0918C253.174 85.0918 253.162 85.0918 253.149 85.0918C253.137 85.0918 253.125 85.0918 253.113 85.0918C253.1 85.0918 253.088 85.0918 253.075 85.0918C253.063 85.0918 253.05 85.0918 253.037 85.0918C253.025 85.0918 253.012 85.0918 252.999 85.0918C252.986 85.0918 252.973 85.0918 252.959 85.0918C252.946 85.0918 252.933 85.0918 252.919 85.0918C252.906 85.0918 252.892 85.0918 252.879 85.0918C252.865 85.0918 252.851 85.0918 252.837 85.0918C252.823 85.0918 252.809 85.0918 252.795 85.0918C252.781 85.0918 252.767 85.0918 252.752 85.0918C252.738 85.0918 252.724 85.0918 252.709 85.0918C252.694 85.0918 252.68 85.0918 252.665 85.0918C252.65 85.0918 252.635 85.0918 252.62 85.0918C252.605 85.0918 252.59 85.0918 252.575 85.0918C252.559 85.0918 252.544 85.0918 252.529 85.0918C252.513 85.0918 252.497 85.0918 252.482 85.0918C252.466 85.0918 252.45 85.0918 252.434 85.0918C252.418 85.0918 252.402 85.0918 252.386 85.0918C252.37 85.0918 252.353 85.0918 252.337 85.0918C252.32 85.0918 252.304 85.0918 252.287 85.0918C252.271 85.0918 252.254 85.0918 252.237 85.0918C252.22 85.0918 252.203 85.0918 252.186 85.0918C252.169 85.0918 252.152 85.0918 252.134 85.0918C252.117 85.0918 252.099 85.0918 252.082 85.0918C252.064 85.0918 252.046 85.0918 252.029 85.0918C252.011 85.0918 251.993 85.0918 251.975 85.0918C251.957 85.0918 251.938 85.0918 251.92 85.0918C251.902 85.0918 251.883 85.0918 251.865 85.0918C251.846 85.0918 251.828 85.0918 251.809 85.0918C251.79 85.0918 251.771 85.0918 251.752 85.0918C251.733 85.0918 251.714 85.0918 251.695 85.0918C251.675 85.0918 251.656 85.0918 251.636 85.0918C251.617 85.0918 251.597 85.0918 251.578 85.0918C251.558 85.0918 251.538 85.0918 251.518 85.0918C251.498 85.0918 251.478 85.0918 251.458 85.0918C251.437 85.0918 251.417 85.0918 251.397 85.0918C251.376 85.0918 251.356 85.0918 251.335 85.0918C251.314 85.0918 251.293 85.0918 251.272 85.0918C251.251 85.0918 251.23 85.0918 251.209 85.0918C251.188 85.0918 251.167 85.0918 251.145 85.0918C251.124 85.0918 251.102 85.0918 251.081 85.0918C251.059 85.0918 251.037 85.0918 251.015 85.0918C250.993 85.0918 250.971 85.0918 250.949 85.0918C250.927 85.0918 250.904 85.0918 250.882 85.0918C250.86 85.0918 250.837 85.0918 250.814 85.0918C250.792 85.0918 250.769 85.0918 250.746 85.0918C250.723 85.0918 250.7 85.0918 250.677 85.0918C250.654 85.0918 250.63 85.0918 250.607 85.0918C250.584 85.0918 250.56 85.0918 250.536 85.0918C250.513 85.0918 250.489 85.0918 250.465 85.0918C250.441 85.0918 250.417 85.0918 250.393 85.0918C250.369 85.0918 250.344 85.0918 250.32 85.0918C250.296 85.0918 250.271 85.0918 250.246 85.0918C250.222 85.0918 250.197 85.0918 250.172 85.0918C250.147 85.0918 250.122 85.0918 250.097 85.0918C250.072 85.0918 250.046 85.0918 250.021 85.0918C249.995 85.0918 249.97 85.0918 249.944 85.0918C249.919 85.0918 249.893 85.0918 249.867 85.0918C249.841 85.0918 249.815 85.0918 249.789 85.0918C249.762 85.0918 249.736 85.0918 249.71 85.0918C249.683 85.0918 249.657 85.0918 249.63 85.0918C249.603 85.0918 249.576 85.0918 249.549 85.0918C249.522 85.0918 249.495 85.0918 249.468 85.0918C249.441 85.0918 249.414 85.0918 249.386 85.0918C249.359 85.0918 249.331 85.0918 249.303 85.0918C249.276 85.0918 249.248 85.0918 249.22 85.0918C249.192 85.0918 249.164 85.0918 249.135 85.0918C249.107 85.0918 249.079 85.0918 249.05 85.0918C249.022 85.0918 248.993 85.0918 248.964 85.0918C248.935 85.0918 248.907 85.0918 248.878 85.0918C248.849 85.0918 248.819 85.0918 248.79 85.0918C248.761 85.0918 248.731 85.0918 248.702 85.0918C248.672 85.0918 248.643 85.0918 248.613 85.0918C248.583 85.0918 248.553 85.0918 248.523 85.0918C248.493 85.0918 248.463 85.0918 248.432 85.0918C248.402 85.0918 248.371 85.0918 248.341 85.0918C248.31 85.0918 248.279 85.0918 248.248 85.0918C248.218 85.0918 248.187 85.0918 248.155 85.0918C248.124 85.0918 248.093 85.0918 248.062 85.0918C248.03 85.0918 247.999 85.0918 247.967 85.0918C247.935 85.0918 247.903 85.0918 247.872 85.0918C247.84 85.0918 247.808 85.0918 247.775 85.0918C247.743 85.0918 247.711 85.0918 247.678 85.0918C247.646 85.0918 247.613 85.0918 247.58 85.0918C247.548 85.0918 247.515 85.0918 247.482 85.0918C247.449 85.0918 247.416 85.0918 247.382 85.0918C247.349 85.0918 247.316 85.0918 247.282 85.0918C247.248 85.0918 247.215 85.0918 247.181 85.0918C247.147 85.0918 247.113 85.0918 247.079 85.0918C247.045 85.0918 247.011 85.0918 246.976 85.0918C246.942 85.0918 246.907 85.0918 246.873 85.0918C246.838 85.0918 246.803 85.0918 246.768 85.0918C246.733 85.0918 246.698 85.0918 246.663 85.0918C246.628 85.0918 246.593 85.0918 246.557 85.0918C246.522 85.0918 246.486 85.0918 246.45 85.0918C246.415 85.0918 246.379 85.0918 246.343 85.0918C246.307 85.0918 246.27 85.0918 246.234 85.0918C246.198 85.0918 246.161 85.0918 246.125 85.0918C246.088 85.0918 246.052 85.0918 246.015 85.0918C245.978 85.0918 245.941 85.0918 245.904 85.0918C245.867 85.0918 245.829 85.0918 245.792 85.0918C245.754 85.0918 245.717 85.0918 245.679 85.0918C245.641 85.0918 245.604 85.0918 245.566 85.0918C245.528 85.0918 245.49 85.0918 245.451 85.0918C245.413 85.0918 245.375 85.0918 245.336 85.0918C245.298 85.0918 245.259 85.0918 245.22 85.0918C245.181 85.0918 245.142 85.0918 245.103 85.0918C245.064 85.0918 245.025 85.0918 244.986 85.0918C244.946 85.0918 244.907 85.0918 244.867 85.0918C244.827 85.0918 244.787 85.0918 244.748 85.0918C244.708 85.0918 244.667 85.0918 244.627 85.0918C244.587 85.0918 244.547 85.0918 244.506 85.0918C244.466 85.0918 244.425 85.0918 244.384 85.0918C244.343 85.0918 244.302 85.0918 244.261 85.0918C244.22 85.0918 244.179 85.0918 244.138 85.0918C244.096 85.0918 244.055 85.0918 244.013 85.0918C243.971 85.0918 243.93 85.0918 243.888 85.0918C243.846 85.0918 243.804 85.0918 243.761 85.0918C243.719 85.0918 243.677 85.0918 243.634 85.0918C243.592 85.0918 243.549 85.0918 243.506 85.0918C243.463 85.0918 243.42 85.0918 243.377 85.0918C243.334 85.0918 243.291 85.0918 243.247 85.0918C243.204 85.0918 243.16 85.0918 243.117 85.0918C243.073 85.0918 243.029 85.0918 242.985 85.0918C242.941 85.0918 242.897 85.0918 242.853 85.0918C242.809 85.0918 242.764 85.0918 242.72 85.0918C242.675 85.0918 242.63 85.0918 242.585 85.0918C242.541 85.0918 242.496 85.0918 242.45 85.0918C242.405 85.0918 242.36 85.0918 242.315 85.0918C242.269 85.0918 242.223 85.0918 242.178 85.0918C242.132 85.0918 242.086 85.0918 242.04 85.0918C241.994 85.0918 241.948 85.0918 241.901 85.0918C241.855 85.0918 241.809 85.0918 241.762 85.0918C241.715 85.0918 241.669 85.0918 241.622 85.0918C241.575 85.0918 241.528 85.0918 241.48 85.0918C241.433 85.0918 241.386 85.0918 241.338 85.0918C241.291 85.0918 241.243 85.0918 241.195 85.0918C241.147 85.0918 241.099 85.0918 241.051 85.0918C241.003 85.0918 240.955 85.0918 240.906 85.0918C240.858 85.0918 240.809 85.0918 240.761 85.0918C240.712 85.0918 240.663 85.0918 240.614 85.0918C240.565 85.0918 240.516 85.0918 240.467 85.0918C240.417 85.0918 240.368 85.0918 240.318 85.0918C240.268 85.0918 240.219 85.0918 240.169 85.0918C240.119 85.0918 240.069 85.0918 240.018 85.0918C239.968 85.0918 239.918 85.0918 239.867 85.0918C239.817 85.0918 239.766 85.0918 239.715 85.0918C239.664 85.0918 239.613 85.0918 239.562 85.0918C239.511 85.0918 239.46 85.0918 239.408 85.0918C239.357 85.0918 239.305 85.0918 239.253 85.0918C239.202 85.0918 239.15 85.0918 239.098 85.0918C239.045 85.0918 238.993 85.0918 238.941 85.0918C238.888 85.0918 238.836 85.0918 238.783 85.0918C238.731 85.0918 238.678 85.0918 238.625 85.0918C238.572 85.0918 238.519 85.0918 238.465 85.0918C238.412 85.0918 238.358 85.0918 238.305 85.0918C238.251 85.0918 238.197 85.0918 238.143 85.0918C238.09 85.0918 238.035 85.0918 237.981 85.0918C237.927 85.0918 237.873 85.0918 237.818 85.0918C237.763 85.0918 237.709 85.0918 237.654 85.0918C237.599 85.0918 237.544 85.0918 237.489 85.0918C237.434 85.0918 237.378 85.0918 237.323 85.0918C237.267 85.0918 237.212 85.0918 237.156 85.0918C237.1 85.0918 237.044 85.0918 236.988 85.0918C236.932 85.0918 236.876 85.0918 236.819 85.0918C236.763 85.0918 236.706 85.0918 236.649 85.0918C236.593 85.0918 236.536 85.0918 236.479 85.0918C236.422 85.0918 236.364 85.0918 236.307 85.0918C236.25 85.0918 236.192 85.0918 236.134 85.0918C236.077 85.0918 236.019 85.0918 235.961 85.0918C235.903 85.0918 235.844 85.0918 235.786 85.0918C235.728 85.0918 235.669 85.0918 235.611 85.0918C235.552 85.0918 235.493 85.0918 235.434 85.0918C235.375 85.0918 235.316 85.0918 235.257 85.0918C235.197 85.0918 235.138 85.0918 235.078 85.0918C235.019 85.0918 234.959 85.0918 234.899 85.0918C234.839 85.0918 234.779 85.0918 234.719 85.0918C234.659 85.0918 234.598 85.0918 234.537 85.0918C234.477 85.0918 234.416 85.0918 234.355 85.0918C234.294 85.0918 234.233 85.0918 234.172 85.0918C234.111 85.0918 234.049 85.0918 233.988 85.0918C233.926 85.0918 233.865 85.0918 233.803 85.0918C233.741 85.0918 233.679 85.0918 233.617 85.0918C233.554 85.0918 233.492 85.0918 233.429 85.0918C233.367 85.0918 233.304 85.0918 233.241 85.0918C233.179 85.0918 233.116 85.0918 233.052 85.0918C232.989 85.0918 232.926 85.0918 232.862 85.0918C232.799 85.0918 232.735 85.0918 232.671 85.0918C232.607 85.0918 232.543 85.0918 232.479 85.0918C232.415 85.0918 232.351 85.0918 232.286 85.0918C232.222 85.0918 232.157 85.0918 232.092 85.0918C232.027 85.0918 231.962 85.0918 231.897 85.0918C231.832 85.0918 231.767 85.0918 231.701 85.0918C231.636 85.0918 231.57 85.0918 231.504 85.0918C231.439 85.0918 231.373 85.0918 231.306 85.0918C231.24 85.0918 231.174 85.0918 231.107 85.0918C231.041 85.0918 230.974 85.0918 230.908 85.0918C230.841 85.0918 230.774 85.0918 230.707 85.0918C230.639 85.0918 230.572 85.0918 230.505 85.0918C230.437 85.0918 230.369 85.0918 230.302 85.0918C230.234 85.0918 230.166 85.0918 230.098 85.0918C230.03 85.0918 229.961 85.0918 229.893 85.0918C229.824 85.0918 229.756 85.0918 229.687 85.0918C229.618 85.0918 229.549 85.0918 229.48 85.0918C229.411 85.0918 229.341 85.0918 229.272 85.0918C229.202 85.0918 229.133 85.0918 229.063 85.0918C228.993 85.0918 228.923 85.0918 228.853 85.0918C228.783 85.0918 228.712 85.0918 228.642 85.0918C228.571 85.0918 228.5 85.0918 228.43 85.0918C228.359 85.0918 228.288 85.0918 228.216 85.0918C228.145 85.0918 228.074 85.0918 228.002 85.0918C227.931 85.0918 227.859 85.0918 227.787 85.0918C227.715 85.0918 227.643 85.0918 227.571 85.0918C227.499 85.0918 227.426 85.0918 227.354 85.0918C227.281 85.0918 227.209 85.0918 227.136 85.0918C227.063 85.0918 226.99 85.0918 226.916 85.0918C226.843 85.0918 226.77 85.0918 226.696 85.0918C226.623 85.0918 226.549 85.0918 226.475 85.0918C226.401 85.0918 226.327 85.0918 226.252 85.0918C226.178 85.0918 226.104 85.0918 226.029 85.0918C225.954 85.0918 225.88 85.0918 225.805 85.0918C225.73 85.0918 225.655 85.0918 225.579 85.0918C225.504 85.0918 225.428 85.0918 225.353 85.0918C225.277 85.0918 225.201 85.0918 225.125 85.0918C225.049 85.0918 224.973 85.0918 224.896 85.0918C224.82 85.0918 224.744 85.0918 224.667 85.0918C224.59 85.0918 224.513 85.0918 224.436 85.0918C224.359 85.0918 224.282 85.0918 224.204 85.0918C224.127 85.0918 224.049 85.0918 223.972 85.0918C223.894 85.0918 223.816 85.0918 223.738 85.0918C223.66 85.0918 223.581 85.0918 223.503 85.0918C223.424 85.0918 223.346 85.0918 223.267 85.0918C223.188 85.0918 223.109 85.0918 223.03 85.0918C222.951 85.0918 222.871 85.0918 222.792 85.0918C222.712 85.0918 222.632 85.0918 222.553 85.0918C222.473 85.0918 222.393 85.0918 222.312 85.0918C222.232 85.0918 222.152 85.0918 222.071 85.0918C221.99 85.0918 221.91 85.0918 221.829 85.0918C221.748 85.0918 221.667 85.0918 221.585 85.0918C221.504 85.0918 221.422 85.0918 221.341 85.0918C221.259 85.0918 221.177 85.0918 221.095 85.0918C221.013 85.0918 220.931 85.0918 220.849 85.0918C220.766 85.0918 220.684 85.0918 220.601 85.0918C220.518 85.0918 220.435 85.0918 220.352 85.0918C220.269 85.0918 220.186 85.0918 220.102 85.0918C220.019 85.0918 219.935 85.0918 219.851 85.0918C219.767 85.0918 219.683 85.0918 219.599 85.0918C219.515 85.0918 219.431 85.0918 219.346 85.0918C219.261 85.0918 219.177 85.0918 219.092 85.0918C219.007 85.0918 218.922 85.0918 218.836 85.0918C218.751 85.0918 218.666 85.0918 218.58 85.0918C218.494 85.0918 218.409 85.0918 218.323 85.0918C218.237 85.0918 218.15 85.0918 218.064 85.0918C217.978 85.0918 217.891 85.0918 217.804 85.0918C217.718 85.0918 217.631 85.0918 217.543 85.0918C217.456 85.0918 217.369 85.0918 217.282 85.0918C217.194 85.0918 217.106 85.0918 217.019 85.0918C216.931 85.0918 216.843 85.0918 216.755 85.0918C216.666 85.0918 216.578 85.0918 216.489 85.0918C216.401 85.0918 216.312 85.0918 216.223 85.0918C216.134 85.0918 216.045 85.0918 215.956 85.0918C215.866 85.0918 215.777 85.0918 215.687 85.0918C215.597 85.0918 215.508 85.0918 215.418 85.0918C215.328 85.0918 215.237 85.0918 215.147 85.0918C215.056 85.0918 214.966 85.0918 214.875 85.0918C214.784 85.0918 214.693 85.0918 214.602 85.0918C214.511 85.0918 214.42 85.0918 214.328 85.0918C214.236 85.0918 214.145 85.0918 214.053 85.0918C213.961 85.0918 213.869 85.0918 213.776 85.0918C213.684 85.0918 213.592 85.0918 213.499 85.0918C213.406 85.0918 213.313 85.0918 213.22 85.0918C213.127 85.0918 213.034 85.0918 212.941 85.0918C212.847 85.0918 212.754 85.0918 212.66 85.0918C212.566 85.0918 212.472 85.0918 212.378 85.0918C212.284 85.0918 212.189 85.0918 212.095 85.0918C212 85.0918 211.906 85.0918 211.811 85.0918C211.716 85.0918 211.621 85.0918 211.525 85.0918C211.43 85.0918 211.335 85.0918 211.239 85.0918C211.143 85.0918 211.047 85.0918 210.951 85.0918C210.855 85.0918 210.759 85.0918 210.663 85.0918C210.566 85.0918 210.469 85.0918 210.373 85.0918C210.276 85.0918 210.179 85.0918 210.082 85.0918C209.984 85.0918 209.887 85.0918 209.789 85.0918C209.692 85.0918 209.594 85.0918 209.496 85.0918C209.398 85.0918 209.3 85.0918 209.202 85.0918C209.103 85.0918 209.005 85.0918 208.906 85.0918C208.807 85.0918 208.708 85.0918 208.609 85.0918C208.51 85.0918 208.411 85.0918 208.311 85.0918C208.212 85.0918 208.112 85.0918 208.012 85.0918C207.912 85.0918 207.812 85.0918 207.712 85.0918C207.612 85.0918 207.511 85.0918 207.41 85.0918C207.31 85.0918 207.209 85.0918 207.108 85.0918C207.007 85.0918 206.906 85.0918 206.804 85.0918C206.703 85.0918 206.601 85.0918 206.499 85.0918C206.397 85.0918 206.295 85.0918 206.193 85.0918C206.091 85.0918 205.989 85.0918 205.886 85.0918C205.783 85.0918 205.681 85.0918 205.578 85.0918C205.475 85.0918 205.371 85.0918 205.268 85.0918C205.165 85.0918 205.061 85.0918 204.957 85.0918C204.854 85.0918 204.75 85.0918 204.645 85.0918C204.541 85.0918 204.437 85.0918 204.332 85.0918C204.228 85.0918 204.123 85.0918 204.018 85.0918C203.913 85.0918 203.808 85.0918 203.703 85.0918C203.597 85.0918 203.492 85.0918 203.386 85.0918C203.28 85.0918 203.174 85.0918 203.068 85.0918C202.962 85.0918 202.856 85.0918 202.749 85.0918C202.643 85.0918 202.536 85.0918 202.429 85.0918C202.322 85.0918 202.215 85.0918 202.108 85.0918C202 85.0918 201.893 85.0918 201.785 85.0918C201.677 85.0918 201.57 85.0918 201.461 85.0918C201.353 85.0918 201.245 85.0918 201.137 85.0918C201.028 85.0918 200.919 85.0918 200.81 85.0918C200.701 85.0918 200.592 85.0918 200.483 85.0918C200.374 85.0918 200.264 85.0918 200.155 85.0918C200.045 85.0918 199.935 85.0918 199.825 85.0918C199.715 85.0918 199.604 85.0918 199.494 85.0918C199.383 85.0918 199.273 85.0918 199.162 85.0918C199.051 85.0918 198.94 85.0918 198.829 85.0918C198.717 85.0918 198.606 85.0918 198.494 85.0918C198.382 85.0918 198.27 85.0918 198.158 85.0918C198.046 85.0918 197.934 85.0918 197.821 85.0918C197.709 85.0918 197.596 85.0918 197.483 85.0918C197.37 85.0918 197.257 85.0918 197.144 85.0918C197.03 85.0918 196.917 85.0918 196.803 85.0918C196.689 85.0918 196.576 85.0918 196.461 85.0918C196.347 85.0918 196.233 85.0918 196.118 85.0918C196.004 85.0918 195.889 85.0918 195.774 85.0918C195.659 85.0918 195.544 85.0918 195.429 85.0918C195.313 85.0918 195.198 85.0918 195.082 85.0918C194.966 85.0918 194.85 85.0918 194.734 85.0918C194.618 85.0918 194.502 85.0918 194.385 85.0918C194.268 85.0918 194.152 85.0918 194.035 85.0918C193.918 85.0918 193.8 85.0918 193.683 85.0918C193.566 85.0918 193.448 85.0918 193.33 85.0918C193.212 85.0918 193.094 85.0918 192.976 85.0918C192.858 85.0918 192.74 85.0918 192.621 85.0918C192.502 85.0918 192.383 85.0918 192.264 85.0918C192.145 85.0918 192.026 85.0918 191.907 85.0918C191.787 85.0918 191.668 85.0918 191.548 85.0918C191.428 85.0918 191.308 85.0918 191.187 85.0918C191.067 85.0918 190.947 85.0918 190.826 85.0918C190.705 85.0918 190.584 85.0918 190.463 85.0918C190.342 85.0918 190.221 85.0918 190.099 85.0918C189.978 85.0918 189.856 85.0918 189.734 85.0918C189.612 85.0918 189.49 85.0918 189.368 85.0918C189.245 85.0918 189.123 85.0918 189 85.0918C188.877 85.0918 188.754 85.0918 188.631 85.0918C188.508 85.0918 188.384 85.0918 188.261 85.0918C188.137 85.0918 188.013 85.0918 187.889 85.0918C187.765 85.0918 187.641 85.0918 187.516 85.0918C187.392 85.0918 187.267 85.0918 187.142 85.0918C187.018 85.0918 186.892 85.0918 186.767 85.0918C186.642 85.0918 186.516 85.0918 186.391 85.0918C186.265 85.0918 186.139 85.0918 186.013 85.0918C185.887 85.0918 185.76 85.0918 185.634 85.0918C185.507 85.0918 185.38 85.0918 185.253 85.0918C185.126 85.0918 184.999 85.0918 184.872 85.0918C184.744 85.0918 184.617 85.0918 184.489 85.0918C184.361 85.0918 184.233 85.0918 184.105 85.0918C183.977 85.0918 183.848 85.0918 183.719 85.0918C183.591 85.0918 183.462 85.0918 183.333 85.0918C183.204 85.0918 183.074 85.0918 182.945 85.0918C182.815 85.0918 182.685 85.0918 182.555 85.0918C182.425 85.0918 182.295 85.0918 182.165 85.0918C182.034 85.0918 181.904 85.0918 181.773 85.0918C181.642 85.0918 181.511 85.0918 181.38 85.0918C181.249 85.0918 181.117 85.0918 180.986 85.0918C180.854 85.0918 180.722 85.0918 180.59 85.0918C180.458 85.0918 180.325 85.0918 180.193 85.0918C180.06 85.0918 179.928 85.0918 179.795 85.0918C179.662 85.0918 179.528 85.0918 179.395 85.0918C179.262 85.0918 179.128 85.0918 178.994 85.0918C178.86 85.0918 178.726 85.0918 178.592 85.0918C178.458 85.0918 178.323 85.0918 178.189 85.0918C178.054 85.0918 177.919 85.0918 177.784 85.0918C177.649 85.0918 177.513 85.0918 177.378 85.0918C177.242 85.0918 177.106 85.0918 176.97 85.0918C176.834 85.0918 176.698 85.0918 176.562 85.0918C176.425 85.0918 176.289 85.0918 176.152 85.0918C176.015 85.0918 175.878 85.0918 175.74 85.0918C175.603 85.0918 175.466 85.0918 175.328 85.0918C175.19 85.0918 175.052 85.0918 174.914 85.0918C174.776 85.0918 174.637 85.0918 174.499 85.0918C174.36 85.0918 174.221 85.0918 174.082 85.0918C173.943 85.0918 173.804 85.0918 173.664 85.0918C173.525 85.0918 173.385 85.0918 173.245 85.0918C173.105 85.0918 172.965 85.0918 172.825 85.0918C172.684 85.0918 172.544 85.0918 172.403 85.0918C172.262 85.0918 172.121 85.0918 171.98 85.0918C171.838 85.0918 171.697 85.0918 171.555 85.0918C171.413 85.0918 171.272 85.0918 171.129 85.0918C170.987 85.0918 170.845 85.0918 170.702 85.0918C170.56 85.0918 170.417 85.0918 170.274 85.0918C170.131 85.0918 169.987 85.0918 169.844 85.0918C169.7 85.0918 169.557 85.0918 169.413 85.0918C169.269 85.0918 169.125 85.0918 168.98 85.0918C168.836 85.0918 168.691 85.0918 168.547 85.0918C168.402 85.0918 168.257 85.0918 168.111 85.0918C167.966 85.0918 167.821 85.0918 167.675 85.0918C167.529 85.0918 167.383 85.0918 167.237 85.0918C167.091 85.0918 166.945 85.0918 166.798 85.0918C166.651 85.0918 166.504 85.0918 166.357 85.0918C166.21 85.0918 166.063 85.0918 165.916 85.0918C165.768 85.0918 165.62 85.0918 165.472 85.0918C165.324 85.0918 165.176 85.0918 165.028 85.0918C164.879 85.0918 164.731 85.0918 164.582 85.0918C164.433 85.0918 164.284 85.0918 164.135 85.0918C163.985 85.0918 163.836 85.0918 163.686 85.0918C163.536 85.0918 163.386 85.0918 163.236 85.0918C163.086 85.0918 162.935 85.0918 162.785 85.0918C162.634 85.0918 162.483 85.0918 162.332 85.0918C162.181 85.0918 162.029 85.0918 161.878 85.0918C161.726 85.0918 161.574 85.0918 161.422 85.0918C161.27 85.0918 161.118 85.0918 160.965 85.0918C160.813 85.0918 160.66 85.0918 160.507 85.0918C160.354 85.0918 160.201 85.0918 160.048 85.0918C159.894 85.0918 159.741 85.0918 159.587 85.0918C159.433 85.0918 159.279 85.0918 159.124 85.0918C158.97 85.0918 158.816 85.0918 158.661 85.0918C158.506 85.0918 158.351 85.0918 158.196 85.0918C158.04 85.0918 157.885 85.0918 157.729 85.0918C157.574 85.0918 157.418 85.0918 157.261 85.0918C157.105 85.0918 156.949 85.0918 156.792 85.0918C156.636 85.0918 156.479 85.0918 156.322 85.0918C156.165 85.0918 156.007 85.0918 155.85 85.0918C155.692 85.0918 155.534 85.0918 155.376 85.0918C155.218 85.0918 155.06 85.0918 154.902 85.0918C154.743 85.0918 154.584 85.0918 154.426 85.0918C154.267 85.0918 154.107 85.0918 153.948 85.0918C153.789 85.0918 153.629 85.0918 153.469 85.0918C153.309 85.0918 153.149 85.0918 152.989 85.0918C152.828 85.0918 152.668 85.0918 152.507 85.0918C152.346 85.0918 152.185 85.0918 152.024 85.0918C151.863 85.0918 151.701 85.0918 151.539 85.0918C151.378 85.0918 151.216 85.0918 151.053 85.0918C150.891 85.0918 150.729 85.0918 150.566 85.0918C150.404 85.0918 150.241 85.0918 150.077 85.0918C149.914 85.0918 149.751 85.0918 149.587 85.0918C149.424 85.0918 149.26 85.0918 149.096 85.0918C148.932 85.0918 148.767 85.0918 148.603 85.0918C148.438 85.0918 148.273 85.0918 148.108 85.0918C147.943 85.0918 147.778 85.0918 147.613 85.0918C147.447 85.0918 147.281 85.0918 147.115 85.0918C146.949 85.0918 146.783 85.0918 146.617 85.0918C146.45 85.0918 146.284 85.0918 146.117 85.0918C145.95 85.0918 145.783 85.0918 145.615 85.0918C145.448 85.0918 145.28 85.0918 145.112 85.0918C144.945 85.0918 144.776 85.0918 144.608 85.0918C144.44 85.0918 144.271 85.0918 144.102 85.0918C143.934 85.0918 143.765 85.0918 143.595 85.0918C143.426 85.0918 143.256 85.0918 143.087 85.0918C142.917 85.0918 142.747 85.0918 142.577 85.0918C142.406 85.0918 142.236 85.0918 142.065 85.0918C141.894 85.0918 141.724 85.0918 141.552 85.0918C141.381 85.0918 141.21 85.0918 141.038 85.0918C140.866 85.0918 140.694 85.0918 140.522 85.0918C140.35 85.0918 140.178 85.0918 140.005 85.0918C139.832 85.0918 139.659 85.0918 139.486 85.0918C139.313 85.0918 139.14 85.0918 138.966 85.0918C138.793 85.0918 138.619 85.0918 138.445 85.0918C138.271 85.0918 138.096 85.0918 137.922 85.0918C137.747 85.0918 137.572 85.0918 137.397 85.0918C137.222 85.0918 137.047 85.0918 136.871 85.0918C136.696 85.0918 136.52 85.0918 136.344 85.0918C136.168 85.0918 135.992 85.0918 135.815 85.0918C135.639 85.0918 135.462 85.0918 135.285 85.0918C135.108 85.0918 134.931 85.0918 134.753 85.0918C134.576 85.0918 134.398 85.0918 134.22 85.0918C134.042 85.0918 133.864 85.0918 133.686 85.0918C133.507 85.0918 133.328 85.0918 133.149 85.0918C132.971 85.0918 132.791 85.0918 132.612 85.0918C132.433 85.0918 132.253 85.0918 132.073 85.0918C131.893 85.0918 131.713 85.0918 131.532 85.0918C131.352 85.0918 131.171 85.0918 130.991 85.0918C130.81 85.0918 130.628 85.0918 130.447 85.0918C130.266 85.0918 130.084 85.0918 129.902 85.0918C129.72 85.0918 129.538 85.0918 129.356 85.0918C129.173 85.0918 128.991 85.0918 128.808 85.0918C128.625 85.0918 128.442 85.0918 128.259 85.0918C128.075 85.0918 127.892 85.0918 127.708 85.0918C127.524 85.0918 127.34 85.0918 127.156 85.0918C126.971 85.0918 126.787 85.0918 126.602 85.0918C126.417 85.0918 126.232 85.0918 126.047 85.0918C125.861 85.0918 125.676 85.0918 125.49 85.0918C125.304 85.0918 125.118 85.0918 124.932 85.0918V86.0918Z" fill="#2B2C3D"/>
<defs>
<clipPath id="clip0_64_153">
<rect width="59.1832" height="59.1832" fill="white" transform="translate(271.557 12.626)"/>
</clipPath>
<clipPath id="clip1_64_153">
<rect width="48.4671" height="48.1572" fill="white" transform="translate(277.216 107.434)"/>
</clipPath>
</defs>
</svg>
