<svg width="368" height="282" viewBox="0 0 368 282" fill="none" xmlns="http://www.w3.org/2000/svg">
<rect x="1" y="1" width="366" height="262.779" rx="21" fill="#191928"/>
<rect x="1" y="1" width="366" height="262.779" rx="21" stroke="#2B2C3D" stroke-width="2"/>
<circle cx="28.5" cy="22.5" r="7.5" fill="#2B2C3D"/>
<circle cx="51.5" cy="22.5" r="7.5" fill="#2B2C3D"/>
<circle cx="74.5" cy="22.5" r="7.5" fill="#2B2C3D"/>
<path d="M367 45.1299V260C367 271.598 357.598 281 346 281H22C10.402 281 1 271.598 1 260V45.1299H367Z" fill="#191928"/>
<path d="M367 45.1299V260C367 271.598 357.598 281 346 281H22C10.402 281 1 271.598 1 260V45.1299H367Z" stroke="#2B2C3D" stroke-width="2"/>
<g opacity="0.7">
<path d="M28.375 88.8799V64.7393H29.9922V88.8799H28.375ZM28.457 85.3643C27.5117 85.3643 26.625 85.2861 25.7969 85.1299C24.9766 84.9814 24.2148 84.7549 23.5117 84.4502L23.8164 82.083C24.6758 82.4502 25.5039 82.7314 26.3008 82.9268C27.1055 83.1143 27.8867 83.208 28.6445 83.208C29.7383 83.208 30.5508 83.0166 31.082 82.6338C31.6133 82.251 31.8789 81.6689 31.8789 80.8877C31.8789 79.8955 31.3711 79.1689 30.3555 78.708L27.4727 77.3955C26.3398 76.8799 25.4688 76.2588 24.8594 75.5322C24.2578 74.8057 23.957 73.9033 23.957 72.8252C23.957 71.3721 24.3945 70.2471 25.2695 69.4502C26.1445 68.6533 27.3828 68.2549 28.9844 68.2549C30.1016 68.2549 31.0898 68.4189 31.9492 68.7471C32.8086 69.0752 33.6367 69.6104 34.4336 70.3525L32.793 72.0166C32.1055 71.4541 31.4609 71.0479 30.8594 70.7979C30.2656 70.54 29.6445 70.4111 28.9961 70.4111C28.1914 70.4111 27.5664 70.6064 27.1211 70.9971C26.6836 71.3799 26.4648 71.9502 26.4648 72.708C26.4648 73.2471 26.6094 73.6885 26.8984 74.0322C27.1875 74.3682 27.6133 74.6689 28.1758 74.9346L30.6133 76.083C31.8477 76.6611 32.7852 77.3135 33.4258 78.04C34.0664 78.7666 34.3867 79.7002 34.3867 80.8408C34.3867 82.3486 33.8945 83.4814 32.9102 84.2393C31.9336 84.9893 30.4492 85.3643 28.457 85.3643Z" fill="#8BB5FA"/>
<path d="M59.2309 85.2471L59.0669 81.5674L58.7388 80.5361V77.3252C58.7388 76.4971 58.4458 75.8916 57.8598 75.5088C57.2817 75.1182 56.4184 74.9072 55.27 74.876L52.2934 74.7939L52.5278 72.5908L55.0356 72.626C57.0903 72.6572 58.6138 73.1025 59.6059 73.9619C60.6059 74.8135 61.1059 76.0596 61.1059 77.7002V82.8799L63.2153 83.1377V85.1299L59.2309 85.2471ZM54.8481 85.3643C53.5513 85.3643 52.5473 85.0518 51.8364 84.4268C51.1255 83.8018 50.77 82.9189 50.77 81.7783C50.77 80.4658 51.2583 79.458 52.2348 78.7549C53.2192 78.0518 54.6059 77.7002 56.395 77.7002C57.1372 77.7002 57.7973 77.7471 58.3755 77.8408C58.9614 77.9268 59.4809 78.0596 59.9341 78.2393L59.4184 79.9268C58.895 79.8096 58.3833 79.7432 57.8833 79.7275C57.3833 79.7041 56.8716 79.6924 56.3481 79.6924C54.1919 79.6924 53.1138 80.3486 53.1138 81.6611C53.1138 82.208 53.2973 82.6299 53.6645 82.9268C54.0395 83.2236 54.5669 83.3721 55.2466 83.3721C56.02 83.3721 56.6645 83.2393 57.1802 82.9736C57.7036 82.708 58.0942 82.3682 58.352 81.9541C58.6098 81.54 58.7388 81.1143 58.7388 80.6768V79.3174L59.4653 82.5049H58.4809L58.8794 82.1299C58.8794 82.8486 58.7114 83.4502 58.3755 83.9346C58.0473 84.4111 57.5825 84.7705 56.9809 85.0127C56.3794 85.2471 55.6684 85.3643 54.8481 85.3643ZM73.0769 85.1299V77.0439C73.0769 76.2939 72.8816 75.7158 72.4909 75.3096C72.1003 74.9033 71.5534 74.7002 70.8503 74.7002C68.8972 74.7002 67.9206 75.8486 67.9206 78.1455L67.1941 74.958H68.155C68.2253 74.1221 68.53 73.501 69.0691 73.0947C69.6081 72.6807 70.3972 72.4736 71.4362 72.4736C72.7487 72.4736 73.7644 72.8721 74.4831 73.6689C75.2019 74.4658 75.5612 75.5908 75.5612 77.0439V85.1299H73.0769ZM65.4362 85.1299V72.708H67.6862L67.9206 75.333V85.1299H65.4362ZM85.5166 85.3643C83.3994 85.3643 81.7627 84.8096 80.6064 83.7002C79.458 82.583 78.8838 80.9814 78.8838 78.8955C78.8838 76.8643 79.4267 75.2861 80.5127 74.1611C81.6064 73.0361 83.165 72.4736 85.1884 72.4736C86.3994 72.4736 87.4345 72.7002 88.2939 73.1533C89.1611 73.5986 89.7783 74.2314 90.1455 75.0518L88.2353 76.4932C87.8838 75.9229 87.4345 75.4814 86.8877 75.1689C86.3408 74.8564 85.7431 74.7002 85.0947 74.7002C83.9228 74.7002 83.0127 75.0557 82.3642 75.7666C81.7158 76.4697 81.3916 77.4736 81.3916 78.7783C81.3916 80.1924 81.7705 81.2744 82.5283 82.0244C83.2939 82.7666 84.3838 83.1377 85.7978 83.1377C86.3759 83.1377 86.9541 83.1104 87.5322 83.0557C88.1103 83.001 88.6728 82.9268 89.2197 82.833L89.5009 85.0127C88.8603 85.1533 88.1963 85.2471 87.5088 85.2939C86.8291 85.3408 86.165 85.3643 85.5166 85.3643ZM100.722 85.1299V77.0439C100.722 76.2549 100.527 75.6494 100.136 75.2275C99.7453 74.7979 99.1984 74.583 98.4953 74.583C96.5422 74.583 95.5656 75.7705 95.5656 78.1455L94.8391 74.958H95.8C95.8703 74.1221 96.175 73.501 96.7141 73.0947C97.2531 72.6807 98.0422 72.4736 99.0813 72.4736C100.394 72.4736 101.409 72.8721 102.128 73.6689C102.847 74.4658 103.206 75.5908 103.206 77.0439V85.1299H100.722ZM93.0813 85.1299V67.5518H95.5656V85.1299H93.0813ZM111.966 85.3643C110.247 85.3643 108.912 84.8018 107.958 83.6768C107.005 82.5518 106.529 80.9658 106.529 78.9189C106.529 76.8643 107.005 75.2783 107.958 74.1611C108.912 73.0361 110.247 72.4736 111.966 72.4736C113.693 72.4736 115.029 73.0361 115.974 74.1611C116.927 75.2783 117.404 76.8643 117.404 78.9189C117.404 80.9658 116.927 82.5518 115.974 83.6768C115.029 84.8018 113.693 85.3643 111.966 85.3643ZM111.966 83.1377C112.88 83.1377 113.583 82.7705 114.076 82.0361C114.576 81.3018 114.826 80.2627 114.826 78.9189C114.826 77.5674 114.576 76.5283 114.076 75.8018C113.583 75.0674 112.88 74.7002 111.966 74.7002C111.052 74.7002 110.345 75.0674 109.845 75.8018C109.353 76.5283 109.107 77.5674 109.107 78.9189C109.107 80.2627 109.353 81.3018 109.845 82.0361C110.345 82.7705 111.052 83.1377 111.966 83.1377ZM124.945 79.7861L124.218 75.8955H125.179C125.32 73.6143 126.461 72.4736 128.601 72.4736C129.882 72.4736 130.812 72.8408 131.39 73.5752C131.968 74.3096 132.257 75.4971 132.257 77.1377H129.797C129.797 76.2314 129.66 75.5791 129.386 75.1807C129.121 74.7822 128.687 74.583 128.086 74.583C127.031 74.583 126.242 75.0361 125.718 75.9424C125.203 76.8408 124.945 78.1221 124.945 79.7861ZM119.695 85.1299V82.9502H127.992V85.1299H119.695ZM122.461 85.1299V72.708H124.476L124.945 76.2705V85.1299H122.461ZM120.164 74.8877V72.708H124.312L124.547 74.8877H120.164Z" fill="#89B4FA"/>
<path d="M153.012 85.1299V73.4111H155.496V85.1299H153.012ZM148.277 85.1299V82.9502H153.246V85.1299H148.277ZM155.262 85.1299V82.9502H159.317V85.1299H155.262ZM148.981 74.8877V72.708H155.496V74.8877H148.981ZM154.172 70.7393C153.695 70.7393 153.285 70.5713 152.942 70.2354C152.606 69.8916 152.438 69.4814 152.438 69.0049C152.438 68.5205 152.606 68.1104 152.942 67.7744C153.285 67.4385 153.695 67.2705 154.172 67.2705C154.656 67.2705 155.067 67.4385 155.402 67.7744C155.738 68.1104 155.906 68.5205 155.906 69.0049C155.906 69.4814 155.738 69.8916 155.402 70.2354C155.067 70.5713 154.656 70.7393 154.172 70.7393ZM169.834 85.1299V77.0439C169.834 76.2939 169.639 75.7158 169.248 75.3096C168.858 74.9033 168.311 74.7002 167.608 74.7002C165.655 74.7002 164.678 75.8486 164.678 78.1455L163.952 74.958H164.913C164.983 74.1221 165.288 73.501 165.827 73.0947C166.366 72.6807 167.155 72.4736 168.194 72.4736C169.506 72.4736 170.522 72.8721 171.241 73.6689C171.959 74.4658 172.319 75.5908 172.319 77.0439V85.1299H169.834ZM162.194 85.1299V72.708H164.444L164.678 75.333V85.1299H162.194ZM180.657 85.1299V73.4111H183.141V85.1299H180.657ZM175.923 85.1299V82.9502H180.891V85.1299H175.923ZM182.907 85.1299V82.9502H186.962V85.1299H182.907ZM176.626 74.8877V72.708H183.141V74.8877H176.626ZM181.817 70.7393C181.34 70.7393 180.93 70.5713 180.587 70.2354C180.251 69.8916 180.083 69.4814 180.083 69.0049C180.083 68.5205 180.251 68.1104 180.587 67.7744C180.93 67.4385 181.34 67.2705 181.817 67.2705C182.301 67.2705 182.712 67.4385 183.048 67.7744C183.383 68.1104 183.551 68.5205 183.551 69.0049C183.551 69.4814 183.383 69.8916 183.048 70.2354C182.712 70.5713 182.301 70.7393 181.817 70.7393ZM197.151 85.3643C195.268 85.3643 193.905 84.9736 193.061 84.1924C192.225 83.4111 191.807 82.1611 191.807 80.4424V78.333H194.292V80.3252C194.292 81.3096 194.53 82.0244 195.007 82.4697C195.491 82.915 196.284 83.1377 197.386 83.1377C197.776 83.1377 198.19 83.1182 198.628 83.0791C199.065 83.0322 199.565 82.9736 200.128 82.9033L200.409 85.083C199.862 85.1768 199.327 85.2471 198.804 85.2939C198.288 85.3408 197.737 85.3643 197.151 85.3643ZM191.807 79.2705V68.958H194.292V79.2705H191.807ZM188.69 74.8877V72.708H199.94V74.8877H188.69Z" fill="#CED7F3"/>
</g>
<g opacity="0.7">
<path d="M28.375 119.88V95.7393H29.9922V119.88H28.375ZM28.457 116.364C27.5117 116.364 26.625 116.286 25.7969 116.13C24.9766 115.981 24.2148 115.755 23.5117 115.45L23.8164 113.083C24.6758 113.45 25.5039 113.731 26.3008 113.927C27.1055 114.114 27.8867 114.208 28.6445 114.208C29.7383 114.208 30.5508 114.017 31.082 113.634C31.6133 113.251 31.8789 112.669 31.8789 111.888C31.8789 110.896 31.3711 110.169 30.3555 109.708L27.4727 108.396C26.3398 107.88 25.4688 107.259 24.8594 106.532C24.2578 105.806 23.957 104.903 23.957 103.825C23.957 102.372 24.3945 101.247 25.2695 100.45C26.1445 99.6533 27.3828 99.2549 28.9844 99.2549C30.1016 99.2549 31.0898 99.4189 31.9492 99.7471C32.8086 100.075 33.6367 100.61 34.4336 101.353L32.793 103.017C32.1055 102.454 31.4609 102.048 30.8594 101.798C30.2656 101.54 29.6445 101.411 28.9961 101.411C28.1914 101.411 27.5664 101.606 27.1211 101.997C26.6836 102.38 26.4648 102.95 26.4648 103.708C26.4648 104.247 26.6094 104.688 26.8984 105.032C27.1875 105.368 27.6133 105.669 28.1758 105.935L30.6133 107.083C31.8477 107.661 32.7852 108.313 33.4258 109.04C34.0664 109.767 34.3867 110.7 34.3867 111.841C34.3867 113.349 33.8945 114.481 32.9102 115.239C31.9336 115.989 30.4492 116.364 28.457 116.364Z" fill="#8BB5FA"/>
<path d="M59.2309 116.247L59.0669 112.567L58.7388 111.536V108.325C58.7388 107.497 58.4458 106.892 57.8598 106.509C57.2817 106.118 56.4184 105.907 55.27 105.876L52.2934 105.794L52.5278 103.591L55.0356 103.626C57.0903 103.657 58.6138 104.103 59.6059 104.962C60.6059 105.813 61.1059 107.06 61.1059 108.7V113.88L63.2153 114.138V116.13L59.2309 116.247ZM54.8481 116.364C53.5513 116.364 52.5473 116.052 51.8364 115.427C51.1255 114.802 50.77 113.919 50.77 112.778C50.77 111.466 51.2583 110.458 52.2348 109.755C53.2192 109.052 54.6059 108.7 56.395 108.7C57.1372 108.7 57.7973 108.747 58.3755 108.841C58.9614 108.927 59.4809 109.06 59.9341 109.239L59.4184 110.927C58.895 110.81 58.3833 110.743 57.8833 110.728C57.3833 110.704 56.8716 110.692 56.3481 110.692C54.1919 110.692 53.1138 111.349 53.1138 112.661C53.1138 113.208 53.2973 113.63 53.6645 113.927C54.0395 114.224 54.5669 114.372 55.2466 114.372C56.02 114.372 56.6645 114.239 57.1802 113.974C57.7036 113.708 58.0942 113.368 58.352 112.954C58.6098 112.54 58.7388 112.114 58.7388 111.677V110.317L59.4653 113.505H58.4809L58.8794 113.13C58.8794 113.849 58.7114 114.45 58.3755 114.935C58.0473 115.411 57.5825 115.771 56.9809 116.013C56.3794 116.247 55.6684 116.364 54.8481 116.364ZM73.0769 116.13V108.044C73.0769 107.294 72.8816 106.716 72.4909 106.31C72.1003 105.903 71.5534 105.7 70.8503 105.7C68.8972 105.7 67.9206 106.849 67.9206 109.146L67.1941 105.958H68.155C68.2253 105.122 68.53 104.501 69.0691 104.095C69.6081 103.681 70.3972 103.474 71.4362 103.474C72.7487 103.474 73.7644 103.872 74.4831 104.669C75.2019 105.466 75.5612 106.591 75.5612 108.044V116.13H73.0769ZM65.4362 116.13V103.708H67.6862L67.9206 106.333V116.13H65.4362ZM85.5166 116.364C83.3994 116.364 81.7627 115.81 80.6064 114.7C79.458 113.583 78.8838 111.981 78.8838 109.896C78.8838 107.864 79.4267 106.286 80.5127 105.161C81.6064 104.036 83.165 103.474 85.1884 103.474C86.3994 103.474 87.4345 103.7 88.2939 104.153C89.1611 104.599 89.7783 105.231 90.1455 106.052L88.2353 107.493C87.8838 106.923 87.4345 106.481 86.8877 106.169C86.3408 105.856 85.7431 105.7 85.0947 105.7C83.9228 105.7 83.0127 106.056 82.3642 106.767C81.7158 107.47 81.3916 108.474 81.3916 109.778C81.3916 111.192 81.7705 112.274 82.5283 113.024C83.2939 113.767 84.3838 114.138 85.7978 114.138C86.3759 114.138 86.9541 114.11 87.5322 114.056C88.1103 114.001 88.6728 113.927 89.2197 113.833L89.5009 116.013C88.8603 116.153 88.1963 116.247 87.5088 116.294C86.8291 116.341 86.165 116.364 85.5166 116.364ZM100.722 116.13V108.044C100.722 107.255 100.527 106.649 100.136 106.228C99.7453 105.798 99.1984 105.583 98.4953 105.583C96.5422 105.583 95.5656 106.771 95.5656 109.146L94.8391 105.958H95.8C95.8703 105.122 96.175 104.501 96.7141 104.095C97.2531 103.681 98.0422 103.474 99.0813 103.474C100.394 103.474 101.409 103.872 102.128 104.669C102.847 105.466 103.206 106.591 103.206 108.044V116.13H100.722ZM93.0813 116.13V98.5518H95.5656V116.13H93.0813ZM111.966 116.364C110.247 116.364 108.912 115.802 107.958 114.677C107.005 113.552 106.529 111.966 106.529 109.919C106.529 107.864 107.005 106.278 107.958 105.161C108.912 104.036 110.247 103.474 111.966 103.474C113.693 103.474 115.029 104.036 115.974 105.161C116.927 106.278 117.404 107.864 117.404 109.919C117.404 111.966 116.927 113.552 115.974 114.677C115.029 115.802 113.693 116.364 111.966 116.364ZM111.966 114.138C112.88 114.138 113.583 113.771 114.076 113.036C114.576 112.302 114.826 111.263 114.826 109.919C114.826 108.567 114.576 107.528 114.076 106.802C113.583 106.067 112.88 105.7 111.966 105.7C111.052 105.7 110.345 106.067 109.845 106.802C109.353 107.528 109.107 108.567 109.107 109.919C109.107 111.263 109.353 112.302 109.845 113.036C110.345 113.771 111.052 114.138 111.966 114.138ZM124.945 110.786L124.218 106.896H125.179C125.32 104.614 126.461 103.474 128.601 103.474C129.882 103.474 130.812 103.841 131.39 104.575C131.968 105.31 132.257 106.497 132.257 108.138H129.797C129.797 107.231 129.66 106.579 129.386 106.181C129.121 105.782 128.687 105.583 128.086 105.583C127.031 105.583 126.242 106.036 125.718 106.942C125.203 107.841 124.945 109.122 124.945 110.786ZM119.695 116.13V113.95H127.992V116.13H119.695ZM122.461 116.13V103.708H124.476L124.945 107.271V116.13H122.461ZM120.164 105.888V103.708H124.312L124.547 105.888H120.164Z" fill="#89B4FA"/>
<path d="M151.641 116.364C151.078 116.364 150.524 116.341 149.977 116.294C149.43 116.255 148.875 116.2 148.313 116.13L149.274 113.856C149.688 114.052 150.145 114.169 150.645 114.208C151.145 114.239 151.641 114.255 152.133 114.255C153.625 114.255 154.777 113.806 155.59 112.907C156.41 112.009 156.82 110.739 156.82 109.099C156.82 107.974 156.57 107.106 156.07 106.497C155.578 105.888 154.875 105.583 153.961 105.583C151.852 105.583 150.797 106.771 150.797 109.146L150.07 105.958H151.031C151.149 104.302 152.164 103.474 154.078 103.474C155.735 103.474 157.016 103.962 157.922 104.938C158.828 105.915 159.281 107.302 159.281 109.099C159.281 111.403 158.613 113.192 157.277 114.466C155.949 115.731 154.07 116.364 151.641 116.364ZM148.313 116.13V98.5518H150.797V115.919L148.313 116.13ZM166.038 116.364C164.733 116.364 163.721 115.978 163.002 115.204C162.291 114.423 161.936 113.325 161.936 111.911V103.708H164.42V111.911C164.42 112.622 164.623 113.173 165.03 113.563C165.436 113.946 166.006 114.138 166.741 114.138C167.647 114.138 168.33 113.853 168.791 113.282C169.252 112.704 169.483 111.739 169.483 110.388L170.116 113.739H169.295C169.1 114.583 168.717 115.231 168.147 115.685C167.577 116.138 166.873 116.364 166.038 116.364ZM169.694 116.247L169.483 113.271V111.091H171.967V113.88L173.678 114.138V116.13L169.694 116.247ZM169.483 112.614V103.708H171.967V111.911L169.483 112.614ZM180.657 116.13V104.411H183.141V116.13H180.657ZM175.923 116.13V113.95H180.891V116.13H175.923ZM182.907 116.13V113.95H186.962V116.13H182.907ZM176.626 105.888V103.708H183.141V105.888H176.626ZM181.817 101.739C181.34 101.739 180.93 101.571 180.587 101.235C180.251 100.892 180.083 100.481 180.083 100.005C180.083 99.5205 180.251 99.1104 180.587 98.7744C180.93 98.4385 181.34 98.2705 181.817 98.2705C182.301 98.2705 182.712 98.4385 183.048 98.7744C183.383 99.1104 183.551 99.5205 183.551 100.005C183.551 100.481 183.383 100.892 183.048 101.235C182.712 101.571 182.301 101.739 181.817 101.739ZM196.753 116.364C195.315 116.364 194.276 115.974 193.636 115.192C192.995 114.411 192.675 113.161 192.675 111.442V98.5518H195.159V111.325C195.159 111.981 195.222 112.517 195.347 112.931C195.472 113.345 195.714 113.649 196.073 113.845C196.44 114.04 196.979 114.138 197.69 114.138C198.339 114.138 199.167 113.989 200.175 113.692L200.456 115.872C199.823 116.044 199.214 116.169 198.628 116.247C198.05 116.325 197.425 116.364 196.753 116.364ZM189.018 100.731V98.5518H192.886V100.731H189.018ZM207.775 116.364C206.15 116.364 204.915 115.829 204.071 114.759C203.235 113.688 202.818 112.114 202.818 110.036C202.818 107.88 203.235 106.247 204.071 105.138C204.915 104.028 206.15 103.474 207.775 103.474C208.704 103.474 209.458 103.692 210.036 104.13C210.622 104.567 210.966 105.177 211.068 105.958H212.028L211.302 109.497C211.302 108.216 211.048 107.243 210.54 106.579C210.04 105.915 209.302 105.583 208.325 105.583C207.325 105.583 206.568 105.958 206.052 106.708C205.536 107.458 205.278 108.567 205.278 110.036C205.278 111.427 205.536 112.478 206.052 113.188C206.568 113.899 207.325 114.255 208.325 114.255C209.302 114.255 210.04 113.923 210.54 113.259C211.048 112.595 211.302 111.622 211.302 110.341L212.146 113.88H211.068C210.989 114.661 210.657 115.271 210.071 115.708C209.493 116.146 208.728 116.364 207.775 116.364ZM211.56 116.247L211.302 113.81V98.5518H213.786V116.13L211.56 116.247Z" fill="#CED7F3"/>
</g>
<g opacity="0.7">
<path d="M28.375 150.88V126.739H29.9922V150.88H28.375ZM28.457 147.364C27.5117 147.364 26.625 147.286 25.7969 147.13C24.9766 146.981 24.2148 146.755 23.5117 146.45L23.8164 144.083C24.6758 144.45 25.5039 144.731 26.3008 144.927C27.1055 145.114 27.8867 145.208 28.6445 145.208C29.7383 145.208 30.5508 145.017 31.082 144.634C31.6133 144.251 31.8789 143.669 31.8789 142.888C31.8789 141.896 31.3711 141.169 30.3555 140.708L27.4727 139.396C26.3398 138.88 25.4688 138.259 24.8594 137.532C24.2578 136.806 23.957 135.903 23.957 134.825C23.957 133.372 24.3945 132.247 25.2695 131.45C26.1445 130.653 27.3828 130.255 28.9844 130.255C30.1016 130.255 31.0898 130.419 31.9492 130.747C32.8086 131.075 33.6367 131.61 34.4336 132.353L32.793 134.017C32.1055 133.454 31.4609 133.048 30.8594 132.798C30.2656 132.54 29.6445 132.411 28.9961 132.411C28.1914 132.411 27.5664 132.606 27.1211 132.997C26.6836 133.38 26.4648 133.95 26.4648 134.708C26.4648 135.247 26.6094 135.688 26.8984 136.032C27.1875 136.368 27.6133 136.669 28.1758 136.935L30.6133 138.083C31.8477 138.661 32.7852 139.313 33.4258 140.04C34.0664 140.767 34.3867 141.7 34.3867 142.841C34.3867 144.349 33.8945 145.481 32.9102 146.239C31.9336 146.989 30.4492 147.364 28.457 147.364Z" fill="#8BB5FA"/>
<path d="M59.2309 147.247L59.0669 143.567L58.7388 142.536V139.325C58.7388 138.497 58.4458 137.892 57.8598 137.509C57.2817 137.118 56.4184 136.907 55.27 136.876L52.2934 136.794L52.5278 134.591L55.0356 134.626C57.0903 134.657 58.6138 135.103 59.6059 135.962C60.6059 136.813 61.1059 138.06 61.1059 139.7V144.88L63.2153 145.138V147.13L59.2309 147.247ZM54.8481 147.364C53.5513 147.364 52.5473 147.052 51.8364 146.427C51.1255 145.802 50.77 144.919 50.77 143.778C50.77 142.466 51.2583 141.458 52.2348 140.755C53.2192 140.052 54.6059 139.7 56.395 139.7C57.1372 139.7 57.7973 139.747 58.3755 139.841C58.9614 139.927 59.4809 140.06 59.9341 140.239L59.4184 141.927C58.895 141.81 58.3833 141.743 57.8833 141.728C57.3833 141.704 56.8716 141.692 56.3481 141.692C54.1919 141.692 53.1138 142.349 53.1138 143.661C53.1138 144.208 53.2973 144.63 53.6645 144.927C54.0395 145.224 54.5669 145.372 55.2466 145.372C56.02 145.372 56.6645 145.239 57.1802 144.974C57.7036 144.708 58.0942 144.368 58.352 143.954C58.6098 143.54 58.7388 143.114 58.7388 142.677V141.317L59.4653 144.505H58.4809L58.8794 144.13C58.8794 144.849 58.7114 145.45 58.3755 145.935C58.0473 146.411 57.5825 146.771 56.9809 147.013C56.3794 147.247 55.6684 147.364 54.8481 147.364ZM73.0769 147.13V139.044C73.0769 138.294 72.8816 137.716 72.4909 137.31C72.1003 136.903 71.5534 136.7 70.8503 136.7C68.8972 136.7 67.9206 137.849 67.9206 140.146L67.1941 136.958H68.155C68.2253 136.122 68.53 135.501 69.0691 135.095C69.6081 134.681 70.3972 134.474 71.4362 134.474C72.7487 134.474 73.7644 134.872 74.4831 135.669C75.2019 136.466 75.5612 137.591 75.5612 139.044V147.13H73.0769ZM65.4362 147.13V134.708H67.6862L67.9206 137.333V147.13H65.4362ZM85.5166 147.364C83.3994 147.364 81.7627 146.81 80.6064 145.7C79.458 144.583 78.8838 142.981 78.8838 140.896C78.8838 138.864 79.4267 137.286 80.5127 136.161C81.6064 135.036 83.165 134.474 85.1884 134.474C86.3994 134.474 87.4345 134.7 88.2939 135.153C89.1611 135.599 89.7783 136.231 90.1455 137.052L88.2353 138.493C87.8838 137.923 87.4345 137.481 86.8877 137.169C86.3408 136.856 85.7431 136.7 85.0947 136.7C83.9228 136.7 83.0127 137.056 82.3642 137.767C81.7158 138.47 81.3916 139.474 81.3916 140.778C81.3916 142.192 81.7705 143.274 82.5283 144.024C83.2939 144.767 84.3838 145.138 85.7978 145.138C86.3759 145.138 86.9541 145.11 87.5322 145.056C88.1103 145.001 88.6728 144.927 89.2197 144.833L89.5009 147.013C88.8603 147.153 88.1963 147.247 87.5088 147.294C86.8291 147.341 86.165 147.364 85.5166 147.364ZM100.722 147.13V139.044C100.722 138.255 100.527 137.649 100.136 137.228C99.7453 136.798 99.1984 136.583 98.4953 136.583C96.5422 136.583 95.5656 137.771 95.5656 140.146L94.8391 136.958H95.8C95.8703 136.122 96.175 135.501 96.7141 135.095C97.2531 134.681 98.0422 134.474 99.0813 134.474C100.394 134.474 101.409 134.872 102.128 135.669C102.847 136.466 103.206 137.591 103.206 139.044V147.13H100.722ZM93.0813 147.13V129.552H95.5656V147.13H93.0813ZM111.966 147.364C110.247 147.364 108.912 146.802 107.958 145.677C107.005 144.552 106.529 142.966 106.529 140.919C106.529 138.864 107.005 137.278 107.958 136.161C108.912 135.036 110.247 134.474 111.966 134.474C113.693 134.474 115.029 135.036 115.974 136.161C116.927 137.278 117.404 138.864 117.404 140.919C117.404 142.966 116.927 144.552 115.974 145.677C115.029 146.802 113.693 147.364 111.966 147.364ZM111.966 145.138C112.88 145.138 113.583 144.771 114.076 144.036C114.576 143.302 114.826 142.263 114.826 140.919C114.826 139.567 114.576 138.528 114.076 137.802C113.583 137.067 112.88 136.7 111.966 136.7C111.052 136.7 110.345 137.067 109.845 137.802C109.353 138.528 109.107 139.567 109.107 140.919C109.107 142.263 109.353 143.302 109.845 144.036C110.345 144.771 111.052 145.138 111.966 145.138ZM124.945 141.786L124.218 137.896H125.179C125.32 135.614 126.461 134.474 128.601 134.474C129.882 134.474 130.812 134.841 131.39 135.575C131.968 136.31 132.257 137.497 132.257 139.138H129.797C129.797 138.231 129.66 137.579 129.386 137.181C129.121 136.782 128.687 136.583 128.086 136.583C127.031 136.583 126.242 137.036 125.718 137.942C125.203 138.841 124.945 140.122 124.945 141.786ZM119.695 147.13V144.95H127.992V147.13H119.695ZM122.461 147.13V134.708H124.476L124.945 138.271V147.13H122.461ZM120.164 136.888V134.708H124.312L124.547 136.888H120.164Z" fill="#89B4FA"/>
<path d="M155.684 147.364C153.801 147.364 152.438 146.974 151.594 146.192C150.758 145.411 150.34 144.161 150.34 142.442V140.333H152.824V142.325C152.824 143.31 153.063 144.024 153.539 144.47C154.024 144.915 154.817 145.138 155.918 145.138C156.309 145.138 156.723 145.118 157.16 145.079C157.598 145.032 158.098 144.974 158.66 144.903L158.942 147.083C158.395 147.177 157.86 147.247 157.336 147.294C156.82 147.341 156.27 147.364 155.684 147.364ZM150.34 141.271V130.958H152.824V141.271H150.34ZM147.223 136.888V134.708H158.473V136.888H147.223ZM168.334 147.364C166.217 147.364 164.58 146.81 163.424 145.7C162.276 144.583 161.702 142.981 161.702 140.896C161.702 138.864 162.19 137.286 163.166 136.161C164.143 135.036 165.522 134.474 167.303 134.474C168.983 134.474 170.28 134.981 171.194 135.997C172.116 137.013 172.577 138.489 172.577 140.427C172.577 140.997 172.553 141.528 172.506 142.021H163.788V140.122H170.327C170.327 139.005 170.061 138.149 169.53 137.556C168.998 136.954 168.264 136.653 167.327 136.653C166.272 136.653 165.452 137.013 164.866 137.731C164.288 138.45 163.998 139.466 163.998 140.778C163.998 142.216 164.397 143.31 165.194 144.06C165.998 144.81 167.139 145.185 168.616 145.185C169.131 145.185 169.639 145.157 170.139 145.103C170.639 145.04 171.147 144.958 171.663 144.856L171.967 147.036C171.233 147.177 170.561 147.267 169.952 147.306C169.342 147.345 168.803 147.364 168.334 147.364ZM180.118 147.364C179.18 147.364 178.376 147.337 177.704 147.282C177.04 147.228 176.43 147.138 175.876 147.013L176.157 144.763C176.977 144.888 177.7 144.981 178.325 145.044C178.958 145.106 179.555 145.138 180.118 145.138C181.376 145.138 182.286 145.017 182.848 144.774C183.419 144.524 183.704 144.13 183.704 143.591C183.704 143.216 183.602 142.938 183.399 142.759C183.204 142.571 182.899 142.427 182.485 142.325L179.626 141.599C178.399 141.286 177.497 140.899 176.919 140.438C176.348 139.978 176.063 139.278 176.063 138.341C176.063 136.981 176.583 135.997 177.622 135.388C178.669 134.778 180.352 134.474 182.673 134.474C183.274 134.474 183.833 134.493 184.348 134.532C184.872 134.563 185.407 134.622 185.954 134.708L185.696 136.864C185.063 136.802 184.505 136.759 184.02 136.735C183.536 136.712 183.063 136.7 182.602 136.7C181.212 136.7 180.204 136.821 179.579 137.063C178.954 137.298 178.641 137.685 178.641 138.224C178.641 138.583 178.77 138.845 179.028 139.009C179.286 139.165 179.68 139.31 180.212 139.442L182.508 140.005C183.813 140.317 184.766 140.735 185.368 141.259C185.977 141.782 186.282 142.544 186.282 143.544C186.282 144.88 185.794 145.853 184.817 146.462C183.84 147.063 182.274 147.364 180.118 147.364ZM197.151 147.364C195.268 147.364 193.905 146.974 193.061 146.192C192.225 145.411 191.807 144.161 191.807 142.442V140.333H194.292V142.325C194.292 143.31 194.53 144.024 195.007 144.47C195.491 144.915 196.284 145.138 197.386 145.138C197.776 145.138 198.19 145.118 198.628 145.079C199.065 145.032 199.565 144.974 200.128 144.903L200.409 147.083C199.862 147.177 199.327 147.247 198.804 147.294C198.288 147.341 197.737 147.364 197.151 147.364ZM191.807 141.271V130.958H194.292V141.271H191.807ZM188.69 136.888V134.708H199.94V136.888H188.69Z" fill="#CED7F3"/>
</g>
<g opacity="0.7">
<path d="M28.375 181.88V157.739H29.9922V181.88H28.375ZM28.457 178.364C27.5117 178.364 26.625 178.286 25.7969 178.13C24.9766 177.981 24.2148 177.755 23.5117 177.45L23.8164 175.083C24.6758 175.45 25.5039 175.731 26.3008 175.927C27.1055 176.114 27.8867 176.208 28.6445 176.208C29.7383 176.208 30.5508 176.017 31.082 175.634C31.6133 175.251 31.8789 174.669 31.8789 173.888C31.8789 172.896 31.3711 172.169 30.3555 171.708L27.4727 170.396C26.3398 169.88 25.4688 169.259 24.8594 168.532C24.2578 167.806 23.957 166.903 23.957 165.825C23.957 164.372 24.3945 163.247 25.2695 162.45C26.1445 161.653 27.3828 161.255 28.9844 161.255C30.1016 161.255 31.0898 161.419 31.9492 161.747C32.8086 162.075 33.6367 162.61 34.4336 163.353L32.793 165.017C32.1055 164.454 31.4609 164.048 30.8594 163.798C30.2656 163.54 29.6445 163.411 28.9961 163.411C28.1914 163.411 27.5664 163.606 27.1211 163.997C26.6836 164.38 26.4648 164.95 26.4648 165.708C26.4648 166.247 26.6094 166.688 26.8984 167.032C27.1875 167.368 27.6133 167.669 28.1758 167.935L30.6133 169.083C31.8477 169.661 32.7852 170.313 33.4258 171.04C34.0664 171.767 34.3867 172.7 34.3867 173.841C34.3867 175.349 33.8945 176.481 32.9102 177.239C31.9336 177.989 30.4492 178.364 28.457 178.364Z" fill="#8BB5FA"/>
<path d="M59.2309 178.247L59.0669 174.567L58.7388 173.536V170.325C58.7388 169.497 58.4458 168.892 57.8598 168.509C57.2817 168.118 56.4184 167.907 55.27 167.876L52.2934 167.794L52.5278 165.591L55.0356 165.626C57.0903 165.657 58.6138 166.103 59.6059 166.962C60.6059 167.813 61.1059 169.06 61.1059 170.7V175.88L63.2153 176.138V178.13L59.2309 178.247ZM54.8481 178.364C53.5513 178.364 52.5473 178.052 51.8364 177.427C51.1255 176.802 50.77 175.919 50.77 174.778C50.77 173.466 51.2583 172.458 52.2348 171.755C53.2192 171.052 54.6059 170.7 56.395 170.7C57.1372 170.7 57.7973 170.747 58.3755 170.841C58.9614 170.927 59.4809 171.06 59.9341 171.239L59.4184 172.927C58.895 172.81 58.3833 172.743 57.8833 172.728C57.3833 172.704 56.8716 172.692 56.3481 172.692C54.1919 172.692 53.1138 173.349 53.1138 174.661C53.1138 175.208 53.2973 175.63 53.6645 175.927C54.0395 176.224 54.5669 176.372 55.2466 176.372C56.02 176.372 56.6645 176.239 57.1802 175.974C57.7036 175.708 58.0942 175.368 58.352 174.954C58.6098 174.54 58.7388 174.114 58.7388 173.677V172.317L59.4653 175.505H58.4809L58.8794 175.13C58.8794 175.849 58.7114 176.45 58.3755 176.935C58.0473 177.411 57.5825 177.771 56.9809 178.013C56.3794 178.247 55.6684 178.364 54.8481 178.364ZM73.0769 178.13V170.044C73.0769 169.294 72.8816 168.716 72.4909 168.31C72.1003 167.903 71.5534 167.7 70.8503 167.7C68.8972 167.7 67.9206 168.849 67.9206 171.146L67.1941 167.958H68.155C68.2253 167.122 68.53 166.501 69.0691 166.095C69.6081 165.681 70.3972 165.474 71.4362 165.474C72.7487 165.474 73.7644 165.872 74.4831 166.669C75.2019 167.466 75.5612 168.591 75.5612 170.044V178.13H73.0769ZM65.4362 178.13V165.708H67.6862L67.9206 168.333V178.13H65.4362ZM85.5166 178.364C83.3994 178.364 81.7627 177.81 80.6064 176.7C79.458 175.583 78.8838 173.981 78.8838 171.896C78.8838 169.864 79.4267 168.286 80.5127 167.161C81.6064 166.036 83.165 165.474 85.1884 165.474C86.3994 165.474 87.4345 165.7 88.2939 166.153C89.1611 166.599 89.7783 167.231 90.1455 168.052L88.2353 169.493C87.8838 168.923 87.4345 168.481 86.8877 168.169C86.3408 167.856 85.7431 167.7 85.0947 167.7C83.9228 167.7 83.0127 168.056 82.3642 168.767C81.7158 169.47 81.3916 170.474 81.3916 171.778C81.3916 173.192 81.7705 174.274 82.5283 175.024C83.2939 175.767 84.3838 176.138 85.7978 176.138C86.3759 176.138 86.9541 176.11 87.5322 176.056C88.1103 176.001 88.6728 175.927 89.2197 175.833L89.5009 178.013C88.8603 178.153 88.1963 178.247 87.5088 178.294C86.8291 178.341 86.165 178.364 85.5166 178.364ZM100.722 178.13V170.044C100.722 169.255 100.527 168.649 100.136 168.228C99.7453 167.798 99.1984 167.583 98.4953 167.583C96.5422 167.583 95.5656 168.771 95.5656 171.146L94.8391 167.958H95.8C95.8703 167.122 96.175 166.501 96.7141 166.095C97.2531 165.681 98.0422 165.474 99.0813 165.474C100.394 165.474 101.409 165.872 102.128 166.669C102.847 167.466 103.206 168.591 103.206 170.044V178.13H100.722ZM93.0813 178.13V160.552H95.5656V178.13H93.0813ZM111.966 178.364C110.247 178.364 108.912 177.802 107.958 176.677C107.005 175.552 106.529 173.966 106.529 171.919C106.529 169.864 107.005 168.278 107.958 167.161C108.912 166.036 110.247 165.474 111.966 165.474C113.693 165.474 115.029 166.036 115.974 167.161C116.927 168.278 117.404 169.864 117.404 171.919C117.404 173.966 116.927 175.552 115.974 176.677C115.029 177.802 113.693 178.364 111.966 178.364ZM111.966 176.138C112.88 176.138 113.583 175.771 114.076 175.036C114.576 174.302 114.826 173.263 114.826 171.919C114.826 170.567 114.576 169.528 114.076 168.802C113.583 168.067 112.88 167.7 111.966 167.7C111.052 167.7 110.345 168.067 109.845 168.802C109.353 169.528 109.107 170.567 109.107 171.919C109.107 173.263 109.353 174.302 109.845 175.036C110.345 175.771 111.052 176.138 111.966 176.138ZM124.945 172.786L124.218 168.896H125.179C125.32 166.614 126.461 165.474 128.601 165.474C129.882 165.474 130.812 165.841 131.39 166.575C131.968 167.31 132.257 168.497 132.257 170.138H129.797C129.797 169.231 129.66 168.579 129.386 168.181C129.121 167.782 128.687 167.583 128.086 167.583C127.031 167.583 126.242 168.036 125.718 168.942C125.203 169.841 124.945 171.122 124.945 172.786ZM119.695 178.13V175.95H127.992V178.13H119.695ZM122.461 178.13V165.708H124.476L124.945 169.271V178.13H122.461ZM120.164 167.888V165.708H124.312L124.547 167.888H120.164Z" fill="#89B4FA"/>
<path d="M151.113 178.13V166.763C151.113 162.466 153.074 160.317 156.996 160.317C157.887 160.317 158.746 160.396 159.574 160.552L159.317 162.708C158.824 162.646 158.391 162.603 158.016 162.579C157.641 162.556 157.277 162.544 156.926 162.544C154.707 162.544 153.598 163.911 153.598 166.646V178.13H151.113ZM147.199 170.63V168.45H158.684V170.63H147.199ZM168.334 178.364C166.217 178.364 164.58 177.81 163.424 176.7C162.276 175.583 161.702 173.981 161.702 171.896C161.702 169.864 162.19 168.286 163.166 167.161C164.143 166.036 165.522 165.474 167.303 165.474C168.983 165.474 170.28 165.981 171.194 166.997C172.116 168.013 172.577 169.489 172.577 171.427C172.577 171.997 172.553 172.528 172.506 173.021H163.788V171.122H170.327C170.327 170.005 170.061 169.149 169.53 168.556C168.998 167.954 168.264 167.653 167.327 167.653C166.272 167.653 165.452 168.013 164.866 168.731C164.288 169.45 163.998 170.466 163.998 171.778C163.998 173.216 164.397 174.31 165.194 175.06C165.998 175.81 167.139 176.185 168.616 176.185C169.131 176.185 169.639 176.157 170.139 176.103C170.639 176.04 171.147 175.958 171.663 175.856L171.967 178.036C171.233 178.177 170.561 178.267 169.952 178.306C169.342 178.345 168.803 178.364 168.334 178.364ZM183.329 178.364C181.446 178.364 180.083 177.974 179.239 177.192C178.403 176.411 177.985 175.161 177.985 173.442V171.333H180.469V173.325C180.469 174.31 180.708 175.024 181.184 175.47C181.669 175.915 182.462 176.138 183.563 176.138C183.954 176.138 184.368 176.118 184.805 176.079C185.243 176.032 185.743 175.974 186.305 175.903L186.587 178.083C186.04 178.177 185.505 178.247 184.981 178.294C184.465 178.341 183.915 178.364 183.329 178.364ZM177.985 172.271V161.958H180.469V172.271H177.985ZM174.868 167.888V165.708H186.118V167.888H174.868ZM196.097 178.364C193.979 178.364 192.343 177.81 191.186 176.7C190.038 175.583 189.464 173.981 189.464 171.896C189.464 169.864 190.007 168.286 191.093 167.161C192.186 166.036 193.745 165.474 195.768 165.474C196.979 165.474 198.015 165.7 198.874 166.153C199.741 166.599 200.358 167.231 200.725 168.052L198.815 169.493C198.464 168.923 198.015 168.481 197.468 168.169C196.921 167.856 196.323 167.7 195.675 167.7C194.503 167.7 193.593 168.056 192.944 168.767C192.296 169.47 191.972 170.474 191.972 171.778C191.972 173.192 192.35 174.274 193.108 175.024C193.874 175.767 194.964 176.138 196.378 176.138C196.956 176.138 197.534 176.11 198.112 176.056C198.69 176.001 199.253 175.927 199.8 175.833L200.081 178.013C199.44 178.153 198.776 178.247 198.089 178.294C197.409 178.341 196.745 178.364 196.097 178.364ZM211.302 178.13V170.044C211.302 169.255 211.107 168.649 210.716 168.228C210.325 167.798 209.778 167.583 209.075 167.583C207.122 167.583 206.146 168.771 206.146 171.146L205.419 167.958H206.38C206.45 167.122 206.755 166.501 207.294 166.095C207.833 165.681 208.622 165.474 209.661 165.474C210.974 165.474 211.989 165.872 212.708 166.669C213.427 167.466 213.786 168.591 213.786 170.044V178.13H211.302ZM203.661 178.13V160.552H206.146V178.13H203.661ZM235.947 178.13V166.411H238.431V178.13H235.947ZM231.212 178.13V175.95H236.181V178.13H231.212ZM238.197 178.13V175.95H242.252V178.13H238.197ZM231.916 167.888V165.708H238.431V167.888H231.916ZM237.107 163.739C236.63 163.739 236.22 163.571 235.877 163.235C235.541 162.892 235.373 162.481 235.373 162.005C235.373 161.521 235.541 161.11 235.877 160.774C236.22 160.438 236.63 160.271 237.107 160.271C237.591 160.271 238.002 160.438 238.337 160.774C238.673 161.11 238.841 161.521 238.841 162.005C238.841 162.481 238.673 162.892 238.337 163.235C238.002 163.571 237.591 163.739 237.107 163.739ZM249.242 178.364C247.617 178.364 246.383 177.829 245.539 176.759C244.703 175.688 244.285 174.114 244.285 172.036C244.285 169.88 244.703 168.247 245.539 167.138C246.383 166.028 247.617 165.474 249.242 165.474C250.172 165.474 250.926 165.692 251.504 166.13C252.09 166.567 252.433 167.177 252.535 167.958H253.496L252.769 171.497C252.769 170.216 252.515 169.243 252.008 168.579C251.508 167.915 250.769 167.583 249.793 167.583C248.793 167.583 248.035 167.958 247.519 168.708C247.004 169.458 246.746 170.567 246.746 172.036C246.746 173.427 247.004 174.478 247.519 175.188C248.035 175.899 248.793 176.255 249.793 176.255C250.769 176.255 251.508 175.923 252.008 175.259C252.515 174.595 252.769 173.622 252.769 172.341L253.613 175.88H252.535C252.457 176.661 252.125 177.271 251.539 177.708C250.961 178.146 250.195 178.364 249.242 178.364ZM253.027 178.247L252.769 175.81V160.552H255.254V178.13L253.027 178.247ZM265.865 178.364C264.428 178.364 263.389 177.974 262.748 177.192C262.107 176.411 261.787 175.161 261.787 173.442V160.552H264.272V173.325C264.272 173.981 264.334 174.517 264.459 174.931C264.584 175.345 264.826 175.649 265.186 175.845C265.553 176.04 266.092 176.138 266.803 176.138C267.451 176.138 268.279 175.989 269.287 175.692L269.568 177.872C268.936 178.044 268.326 178.169 267.74 178.247C267.162 178.325 266.537 178.364 265.865 178.364ZM258.131 162.731V160.552H261.998V162.731H258.131Z" fill="#CED7F3"/>
</g>
<g opacity="0.7">
<path d="M28.375 212.88V188.739H29.9922V212.88H28.375ZM28.457 209.364C27.5117 209.364 26.625 209.286 25.7969 209.13C24.9766 208.981 24.2148 208.755 23.5117 208.45L23.8164 206.083C24.6758 206.45 25.5039 206.731 26.3008 206.927C27.1055 207.114 27.8867 207.208 28.6445 207.208C29.7383 207.208 30.5508 207.017 31.082 206.634C31.6133 206.251 31.8789 205.669 31.8789 204.888C31.8789 203.896 31.3711 203.169 30.3555 202.708L27.4727 201.396C26.3398 200.88 25.4688 200.259 24.8594 199.532C24.2578 198.806 23.957 197.903 23.957 196.825C23.957 195.372 24.3945 194.247 25.2695 193.45C26.1445 192.653 27.3828 192.255 28.9844 192.255C30.1016 192.255 31.0898 192.419 31.9492 192.747C32.8086 193.075 33.6367 193.61 34.4336 194.353L32.793 196.017C32.1055 195.454 31.4609 195.048 30.8594 194.798C30.2656 194.54 29.6445 194.411 28.9961 194.411C28.1914 194.411 27.5664 194.606 27.1211 194.997C26.6836 195.38 26.4648 195.95 26.4648 196.708C26.4648 197.247 26.6094 197.688 26.8984 198.032C27.1875 198.368 27.6133 198.669 28.1758 198.935L30.6133 200.083C31.8477 200.661 32.7852 201.313 33.4258 202.04C34.0664 202.767 34.3867 203.7 34.3867 204.841C34.3867 206.349 33.8945 207.481 32.9102 208.239C31.9336 208.989 30.4492 209.364 28.457 209.364Z" fill="#8BB5FA"/>
<path d="M59.2309 209.247L59.0669 205.567L58.7388 204.536V201.325C58.7388 200.497 58.4458 199.892 57.8598 199.509C57.2817 199.118 56.4184 198.907 55.27 198.876L52.2934 198.794L52.5278 196.591L55.0356 196.626C57.0903 196.657 58.6138 197.103 59.6059 197.962C60.6059 198.813 61.1059 200.06 61.1059 201.7V206.88L63.2153 207.138V209.13L59.2309 209.247ZM54.8481 209.364C53.5513 209.364 52.5473 209.052 51.8364 208.427C51.1255 207.802 50.77 206.919 50.77 205.778C50.77 204.466 51.2583 203.458 52.2348 202.755C53.2192 202.052 54.6059 201.7 56.395 201.7C57.1372 201.7 57.7973 201.747 58.3755 201.841C58.9614 201.927 59.4809 202.06 59.9341 202.239L59.4184 203.927C58.895 203.81 58.3833 203.743 57.8833 203.728C57.3833 203.704 56.8716 203.692 56.3481 203.692C54.1919 203.692 53.1138 204.349 53.1138 205.661C53.1138 206.208 53.2973 206.63 53.6645 206.927C54.0395 207.224 54.5669 207.372 55.2466 207.372C56.02 207.372 56.6645 207.239 57.1802 206.974C57.7036 206.708 58.0942 206.368 58.352 205.954C58.6098 205.54 58.7388 205.114 58.7388 204.677V203.317L59.4653 206.505H58.4809L58.8794 206.13C58.8794 206.849 58.7114 207.45 58.3755 207.935C58.0473 208.411 57.5825 208.771 56.9809 209.013C56.3794 209.247 55.6684 209.364 54.8481 209.364ZM73.0769 209.13V201.044C73.0769 200.294 72.8816 199.716 72.4909 199.31C72.1003 198.903 71.5534 198.7 70.8503 198.7C68.8972 198.7 67.9206 199.849 67.9206 202.146L67.1941 198.958H68.155C68.2253 198.122 68.53 197.501 69.0691 197.095C69.6081 196.681 70.3972 196.474 71.4362 196.474C72.7487 196.474 73.7644 196.872 74.4831 197.669C75.2019 198.466 75.5612 199.591 75.5612 201.044V209.13H73.0769ZM65.4362 209.13V196.708H67.6862L67.9206 199.333V209.13H65.4362ZM85.5166 209.364C83.3994 209.364 81.7627 208.81 80.6064 207.7C79.458 206.583 78.8838 204.981 78.8838 202.896C78.8838 200.864 79.4267 199.286 80.5127 198.161C81.6064 197.036 83.165 196.474 85.1884 196.474C86.3994 196.474 87.4345 196.7 88.2939 197.153C89.1611 197.599 89.7783 198.231 90.1455 199.052L88.2353 200.493C87.8838 199.923 87.4345 199.481 86.8877 199.169C86.3408 198.856 85.7431 198.7 85.0947 198.7C83.9228 198.7 83.0127 199.056 82.3642 199.767C81.7158 200.47 81.3916 201.474 81.3916 202.778C81.3916 204.192 81.7705 205.274 82.5283 206.024C83.2939 206.767 84.3838 207.138 85.7978 207.138C86.3759 207.138 86.9541 207.11 87.5322 207.056C88.1103 207.001 88.6728 206.927 89.2197 206.833L89.5009 209.013C88.8603 209.153 88.1963 209.247 87.5088 209.294C86.8291 209.341 86.165 209.364 85.5166 209.364ZM100.722 209.13V201.044C100.722 200.255 100.527 199.649 100.136 199.228C99.7453 198.798 99.1984 198.583 98.4953 198.583C96.5422 198.583 95.5656 199.771 95.5656 202.146L94.8391 198.958H95.8C95.8703 198.122 96.175 197.501 96.7141 197.095C97.2531 196.681 98.0422 196.474 99.0813 196.474C100.394 196.474 101.409 196.872 102.128 197.669C102.847 198.466 103.206 199.591 103.206 201.044V209.13H100.722ZM93.0813 209.13V191.552H95.5656V209.13H93.0813ZM111.966 209.364C110.247 209.364 108.912 208.802 107.958 207.677C107.005 206.552 106.529 204.966 106.529 202.919C106.529 200.864 107.005 199.278 107.958 198.161C108.912 197.036 110.247 196.474 111.966 196.474C113.693 196.474 115.029 197.036 115.974 198.161C116.927 199.278 117.404 200.864 117.404 202.919C117.404 204.966 116.927 206.552 115.974 207.677C115.029 208.802 113.693 209.364 111.966 209.364ZM111.966 207.138C112.88 207.138 113.583 206.771 114.076 206.036C114.576 205.302 114.826 204.263 114.826 202.919C114.826 201.567 114.576 200.528 114.076 199.802C113.583 199.067 112.88 198.7 111.966 198.7C111.052 198.7 110.345 199.067 109.845 199.802C109.353 200.528 109.107 201.567 109.107 202.919C109.107 204.263 109.353 205.302 109.845 206.036C110.345 206.771 111.052 207.138 111.966 207.138ZM124.945 203.786L124.218 199.896H125.179C125.32 197.614 126.461 196.474 128.601 196.474C129.882 196.474 130.812 196.841 131.39 197.575C131.968 198.31 132.257 199.497 132.257 201.138H129.797C129.797 200.231 129.66 199.579 129.386 199.181C129.121 198.782 128.687 198.583 128.086 198.583C127.031 198.583 126.242 199.036 125.718 199.942C125.203 200.841 124.945 202.122 124.945 203.786ZM119.695 209.13V206.95H127.992V209.13H119.695ZM122.461 209.13V196.708H124.476L124.945 200.271V209.13H122.461ZM120.164 198.888V196.708H124.312L124.547 198.888H120.164Z" fill="#89B4FA"/>
<path d="M153.012 209.13V197.411H155.496V209.13H153.012ZM148.277 209.13V206.95H153.246V209.13H148.277ZM155.262 209.13V206.95H159.317V209.13H155.262ZM148.981 198.888V196.708H155.496V198.888H148.981ZM154.172 194.739C153.695 194.739 153.285 194.571 152.942 194.235C152.606 193.892 152.438 193.481 152.438 193.005C152.438 192.521 152.606 192.11 152.942 191.774C153.285 191.438 153.695 191.271 154.172 191.271C154.656 191.271 155.067 191.438 155.402 191.774C155.738 192.11 155.906 192.521 155.906 193.005C155.906 193.481 155.738 193.892 155.402 194.235C155.067 194.571 154.656 194.739 154.172 194.739ZM169.834 209.13V201.044C169.834 200.294 169.639 199.716 169.248 199.31C168.858 198.903 168.311 198.7 167.608 198.7C165.655 198.7 164.678 199.849 164.678 202.146L163.952 198.958H164.913C164.983 198.122 165.288 197.501 165.827 197.095C166.366 196.681 167.155 196.474 168.194 196.474C169.506 196.474 170.522 196.872 171.241 197.669C171.959 198.466 172.319 199.591 172.319 201.044V209.13H169.834ZM162.194 209.13V196.708H164.444L164.678 199.333V209.13H162.194ZM180.118 209.364C179.18 209.364 178.376 209.337 177.704 209.282C177.04 209.228 176.43 209.138 175.876 209.013L176.157 206.763C176.977 206.888 177.7 206.981 178.325 207.044C178.958 207.106 179.555 207.138 180.118 207.138C181.376 207.138 182.286 207.017 182.848 206.774C183.419 206.524 183.704 206.13 183.704 205.591C183.704 205.216 183.602 204.938 183.399 204.759C183.204 204.571 182.899 204.427 182.485 204.325L179.626 203.599C178.399 203.286 177.497 202.899 176.919 202.438C176.348 201.978 176.063 201.278 176.063 200.341C176.063 198.981 176.583 197.997 177.622 197.388C178.669 196.778 180.352 196.474 182.673 196.474C183.274 196.474 183.833 196.493 184.348 196.532C184.872 196.563 185.407 196.622 185.954 196.708L185.696 198.864C185.063 198.802 184.505 198.759 184.02 198.735C183.536 198.712 183.063 198.7 182.602 198.7C181.212 198.7 180.204 198.821 179.579 199.063C178.954 199.298 178.641 199.685 178.641 200.224C178.641 200.583 178.77 200.845 179.028 201.009C179.286 201.165 179.68 201.31 180.212 201.442L182.508 202.005C183.813 202.317 184.766 202.735 185.368 203.259C185.977 203.782 186.282 204.544 186.282 205.544C186.282 206.88 185.794 207.853 184.817 208.462C183.84 209.063 182.274 209.364 180.118 209.364ZM189.839 214.521V196.708H192.089L192.323 199.333V214.521H189.839ZM195.85 209.364C194.897 209.364 194.128 209.146 193.542 208.708C192.964 208.271 192.636 207.661 192.557 206.88H191.479L192.323 203.341C192.323 204.622 192.573 205.595 193.073 206.259C193.581 206.923 194.323 207.255 195.3 207.255C196.3 207.255 197.057 206.899 197.573 206.188C198.089 205.478 198.347 204.427 198.347 203.036C198.347 201.567 198.089 200.458 197.573 199.708C197.057 198.958 196.3 198.583 195.3 198.583C194.323 198.583 193.581 198.915 193.073 199.579C192.573 200.243 192.323 201.216 192.323 202.497L191.479 198.958H192.44C192.55 198.177 192.901 197.567 193.495 197.13C194.097 196.692 194.882 196.474 195.85 196.474C197.483 196.474 198.718 197.028 199.554 198.138C200.39 199.247 200.807 200.88 200.807 203.036C200.807 205.114 200.39 206.688 199.554 207.759C198.718 208.829 197.483 209.364 195.85 209.364ZM209.802 209.364C207.685 209.364 206.048 208.81 204.892 207.7C203.743 206.583 203.169 204.981 203.169 202.896C203.169 200.864 203.657 199.286 204.634 198.161C205.61 197.036 206.989 196.474 208.771 196.474C210.45 196.474 211.747 196.981 212.661 197.997C213.583 199.013 214.044 200.489 214.044 202.427C214.044 202.997 214.021 203.528 213.974 204.021H205.255V202.122H211.794C211.794 201.005 211.528 200.149 210.997 199.556C210.466 198.954 209.732 198.653 208.794 198.653C207.739 198.653 206.919 199.013 206.333 199.731C205.755 200.45 205.466 201.466 205.466 202.778C205.466 204.216 205.864 205.31 206.661 206.06C207.466 206.81 208.607 207.185 210.083 207.185C210.599 207.185 211.107 207.157 211.607 207.103C212.107 207.04 212.614 206.958 213.13 206.856L213.435 209.036C212.7 209.177 212.028 209.267 211.419 209.306C210.81 209.345 210.271 209.364 209.802 209.364ZM223.742 209.364C221.624 209.364 219.988 208.81 218.831 207.7C217.683 206.583 217.109 204.981 217.109 202.896C217.109 200.864 217.652 199.286 218.738 198.161C219.831 197.036 221.39 196.474 223.413 196.474C224.624 196.474 225.66 196.7 226.519 197.153C227.386 197.599 228.003 198.231 228.37 199.052L226.46 200.493C226.109 199.923 225.66 199.481 225.113 199.169C224.566 198.856 223.968 198.7 223.32 198.7C222.148 198.7 221.238 199.056 220.589 199.767C219.941 200.47 219.617 201.474 219.617 202.778C219.617 204.192 219.995 205.274 220.753 206.024C221.519 206.767 222.609 207.138 224.023 207.138C224.601 207.138 225.179 207.11 225.757 207.056C226.335 207.001 226.898 206.927 227.445 206.833L227.726 209.013C227.085 209.153 226.421 209.247 225.734 209.294C225.054 209.341 224.39 209.364 223.742 209.364ZM238.619 209.364C236.736 209.364 235.373 208.974 234.529 208.192C233.693 207.411 233.275 206.161 233.275 204.442V202.333H235.759V204.325C235.759 205.31 235.998 206.024 236.474 206.47C236.959 206.915 237.752 207.138 238.853 207.138C239.244 207.138 239.658 207.118 240.095 207.079C240.533 207.032 241.033 206.974 241.595 206.903L241.877 209.083C241.33 209.177 240.795 209.247 240.271 209.294C239.755 209.341 239.205 209.364 238.619 209.364ZM233.275 203.271V192.958H235.759V203.271H233.275ZM230.158 198.888V196.708H241.408V198.888H230.158Z" fill="#CED7F3"/>
</g>
<g opacity="0.7">
<path d="M28.375 243.88V219.739H29.9922V243.88H28.375ZM28.457 240.364C27.5117 240.364 26.625 240.286 25.7969 240.13C24.9766 239.981 24.2148 239.755 23.5117 239.45L23.8164 237.083C24.6758 237.45 25.5039 237.731 26.3008 237.927C27.1055 238.114 27.8867 238.208 28.6445 238.208C29.7383 238.208 30.5508 238.017 31.082 237.634C31.6133 237.251 31.8789 236.669 31.8789 235.888C31.8789 234.896 31.3711 234.169 30.3555 233.708L27.4727 232.396C26.3398 231.88 25.4688 231.259 24.8594 230.532C24.2578 229.806 23.957 228.903 23.957 227.825C23.957 226.372 24.3945 225.247 25.2695 224.45C26.1445 223.653 27.3828 223.255 28.9844 223.255C30.1016 223.255 31.0898 223.419 31.9492 223.747C32.8086 224.075 33.6367 224.61 34.4336 225.353L32.793 227.017C32.1055 226.454 31.4609 226.048 30.8594 225.798C30.2656 225.54 29.6445 225.411 28.9961 225.411C28.1914 225.411 27.5664 225.606 27.1211 225.997C26.6836 226.38 26.4648 226.95 26.4648 227.708C26.4648 228.247 26.6094 228.688 26.8984 229.032C27.1875 229.368 27.6133 229.669 28.1758 229.935L30.6133 231.083C31.8477 231.661 32.7852 232.313 33.4258 233.04C34.0664 233.767 34.3867 234.7 34.3867 235.841C34.3867 237.349 33.8945 238.481 32.9102 239.239C31.9336 239.989 30.4492 240.364 28.457 240.364Z" fill="#8BB5FA"/>
<path d="M59.2309 240.247L59.0669 236.567L58.7388 235.536V232.325C58.7388 231.497 58.4458 230.892 57.8598 230.509C57.2817 230.118 56.4184 229.907 55.27 229.876L52.2934 229.794L52.5278 227.591L55.0356 227.626C57.0903 227.657 58.6138 228.103 59.6059 228.962C60.6059 229.813 61.1059 231.06 61.1059 232.7V237.88L63.2153 238.138V240.13L59.2309 240.247ZM54.8481 240.364C53.5513 240.364 52.5473 240.052 51.8364 239.427C51.1255 238.802 50.77 237.919 50.77 236.778C50.77 235.466 51.2583 234.458 52.2348 233.755C53.2192 233.052 54.6059 232.7 56.395 232.7C57.1372 232.7 57.7973 232.747 58.3755 232.841C58.9614 232.927 59.4809 233.06 59.9341 233.239L59.4184 234.927C58.895 234.81 58.3833 234.743 57.8833 234.728C57.3833 234.704 56.8716 234.692 56.3481 234.692C54.1919 234.692 53.1138 235.349 53.1138 236.661C53.1138 237.208 53.2973 237.63 53.6645 237.927C54.0395 238.224 54.5669 238.372 55.2466 238.372C56.02 238.372 56.6645 238.239 57.1802 237.974C57.7036 237.708 58.0942 237.368 58.352 236.954C58.6098 236.54 58.7388 236.114 58.7388 235.677V234.317L59.4653 237.505H58.4809L58.8794 237.13C58.8794 237.849 58.7114 238.45 58.3755 238.935C58.0473 239.411 57.5825 239.771 56.9809 240.013C56.3794 240.247 55.6684 240.364 54.8481 240.364ZM73.0769 240.13V232.044C73.0769 231.294 72.8816 230.716 72.4909 230.31C72.1003 229.903 71.5534 229.7 70.8503 229.7C68.8972 229.7 67.9206 230.849 67.9206 233.146L67.1941 229.958H68.155C68.2253 229.122 68.53 228.501 69.0691 228.095C69.6081 227.681 70.3972 227.474 71.4362 227.474C72.7487 227.474 73.7644 227.872 74.4831 228.669C75.2019 229.466 75.5612 230.591 75.5612 232.044V240.13H73.0769ZM65.4362 240.13V227.708H67.6862L67.9206 230.333V240.13H65.4362ZM85.5166 240.364C83.3994 240.364 81.7627 239.81 80.6064 238.7C79.458 237.583 78.8838 235.981 78.8838 233.896C78.8838 231.864 79.4267 230.286 80.5127 229.161C81.6064 228.036 83.165 227.474 85.1884 227.474C86.3994 227.474 87.4345 227.7 88.2939 228.153C89.1611 228.599 89.7783 229.231 90.1455 230.052L88.2353 231.493C87.8838 230.923 87.4345 230.481 86.8877 230.169C86.3408 229.856 85.7431 229.7 85.0947 229.7C83.9228 229.7 83.0127 230.056 82.3642 230.767C81.7158 231.47 81.3916 232.474 81.3916 233.778C81.3916 235.192 81.7705 236.274 82.5283 237.024C83.2939 237.767 84.3838 238.138 85.7978 238.138C86.3759 238.138 86.9541 238.11 87.5322 238.056C88.1103 238.001 88.6728 237.927 89.2197 237.833L89.5009 240.013C88.8603 240.153 88.1963 240.247 87.5088 240.294C86.8291 240.341 86.165 240.364 85.5166 240.364ZM100.722 240.13V232.044C100.722 231.255 100.527 230.649 100.136 230.228C99.7453 229.798 99.1984 229.583 98.4953 229.583C96.5422 229.583 95.5656 230.771 95.5656 233.146L94.8391 229.958H95.8C95.8703 229.122 96.175 228.501 96.7141 228.095C97.2531 227.681 98.0422 227.474 99.0813 227.474C100.394 227.474 101.409 227.872 102.128 228.669C102.847 229.466 103.206 230.591 103.206 232.044V240.13H100.722ZM93.0813 240.13V222.552H95.5656V240.13H93.0813ZM111.966 240.364C110.247 240.364 108.912 239.802 107.958 238.677C107.005 237.552 106.529 235.966 106.529 233.919C106.529 231.864 107.005 230.278 107.958 229.161C108.912 228.036 110.247 227.474 111.966 227.474C113.693 227.474 115.029 228.036 115.974 229.161C116.927 230.278 117.404 231.864 117.404 233.919C117.404 235.966 116.927 237.552 115.974 238.677C115.029 239.802 113.693 240.364 111.966 240.364ZM111.966 238.138C112.88 238.138 113.583 237.771 114.076 237.036C114.576 236.302 114.826 235.263 114.826 233.919C114.826 232.567 114.576 231.528 114.076 230.802C113.583 230.067 112.88 229.7 111.966 229.7C111.052 229.7 110.345 230.067 109.845 230.802C109.353 231.528 109.107 232.567 109.107 233.919C109.107 235.263 109.353 236.302 109.845 237.036C110.345 237.771 111.052 238.138 111.966 238.138ZM124.945 234.786L124.218 230.896H125.179C125.32 228.614 126.461 227.474 128.601 227.474C129.882 227.474 130.812 227.841 131.39 228.575C131.968 229.31 132.257 230.497 132.257 232.138H129.797C129.797 231.231 129.66 230.579 129.386 230.181C129.121 229.782 128.687 229.583 128.086 229.583C127.031 229.583 126.242 230.036 125.718 230.942C125.203 231.841 124.945 233.122 124.945 234.786ZM119.695 240.13V237.95H127.992V240.13H119.695ZM122.461 240.13V227.708H124.476L124.945 231.271V240.13H122.461ZM120.164 229.888V227.708H124.312L124.547 229.888H120.164Z" fill="#89B4FA"/>
<path d="M152.59 234.786L151.863 230.896H152.824C152.965 228.614 154.106 227.474 156.246 227.474C157.527 227.474 158.457 227.841 159.035 228.575C159.613 229.31 159.902 230.497 159.902 232.138H157.442C157.442 231.231 157.305 230.579 157.031 230.181C156.766 229.782 156.332 229.583 155.731 229.583C154.676 229.583 153.887 230.036 153.363 230.942C152.848 231.841 152.59 233.122 152.59 234.786ZM147.34 240.13V237.95H155.637V240.13H147.34ZM150.106 240.13V227.708H152.121L152.59 231.271V240.13H150.106ZM147.809 229.888V227.708H151.957L152.192 229.888H147.809ZM166.038 240.364C164.733 240.364 163.721 239.978 163.002 239.204C162.291 238.423 161.936 237.325 161.936 235.911V227.708H164.42V235.911C164.42 236.622 164.623 237.173 165.03 237.563C165.436 237.946 166.006 238.138 166.741 238.138C167.647 238.138 168.33 237.853 168.791 237.282C169.252 236.704 169.483 235.739 169.483 234.388L170.116 237.739H169.295C169.1 238.583 168.717 239.231 168.147 239.685C167.577 240.138 166.873 240.364 166.038 240.364ZM169.694 240.247L169.483 237.271V235.091H171.967V237.88L173.678 238.138V240.13L169.694 240.247ZM169.483 236.614V227.708H171.967V235.911L169.483 236.614ZM183.657 240.13V232.044C183.657 231.294 183.462 230.716 183.071 230.31C182.68 229.903 182.133 229.7 181.43 229.7C179.477 229.7 178.501 230.849 178.501 233.146L177.774 229.958H178.735C178.805 229.122 179.11 228.501 179.649 228.095C180.188 227.681 180.977 227.474 182.016 227.474C183.329 227.474 184.344 227.872 185.063 228.669C185.782 229.466 186.141 230.591 186.141 232.044V240.13H183.657ZM176.016 240.13V227.708H178.266L178.501 230.333V240.13H176.016Z" fill="#CED7F3"/>
</g>
</svg>
